<?xml version="1.0" encoding="UTF-8" standalone="no"?><svg xmlns="http://www.w3.org/2000/svg" xmlns:xlink="http://www.w3.org/1999/xlink" contentStyleType="text/css" height="1644px" preserveAspectRatio="none" style="width:2286px;height:1644px;background:#FFFFFF;" version="1.1" viewBox="0 0 2286 1644" width="2286px" zoomAndPan="magnify"><defs/><g><!--cluster lib--><g id="cluster_lib"><rect fill="none" height="156" rx="2.5" ry="2.5" style="stroke:#000000;stroke-width:1.5;" width="364" x="7" y="681.5"/><text fill="#000000" font-family="sans-serif" font-size="14" font-weight="bold" lengthAdjust="spacing" textLength="20" x="179" y="696.4951">lib</text></g><!--cluster types--><g id="cluster_types"><rect fill="none" height="683" rx="2.5" ry="2.5" style="stroke:#000000;stroke-width:1.5;" width="1480" x="717" y="955"/><text fill="#000000" font-family="sans-serif" font-size="14" font-weight="bold" lengthAdjust="spacing" textLength="45" x="1434.5" y="969.9951">types</text></g><!--cluster components--><g id="cluster_components"><rect fill="none" height="115" rx="2.5" ry="2.5" style="stroke:#000000;stroke-width:1.5;" width="222" x="1608" y="7"/><text fill="#000000" font-family="sans-serif" font-size="14" font-weight="bold" lengthAdjust="spacing" textLength="100" x="1669" y="21.9951">components</text></g><!--cluster model--><g id="cluster_model"><rect fill="none" height="343" rx="2.5" ry="2.5" style="stroke:#000000;stroke-width:1.5;" width="1743" x="395" y="588"/><text fill="#000000" font-family="sans-serif" font-size="14" font-weight="bold" lengthAdjust="spacing" textLength="49" x="1242" y="602.9951">model</text></g><!--cluster viewmodel--><g id="cluster_viewmodel"><rect fill="none" height="246" rx="2.5" ry="2.5" style="stroke:#000000;stroke-width:1.5;" width="1730" x="550" y="318"/><text fill="#000000" font-family="sans-serif" font-size="14" font-weight="bold" lengthAdjust="spacing" textLength="85" x="1372.5" y="332.9951">viewmodel</text></g><!--cluster view--><g id="cluster_view"><rect fill="none" height="148" rx="2.5" ry="2.5" style="stroke:#000000;stroke-width:1.5;" width="1367" x="784" y="146"/><text fill="#000000" font-family="sans-serif" font-size="14" font-weight="bold" lengthAdjust="spacing" textLength="36" x="1449.5" y="160.9951">view</text></g><!--class UserPreferences--><g id="elem_UserPreferences"><rect codeLine="5" fill="#F1F1F1" height="105.1563" id="UserPreferences" rx="2.5" ry="2.5" style="stroke:#181818;stroke-width:0.5;" width="331" x="23.5" y="716.5"/><ellipse cx="125.75" cy="736.6328" fill="#FF7700" rx="11" ry="11" style="stroke:#181818;stroke-width:1.0;"/><path d="M129.5313,732.6016 C129.5313,732.1641 129.5156,732.0234 129.4219,731.8672 C129.2813,731.6328 129,731.4766 128.7031,731.4766 C128.3594,731.4766 128.2188,731.6172 128.0469,732.0391 C127.4531,731.6641 126.7031,731.4766 125.8281,731.4766 C123.7188,731.4766 122.1406,732.7734 122.1406,734.4922 C122.1406,735.4609 122.6719,736.3672 123.5313,736.8516 C124.0781,737.1641 124.625,737.3359 125.7344,737.5234 C126.8906,737.7266 127.1563,737.7891 127.5156,737.9766 C127.8906,738.1797 128.125,738.5234 128.125,738.8828 C128.125,739.6172 127.1406,740.1641 125.8906,740.1641 C124.7656,740.1641 123.6875,739.6797 123.5156,739.0703 C123.3906,738.6016 123.3906,738.6016 123.2656,738.4922 C123.1094,738.3359 122.8906,738.2422 122.6563,738.2422 C122.375,738.2422 122.125,738.3672 121.9531,738.5859 C121.8438,738.7578 121.7969,738.9453 121.7969,739.3672 L121.7969,740.4922 C121.7969,741.2578 122.0781,741.6172 122.6719,741.6172 C122.9375,741.6172 123.0625,741.5547 123.3438,741.2109 C124.1875,741.6484 125.0781,741.8672 126,741.8672 C128.3281,741.8672 129.8906,740.6797 129.8906,738.9141 C129.8906,738.0234 129.5781,737.3359 128.8906,736.7891 C128.3594,736.3672 127.7188,736.1172 126.2344,735.8516 C124.9688,735.6172 124.875,735.5859 124.5469,735.4141 C124.1719,735.2266 123.9063,734.8359 123.9063,734.4766 C123.9063,733.7422 124.7656,733.1797 125.8281,733.1797 C126.8906,733.1797 127.7031,733.6484 127.8594,734.3203 C127.9688,734.8672 127.9688,734.8672 128.0938,735.0078 C128.2344,735.1328 128.4688,735.2422 128.7031,735.2422 C128.9688,735.2422 129.2188,735.1016 129.3906,734.8828 C129.5,734.7109 129.5313,734.5703 129.5313,734.1016 L129.5313,732.6016 Z " fill="#000000"/><text fill="#000000" font-family="sans-serif" font-size="12" font-style="italic" lengthAdjust="spacing" textLength="49" x="180.75" y="732.6387">«Static»</text><text fill="#000000" font-family="sans-serif" font-size="14" lengthAdjust="spacing" textLength="118" x="146.25" y="748.4639">UserPreferences</text><line style="stroke:#181818;stroke-width:0.5;" x1="24.5" x2="353.5" y1="756.7656" y2="756.7656"/><line style="stroke:#181818;stroke-width:0.5;" x1="24.5" x2="353.5" y1="764.7656" y2="764.7656"/><text fill="#000000" font-family="sans-serif" font-size="14" lengthAdjust="spacing" textLength="319" x="29.5" y="781.7607">+getUserPreferedReducedMotion(): boolean</text><text fill="#000000" font-family="sans-serif" font-size="14" lengthAdjust="spacing" textLength="280" x="29.5" y="798.0576">+getUserPreferedDarkMode(): boolean</text><text fill="#000000" font-family="sans-serif" font-size="14" lengthAdjust="spacing" textLength="254" x="29.5" y="814.3545">+getUserPreferedContrast(): string</text></g><!--class AppState--><g id="elem_AppState"><rect codeLine="13" fill="#F1F1F1" height="96.8906" id="AppState" rx="2.5" ry="2.5" style="stroke:#181818;stroke-width:0.5;" width="102" x="2079" y="1006"/><ellipse cx="2094" cy="1022" fill="#EB937F" rx="11" ry="11" style="stroke:#181818;stroke-width:1.0;"/><path d="M2092.7969,1022.875 L2094.25,1022.875 L2094.25,1022.9844 C2094.25,1023.3906 2094.2813,1023.5469 2094.3594,1023.7031 C2094.5156,1023.9531 2094.7969,1024.1094 2095.0938,1024.1094 C2095.3438,1024.1094 2095.6094,1023.9688 2095.7656,1023.75 C2095.8906,1023.5938 2095.9219,1023.4375 2095.9219,1022.9844 L2095.9219,1021.0625 C2095.9219,1020.9063 2095.9219,1020.8594 2095.9063,1020.7031 C2095.8438,1020.2344 2095.5313,1019.9219 2095.0781,1019.9219 C2094.8281,1019.9219 2094.5625,1020.0625 2094.3906,1020.2813 C2094.2813,1020.4531 2094.25,1020.6094 2094.25,1021.0625 L2094.25,1021.1875 L2092.7969,1021.1875 L2092.7969,1018.7813 L2096.7813,1018.7813 L2096.7813,1019.6406 C2096.7813,1020.0469 2096.8125,1020.2188 2096.8906,1020.375 C2097.0625,1020.625 2097.3438,1020.7813 2097.625,1020.7813 C2097.8906,1020.7813 2098.1563,1020.6406 2098.3281,1020.4219 C2098.4375,1020.25 2098.4688,1020.1094 2098.4688,1019.6406 L2098.4688,1017.0938 L2090.8438,1017.0938 C2090.4063,1017.0938 2090.2813,1017.1094 2090.125,1017.2031 C2089.875,1017.3594 2089.7188,1017.6563 2089.7188,1017.9375 C2089.7188,1018.2188 2089.8594,1018.4688 2090.0781,1018.6406 C2090.2344,1018.75 2090.4219,1018.7813 2090.8438,1018.7813 L2091.0938,1018.7813 L2091.0938,1025.2969 L2090.8438,1025.2969 C2090.4375,1025.2969 2090.2813,1025.3125 2090.125,1025.4219 C2089.875,1025.5938 2089.7188,1025.8594 2089.7188,1026.1563 C2089.7188,1026.4219 2089.8594,1026.6719 2090.0781,1026.8281 C2090.2188,1026.9531 2090.4531,1027 2090.8438,1027 L2098.8438,1027 L2098.8438,1024.4219 C2098.8438,1023.9844 2098.8125,1023.8438 2098.7344,1023.6875 C2098.5625,1023.4375 2098.2813,1023.2813 2098,1023.2813 C2097.7344,1023.2813 2097.4688,1023.3906 2097.2969,1023.6406 C2097.1875,1023.7969 2097.1563,1023.9375 2097.1563,1024.4219 L2097.1563,1025.2969 L2092.7969,1025.2969 L2092.7969,1022.875 Z " fill="#000000"/><text fill="#000000" font-family="sans-serif" font-size="14" lengthAdjust="spacing" textLength="70" x="2108" y="1026.8467">AppState</text><line style="stroke:#181818;stroke-width:0.5;" x1="2080" x2="2180" y1="1038" y2="1038"/><text fill="#000000" font-family="sans-serif" font-size="14" lengthAdjust="spacing" textLength="83" x="2085" y="1054.9951">MAIN_MENU</text><text fill="#000000" font-family="sans-serif" font-size="14" lengthAdjust="spacing" textLength="63" x="2085" y="1071.292">IN_GAME</text><text fill="#000000" font-family="sans-serif" font-size="14" lengthAdjust="spacing" textLength="63" x="2085" y="1087.5889">OPTIONS</text><line style="stroke:#181818;stroke-width:0.5;" x1="2080" x2="2180" y1="1094.8906" y2="1094.8906"/></g><!--class DialogType--><g id="elem_DialogType"><rect codeLine="19" fill="#F1F1F1" height="129.4844" id="DialogType" rx="2.5" ry="2.5" style="stroke:#181818;stroke-width:0.5;" width="151" x="1217.5" y="990"/><ellipse cx="1249.6" cy="1006" fill="#EB937F" rx="11" ry="11" style="stroke:#181818;stroke-width:1.0;"/><path d="M1248.3969,1006.875 L1249.85,1006.875 L1249.85,1006.9844 C1249.85,1007.3906 1249.8813,1007.5469 1249.9594,1007.7031 C1250.1156,1007.9531 1250.3969,1008.1094 1250.6938,1008.1094 C1250.9438,1008.1094 1251.2094,1007.9688 1251.3656,1007.75 C1251.4906,1007.5938 1251.5219,1007.4375 1251.5219,1006.9844 L1251.5219,1005.0625 C1251.5219,1004.9063 1251.5219,1004.8594 1251.5063,1004.7031 C1251.4438,1004.2344 1251.1313,1003.9219 1250.6781,1003.9219 C1250.4281,1003.9219 1250.1625,1004.0625 1249.9906,1004.2813 C1249.8813,1004.4531 1249.85,1004.6094 1249.85,1005.0625 L1249.85,1005.1875 L1248.3969,1005.1875 L1248.3969,1002.7813 L1252.3813,1002.7813 L1252.3813,1003.6406 C1252.3813,1004.0469 1252.4125,1004.2188 1252.4906,1004.375 C1252.6625,1004.625 1252.9438,1004.7813 1253.225,1004.7813 C1253.4906,1004.7813 1253.7563,1004.6406 1253.9281,1004.4219 C1254.0375,1004.25 1254.0688,1004.1094 1254.0688,1003.6406 L1254.0688,1001.0938 L1246.4438,1001.0938 C1246.0063,1001.0938 1245.8813,1001.1094 1245.725,1001.2031 C1245.475,1001.3594 1245.3188,1001.6563 1245.3188,1001.9375 C1245.3188,1002.2188 1245.4594,1002.4688 1245.6781,1002.6406 C1245.8344,1002.75 1246.0219,1002.7813 1246.4438,1002.7813 L1246.6938,1002.7813 L1246.6938,1009.2969 L1246.4438,1009.2969 C1246.0375,1009.2969 1245.8813,1009.3125 1245.725,1009.4219 C1245.475,1009.5938 1245.3188,1009.8594 1245.3188,1010.1563 C1245.3188,1010.4219 1245.4594,1010.6719 1245.6781,1010.8281 C1245.8188,1010.9531 1246.0531,1011 1246.4438,1011 L1254.4438,1011 L1254.4438,1008.4219 C1254.4438,1007.9844 1254.4125,1007.8438 1254.3344,1007.6875 C1254.1625,1007.4375 1253.8813,1007.2813 1253.6,1007.2813 C1253.3344,1007.2813 1253.0688,1007.3906 1252.8969,1007.6406 C1252.7875,1007.7969 1252.7563,1007.9375 1252.7563,1008.4219 L1252.7563,1009.2969 L1248.3969,1009.2969 L1248.3969,1006.875 Z " fill="#000000"/><text fill="#000000" font-family="sans-serif" font-size="14" lengthAdjust="spacing" textLength="81" x="1267.4" y="1010.8467">DialogType</text><line style="stroke:#181818;stroke-width:0.5;" x1="1218.5" x2="1367.5" y1="1022" y2="1022"/><text fill="#000000" font-family="sans-serif" font-size="14" lengthAdjust="spacing" textLength="105" x="1223.5" y="1038.9951">NarratorDialog</text><text fill="#000000" font-family="sans-serif" font-size="14" lengthAdjust="spacing" textLength="89" x="1223.5" y="1055.292">PlayerDialog</text><text fill="#000000" font-family="sans-serif" font-size="14" lengthAdjust="spacing" textLength="139" x="1223.5" y="1071.5889">PlayerOptionDialog</text><text fill="#000000" font-family="sans-serif" font-size="14" lengthAdjust="spacing" textLength="74" x="1223.5" y="1087.8857">NPCDialog</text><text fill="#000000" font-family="sans-serif" font-size="14" lengthAdjust="spacing" textLength="86" x="1223.5" y="1104.1826">ChapterEnd</text><line style="stroke:#181818;stroke-width:0.5;" x1="1218.5" x2="1367.5" y1="1111.4844" y2="1111.4844"/></g><!--class Tag--><g id="elem_Tag"><rect codeLine="27" fill="#F1F1F1" height="64.2969" id="Tag" rx="2.5" ry="2.5" style="stroke:#181818;stroke-width:0.5;" width="164" x="778" y="1203.5"/><ellipse cx="842.75" cy="1219.5" fill="#EB937F" rx="11" ry="11" style="stroke:#181818;stroke-width:1.0;"/><path d="M841.5469,1220.375 L843,1220.375 L843,1220.4844 C843,1220.8906 843.0313,1221.0469 843.1094,1221.2031 C843.2656,1221.4531 843.5469,1221.6094 843.8438,1221.6094 C844.0938,1221.6094 844.3594,1221.4688 844.5156,1221.25 C844.6406,1221.0938 844.6719,1220.9375 844.6719,1220.4844 L844.6719,1218.5625 C844.6719,1218.4063 844.6719,1218.3594 844.6563,1218.2031 C844.5938,1217.7344 844.2813,1217.4219 843.8281,1217.4219 C843.5781,1217.4219 843.3125,1217.5625 843.1406,1217.7813 C843.0313,1217.9531 843,1218.1094 843,1218.5625 L843,1218.6875 L841.5469,1218.6875 L841.5469,1216.2813 L845.5313,1216.2813 L845.5313,1217.1406 C845.5313,1217.5469 845.5625,1217.7188 845.6406,1217.875 C845.8125,1218.125 846.0938,1218.2813 846.375,1218.2813 C846.6406,1218.2813 846.9063,1218.1406 847.0781,1217.9219 C847.1875,1217.75 847.2188,1217.6094 847.2188,1217.1406 L847.2188,1214.5938 L839.5938,1214.5938 C839.1563,1214.5938 839.0313,1214.6094 838.875,1214.7031 C838.625,1214.8594 838.4688,1215.1563 838.4688,1215.4375 C838.4688,1215.7188 838.6094,1215.9688 838.8281,1216.1406 C838.9844,1216.25 839.1719,1216.2813 839.5938,1216.2813 L839.8438,1216.2813 L839.8438,1222.7969 L839.5938,1222.7969 C839.1875,1222.7969 839.0313,1222.8125 838.875,1222.9219 C838.625,1223.0938 838.4688,1223.3594 838.4688,1223.6563 C838.4688,1223.9219 838.6094,1224.1719 838.8281,1224.3281 C838.9688,1224.4531 839.2031,1224.5 839.5938,1224.5 L847.5938,1224.5 L847.5938,1221.9219 C847.5938,1221.4844 847.5625,1221.3438 847.4844,1221.1875 C847.3125,1220.9375 847.0313,1220.7813 846.75,1220.7813 C846.4844,1220.7813 846.2188,1220.8906 846.0469,1221.1406 C845.9375,1221.2969 845.9063,1221.4375 845.9063,1221.9219 L845.9063,1222.7969 L841.5469,1222.7969 L841.5469,1220.375 Z " fill="#000000"/><text fill="#000000" font-family="sans-serif" font-size="14" lengthAdjust="spacing" textLength="26" x="863.25" y="1224.3467">Tag</text><line style="stroke:#181818;stroke-width:0.5;" x1="779" x2="941" y1="1235.5" y2="1235.5"/><text fill="#000000" font-family="sans-serif" font-size="14" lengthAdjust="spacing" textLength="152" x="784" y="1252.4951">diskriminierungstyp1</text><line style="stroke:#181818;stroke-width:0.5;" x1="779" x2="941" y1="1259.7969" y2="1259.7969"/></g><!--class Chapter--><g id="elem_Chapter"><rect codeLine="31" fill="#F1F1F1" height="96.8906" id="Chapter" rx="2.5" ry="2.5" style="stroke:#181818;stroke-width:0.5;" width="213" x="969.5" y="1006"/><ellipse cx="1043.25" cy="1022" fill="#B4A7E5" rx="11" ry="11" style="stroke:#181818;stroke-width:1.0;"/><path d="M1044.2031,1018.7813 L1045.9219,1018.7813 C1046.3125,1018.7813 1046.5,1018.75 1046.625,1018.6719 C1046.8906,1018.5156 1047.0313,1018.2344 1047.0313,1017.9375 C1047.0313,1017.6719 1046.9219,1017.4063 1046.6875,1017.2344 C1046.5156,1017.125 1046.375,1017.0938 1045.9219,1017.0938 L1040.7813,1017.0938 C1040.3438,1017.0938 1040.2188,1017.1094 1040.0625,1017.2031 C1039.8125,1017.3594 1039.6563,1017.6563 1039.6563,1017.9375 C1039.6563,1018.2188 1039.7969,1018.4688 1040.0156,1018.6406 C1040.1719,1018.75 1040.3594,1018.7813 1040.7813,1018.7813 L1042.5,1018.7813 L1042.5,1025.2969 L1040.7813,1025.2969 C1040.3438,1025.2969 1040.2188,1025.3125 1040.0625,1025.4219 C1039.8125,1025.5781 1039.6563,1025.8594 1039.6563,1026.1563 C1039.6563,1026.4063 1039.7969,1026.6719 1040.0156,1026.8281 C1040.1719,1026.9531 1040.375,1027 1040.7813,1027 L1045.9219,1027 C1046.6719,1027 1047.0313,1026.7188 1047.0313,1026.1563 C1047.0313,1025.875 1046.9219,1025.625 1046.6875,1025.4531 C1046.5156,1025.3281 1046.375,1025.2969 1045.9219,1025.2969 L1044.2031,1025.2969 L1044.2031,1018.7813 Z " fill="#000000"/><text fill="#000000" font-family="sans-serif" font-size="14" font-style="italic" lengthAdjust="spacing" textLength="57" x="1063.75" y="1026.8467">Chapter</text><line style="stroke:#181818;stroke-width:0.5;" x1="970.5" x2="1181.5" y1="1038" y2="1038"/><text fill="#000000" font-family="sans-serif" font-size="14" lengthAdjust="spacing" textLength="93" x="975.5" y="1054.9951">+title: string</text><text fill="#000000" font-family="sans-serif" font-size="14" lengthAdjust="spacing" textLength="201" x="975.5" y="1071.292">+tags: Array&lt;Tag&lt;string&gt;&gt;</text><text fill="#000000" font-family="sans-serif" font-size="14" lengthAdjust="spacing" textLength="145" x="975.5" y="1087.5889">+headDialog: Dialog</text><line style="stroke:#181818;stroke-width:0.5;" x1="970.5" x2="1181.5" y1="1094.8906" y2="1094.8906"/></g><!--class Dialog--><g id="elem_Dialog"><rect codeLine="39" fill="#F1F1F1" height="64.2969" id="Dialog" rx="2.5" ry="2.5" style="stroke:#181818;stroke-width:0.5;" width="192" x="977" y="1203.5"/><ellipse cx="1045.75" cy="1219.5" fill="#B4A7E5" rx="11" ry="11" style="stroke:#181818;stroke-width:1.0;"/><path d="M1046.7031,1216.2813 L1048.4219,1216.2813 C1048.8125,1216.2813 1049,1216.25 1049.125,1216.1719 C1049.3906,1216.0156 1049.5313,1215.7344 1049.5313,1215.4375 C1049.5313,1215.1719 1049.4219,1214.9063 1049.1875,1214.7344 C1049.0156,1214.625 1048.875,1214.5938 1048.4219,1214.5938 L1043.2813,1214.5938 C1042.8438,1214.5938 1042.7188,1214.6094 1042.5625,1214.7031 C1042.3125,1214.8594 1042.1563,1215.1563 1042.1563,1215.4375 C1042.1563,1215.7188 1042.2969,1215.9688 1042.5156,1216.1406 C1042.6719,1216.25 1042.8594,1216.2813 1043.2813,1216.2813 L1045,1216.2813 L1045,1222.7969 L1043.2813,1222.7969 C1042.8438,1222.7969 1042.7188,1222.8125 1042.5625,1222.9219 C1042.3125,1223.0781 1042.1563,1223.3594 1042.1563,1223.6563 C1042.1563,1223.9063 1042.2969,1224.1719 1042.5156,1224.3281 C1042.6719,1224.4531 1042.875,1224.5 1043.2813,1224.5 L1048.4219,1224.5 C1049.1719,1224.5 1049.5313,1224.2188 1049.5313,1223.6563 C1049.5313,1223.375 1049.4219,1223.125 1049.1875,1222.9531 C1049.0156,1222.8281 1048.875,1222.7969 1048.4219,1222.7969 L1046.7031,1222.7969 L1046.7031,1216.2813 Z " fill="#000000"/><text fill="#000000" font-family="sans-serif" font-size="14" font-style="italic" lengthAdjust="spacing" textLength="46" x="1066.25" y="1224.3467">Dialog</text><line style="stroke:#181818;stroke-width:0.5;" x1="978" x2="1168" y1="1235.5" y2="1235.5"/><text fill="#000000" font-family="sans-serif" font-size="14" lengthAdjust="spacing" textLength="180" x="983" y="1252.4951">+dialogType: DialogType</text><line style="stroke:#181818;stroke-width:0.5;" x1="978" x2="1168" y1="1259.7969" y2="1259.7969"/></g><!--class NarratorDialog--><g id="elem_NarratorDialog"><rect codeLine="43" fill="#F1F1F1" height="96.8906" id="NarratorDialog" rx="2.5" ry="2.5" style="stroke:#181818;stroke-width:0.5;" width="302" x="735" y="1360"/><ellipse cx="828.75" cy="1376" fill="#B4A7E5" rx="11" ry="11" style="stroke:#181818;stroke-width:1.0;"/><path d="M829.7031,1372.7813 L831.4219,1372.7813 C831.8125,1372.7813 832,1372.75 832.125,1372.6719 C832.3906,1372.5156 832.5313,1372.2344 832.5313,1371.9375 C832.5313,1371.6719 832.4219,1371.4063 832.1875,1371.2344 C832.0156,1371.125 831.875,1371.0938 831.4219,1371.0938 L826.2813,1371.0938 C825.8438,1371.0938 825.7188,1371.1094 825.5625,1371.2031 C825.3125,1371.3594 825.1563,1371.6563 825.1563,1371.9375 C825.1563,1372.2188 825.2969,1372.4688 825.5156,1372.6406 C825.6719,1372.75 825.8594,1372.7813 826.2813,1372.7813 L828,1372.7813 L828,1379.2969 L826.2813,1379.2969 C825.8438,1379.2969 825.7188,1379.3125 825.5625,1379.4219 C825.3125,1379.5781 825.1563,1379.8594 825.1563,1380.1563 C825.1563,1380.4063 825.2969,1380.6719 825.5156,1380.8281 C825.6719,1380.9531 825.875,1381 826.2813,1381 L831.4219,1381 C832.1719,1381 832.5313,1380.7188 832.5313,1380.1563 C832.5313,1379.875 832.4219,1379.625 832.1875,1379.4531 C832.0156,1379.3281 831.875,1379.2969 831.4219,1379.2969 L829.7031,1379.2969 L829.7031,1372.7813 Z " fill="#000000"/><text fill="#000000" font-family="sans-serif" font-size="14" font-style="italic" lengthAdjust="spacing" textLength="106" x="849.25" y="1380.8467">NarratorDialog</text><line style="stroke:#181818;stroke-width:0.5;" x1="736" x2="1036" y1="1392" y2="1392"/><text fill="#000000" font-family="sans-serif" font-size="14" lengthAdjust="spacing" textLength="290" x="741" y="1408.9951">+dialogType: DialogType.NarratorDialog</text><text fill="#000000" font-family="sans-serif" font-size="14" lengthAdjust="spacing" textLength="93" x="741" y="1425.292">+text: string</text><text fill="#000000" font-family="sans-serif" font-size="14" lengthAdjust="spacing" textLength="105" x="741" y="1441.5889">+next: Dialog?</text><line style="stroke:#181818;stroke-width:0.5;" x1="736" x2="1036" y1="1448.8906" y2="1448.8906"/></g><!--class PlayerDialog--><g id="elem_PlayerDialog"><rect codeLine="50" fill="#F1F1F1" height="96.8906" id="PlayerDialog" rx="2.5" ry="2.5" style="stroke:#181818;stroke-width:0.5;" width="286" x="930" y="1525"/><ellipse cx="1023.75" cy="1541" fill="#B4A7E5" rx="11" ry="11" style="stroke:#181818;stroke-width:1.0;"/><path d="M1024.7031,1537.7813 L1026.4219,1537.7813 C1026.8125,1537.7813 1027,1537.75 1027.125,1537.6719 C1027.3906,1537.5156 1027.5313,1537.2344 1027.5313,1536.9375 C1027.5313,1536.6719 1027.4219,1536.4063 1027.1875,1536.2344 C1027.0156,1536.125 1026.875,1536.0938 1026.4219,1536.0938 L1021.2813,1536.0938 C1020.8438,1536.0938 1020.7188,1536.1094 1020.5625,1536.2031 C1020.3125,1536.3594 1020.1563,1536.6563 1020.1563,1536.9375 C1020.1563,1537.2188 1020.2969,1537.4688 1020.5156,1537.6406 C1020.6719,1537.75 1020.8594,1537.7813 1021.2813,1537.7813 L1023,1537.7813 L1023,1544.2969 L1021.2813,1544.2969 C1020.8438,1544.2969 1020.7188,1544.3125 1020.5625,1544.4219 C1020.3125,1544.5781 1020.1563,1544.8594 1020.1563,1545.1563 C1020.1563,1545.4063 1020.2969,1545.6719 1020.5156,1545.8281 C1020.6719,1545.9531 1020.875,1546 1021.2813,1546 L1026.4219,1546 C1027.1719,1546 1027.5313,1545.7188 1027.5313,1545.1563 C1027.5313,1544.875 1027.4219,1544.625 1027.1875,1544.4531 C1027.0156,1544.3281 1026.875,1544.2969 1026.4219,1544.2969 L1024.7031,1544.2969 L1024.7031,1537.7813 Z " fill="#000000"/><text fill="#000000" font-family="sans-serif" font-size="14" font-style="italic" lengthAdjust="spacing" textLength="90" x="1044.25" y="1545.8467">PlayerDialog</text><line style="stroke:#181818;stroke-width:0.5;" x1="931" x2="1215" y1="1557" y2="1557"/><text fill="#000000" font-family="sans-serif" font-size="14" lengthAdjust="spacing" textLength="274" x="936" y="1573.9951">+dialogType: DialogType.PlayerDialog</text><text fill="#000000" font-family="sans-serif" font-size="14" lengthAdjust="spacing" textLength="93" x="936" y="1590.292">+text: string</text><text fill="#000000" font-family="sans-serif" font-size="14" lengthAdjust="spacing" textLength="105" x="936" y="1606.5889">+next: Dialog?</text><line style="stroke:#181818;stroke-width:0.5;" x1="931" x2="1215" y1="1613.8906" y2="1613.8906"/></g><!--class PlayerOptionDialog--><g id="elem_PlayerOptionDialog"><rect codeLine="57" fill="#F1F1F1" height="80.5938" id="PlayerOptionDialog" rx="2.5" ry="2.5" style="stroke:#181818;stroke-width:0.5;" width="336" x="1109" y="1368"/><ellipse cx="1204.25" cy="1384" fill="#B4A7E5" rx="11" ry="11" style="stroke:#181818;stroke-width:1.0;"/><path d="M1205.2031,1380.7813 L1206.9219,1380.7813 C1207.3125,1380.7813 1207.5,1380.75 1207.625,1380.6719 C1207.8906,1380.5156 1208.0313,1380.2344 1208.0313,1379.9375 C1208.0313,1379.6719 1207.9219,1379.4063 1207.6875,1379.2344 C1207.5156,1379.125 1207.375,1379.0938 1206.9219,1379.0938 L1201.7813,1379.0938 C1201.3438,1379.0938 1201.2188,1379.1094 1201.0625,1379.2031 C1200.8125,1379.3594 1200.6563,1379.6563 1200.6563,1379.9375 C1200.6563,1380.2188 1200.7969,1380.4688 1201.0156,1380.6406 C1201.1719,1380.75 1201.3594,1380.7813 1201.7813,1380.7813 L1203.5,1380.7813 L1203.5,1387.2969 L1201.7813,1387.2969 C1201.3438,1387.2969 1201.2188,1387.3125 1201.0625,1387.4219 C1200.8125,1387.5781 1200.6563,1387.8594 1200.6563,1388.1563 C1200.6563,1388.4063 1200.7969,1388.6719 1201.0156,1388.8281 C1201.1719,1388.9531 1201.375,1389 1201.7813,1389 L1206.9219,1389 C1207.6719,1389 1208.0313,1388.7188 1208.0313,1388.1563 C1208.0313,1387.875 1207.9219,1387.625 1207.6875,1387.4531 C1207.5156,1387.3281 1207.375,1387.2969 1206.9219,1387.2969 L1205.2031,1387.2969 L1205.2031,1380.7813 Z " fill="#000000"/><text fill="#000000" font-family="sans-serif" font-size="14" font-style="italic" lengthAdjust="spacing" textLength="137" x="1224.75" y="1388.8467">PlayerOptionDialog</text><line style="stroke:#181818;stroke-width:0.5;" x1="1110" x2="1444" y1="1400" y2="1400"/><text fill="#000000" font-family="sans-serif" font-size="14" lengthAdjust="spacing" textLength="324" x="1115" y="1416.9951">+dialogType: DialogType.PlayerOptionDialog</text><text fill="#000000" font-family="sans-serif" font-size="14" lengthAdjust="spacing" textLength="223" x="1115" y="1433.292">+choices: Array&lt;PlayerDialog&gt;</text><line style="stroke:#181818;stroke-width:0.5;" x1="1110" x2="1444" y1="1440.5938" y2="1440.5938"/></g><!--class NPCDialog--><g id="elem_NPCDialog"><rect codeLine="63" fill="#F1F1F1" height="113.1875" id="NPCDialog" rx="2.5" ry="2.5" style="stroke:#181818;stroke-width:0.5;" width="271" x="1480.5" y="1352"/><ellipse cx="1574.75" cy="1368" fill="#B4A7E5" rx="11" ry="11" style="stroke:#181818;stroke-width:1.0;"/><path d="M1575.7031,1364.7813 L1577.4219,1364.7813 C1577.8125,1364.7813 1578,1364.75 1578.125,1364.6719 C1578.3906,1364.5156 1578.5313,1364.2344 1578.5313,1363.9375 C1578.5313,1363.6719 1578.4219,1363.4063 1578.1875,1363.2344 C1578.0156,1363.125 1577.875,1363.0938 1577.4219,1363.0938 L1572.2813,1363.0938 C1571.8438,1363.0938 1571.7188,1363.1094 1571.5625,1363.2031 C1571.3125,1363.3594 1571.1563,1363.6563 1571.1563,1363.9375 C1571.1563,1364.2188 1571.2969,1364.4688 1571.5156,1364.6406 C1571.6719,1364.75 1571.8594,1364.7813 1572.2813,1364.7813 L1574,1364.7813 L1574,1371.2969 L1572.2813,1371.2969 C1571.8438,1371.2969 1571.7188,1371.3125 1571.5625,1371.4219 C1571.3125,1371.5781 1571.1563,1371.8594 1571.1563,1372.1563 C1571.1563,1372.4063 1571.2969,1372.6719 1571.5156,1372.8281 C1571.6719,1372.9531 1571.875,1373 1572.2813,1373 L1577.4219,1373 C1578.1719,1373 1578.5313,1372.7188 1578.5313,1372.1563 C1578.5313,1371.875 1578.4219,1371.625 1578.1875,1371.4531 C1578.0156,1371.3281 1577.875,1371.2969 1577.4219,1371.2969 L1575.7031,1371.2969 L1575.7031,1364.7813 Z " fill="#000000"/><text fill="#000000" font-family="sans-serif" font-size="14" font-style="italic" lengthAdjust="spacing" textLength="74" x="1595.25" y="1372.8467">NPCDialog</text><line style="stroke:#181818;stroke-width:0.5;" x1="1481.5" x2="1750.5" y1="1384" y2="1384"/><text fill="#000000" font-family="sans-serif" font-size="14" lengthAdjust="spacing" textLength="259" x="1486.5" y="1400.9951">+dialogType: DialogType.NPCDialog</text><text fill="#000000" font-family="sans-serif" font-size="14" lengthAdjust="spacing" textLength="120" x="1486.5" y="1417.292">+speaker: string</text><text fill="#000000" font-family="sans-serif" font-size="14" lengthAdjust="spacing" textLength="93" x="1486.5" y="1433.5889">+text: string</text><text fill="#000000" font-family="sans-serif" font-size="14" lengthAdjust="spacing" textLength="105" x="1486.5" y="1449.8857">+next: Dialog?</text><line style="stroke:#181818;stroke-width:0.5;" x1="1481.5" x2="1750.5" y1="1457.1875" y2="1457.1875"/></g><!--class DialogChoice--><g id="elem_DialogChoice"><rect codeLine="71" fill="#F1F1F1" height="80.5938" id="DialogChoice" rx="2.5" ry="2.5" style="stroke:#181818;stroke-width:0.5;" width="199" x="1403.5" y="1014"/><ellipse cx="1451.25" cy="1030" fill="#B4A7E5" rx="11" ry="11" style="stroke:#181818;stroke-width:1.0;"/><path d="M1452.2031,1026.7813 L1453.9219,1026.7813 C1454.3125,1026.7813 1454.5,1026.75 1454.625,1026.6719 C1454.8906,1026.5156 1455.0313,1026.2344 1455.0313,1025.9375 C1455.0313,1025.6719 1454.9219,1025.4063 1454.6875,1025.2344 C1454.5156,1025.125 1454.375,1025.0938 1453.9219,1025.0938 L1448.7813,1025.0938 C1448.3438,1025.0938 1448.2188,1025.1094 1448.0625,1025.2031 C1447.8125,1025.3594 1447.6563,1025.6563 1447.6563,1025.9375 C1447.6563,1026.2188 1447.7969,1026.4688 1448.0156,1026.6406 C1448.1719,1026.75 1448.3594,1026.7813 1448.7813,1026.7813 L1450.5,1026.7813 L1450.5,1033.2969 L1448.7813,1033.2969 C1448.3438,1033.2969 1448.2188,1033.3125 1448.0625,1033.4219 C1447.8125,1033.5781 1447.6563,1033.8594 1447.6563,1034.1563 C1447.6563,1034.4063 1447.7969,1034.6719 1448.0156,1034.8281 C1448.1719,1034.9531 1448.375,1035 1448.7813,1035 L1453.9219,1035 C1454.6719,1035 1455.0313,1034.7188 1455.0313,1034.1563 C1455.0313,1033.875 1454.9219,1033.625 1454.6875,1033.4531 C1454.5156,1033.3281 1454.375,1033.2969 1453.9219,1033.2969 L1452.2031,1033.2969 L1452.2031,1026.7813 Z " fill="#000000"/><text fill="#000000" font-family="sans-serif" font-size="14" font-style="italic" lengthAdjust="spacing" textLength="95" x="1471.75" y="1034.8467">DialogChoice</text><line style="stroke:#181818;stroke-width:0.5;" x1="1404.5" x2="1601.5" y1="1046" y2="1046"/><text fill="#000000" font-family="sans-serif" font-size="14" lengthAdjust="spacing" textLength="93" x="1409.5" y="1062.9951">+text: string</text><text fill="#000000" font-family="sans-serif" font-size="14" lengthAdjust="spacing" textLength="187" x="1409.5" y="1079.292">+onClick: Function&lt;void&gt;</text><line style="stroke:#181818;stroke-width:0.5;" x1="1404.5" x2="1601.5" y1="1086.5938" y2="1086.5938"/></g><!--class DialogHistoryEntry--><g id="elem_DialogHistoryEntry"><rect codeLine="76" fill="#F1F1F1" height="113.1875" id="DialogHistoryEntry" rx="2.5" ry="2.5" style="stroke:#181818;stroke-width:0.5;" width="165" x="1637.5" y="998"/><ellipse cx="1652.5" cy="1014" fill="#B4A7E5" rx="11" ry="11" style="stroke:#181818;stroke-width:1.0;"/><path d="M1653.4531,1010.7813 L1655.1719,1010.7813 C1655.5625,1010.7813 1655.75,1010.75 1655.875,1010.6719 C1656.1406,1010.5156 1656.2813,1010.2344 1656.2813,1009.9375 C1656.2813,1009.6719 1656.1719,1009.4063 1655.9375,1009.2344 C1655.7656,1009.125 1655.625,1009.0938 1655.1719,1009.0938 L1650.0313,1009.0938 C1649.5938,1009.0938 1649.4688,1009.1094 1649.3125,1009.2031 C1649.0625,1009.3594 1648.9063,1009.6563 1648.9063,1009.9375 C1648.9063,1010.2188 1649.0469,1010.4688 1649.2656,1010.6406 C1649.4219,1010.75 1649.6094,1010.7813 1650.0313,1010.7813 L1651.75,1010.7813 L1651.75,1017.2969 L1650.0313,1017.2969 C1649.5938,1017.2969 1649.4688,1017.3125 1649.3125,1017.4219 C1649.0625,1017.5781 1648.9063,1017.8594 1648.9063,1018.1563 C1648.9063,1018.4063 1649.0469,1018.6719 1649.2656,1018.8281 C1649.4219,1018.9531 1649.625,1019 1650.0313,1019 L1655.1719,1019 C1655.9219,1019 1656.2813,1018.7188 1656.2813,1018.1563 C1656.2813,1017.875 1656.1719,1017.625 1655.9375,1017.4531 C1655.7656,1017.3281 1655.625,1017.2969 1655.1719,1017.2969 L1653.4531,1017.2969 L1653.4531,1010.7813 Z " fill="#000000"/><text fill="#000000" font-family="sans-serif" font-size="14" font-style="italic" lengthAdjust="spacing" textLength="133" x="1666.5" y="1018.8467">DialogHistoryEntry</text><line style="stroke:#181818;stroke-width:0.5;" x1="1638.5" x2="1801.5" y1="1030" y2="1030"/><text fill="#000000" font-family="sans-serif" font-size="14" lengthAdjust="spacing" textLength="120" x="1643.5" y="1046.9951">+speaker: string</text><text fill="#000000" font-family="sans-serif" font-size="14" lengthAdjust="spacing" textLength="133" x="1643.5" y="1063.292">+isPlayer: boolean</text><text fill="#000000" font-family="sans-serif" font-size="14" lengthAdjust="spacing" textLength="149" x="1643.5" y="1079.5889">+isNarrator: boolean</text><text fill="#000000" font-family="sans-serif" font-size="14" lengthAdjust="spacing" textLength="93" x="1643.5" y="1095.8857">+text: string</text><line style="stroke:#181818;stroke-width:0.5;" x1="1638.5" x2="1801.5" y1="1103.1875" y2="1103.1875"/></g><!--class ContrastOption--><g id="elem_ContrastOption"><rect codeLine="83" fill="#F1F1F1" height="96.8906" id="ContrastOption" rx="2.5" ry="2.5" style="stroke:#181818;stroke-width:0.5;" width="145" x="1978.5" y="1187"/><ellipse cx="1993.5" cy="1203" fill="#EB937F" rx="11" ry="11" style="stroke:#181818;stroke-width:1.0;"/><path d="M1992.2969,1203.875 L1993.75,1203.875 L1993.75,1203.9844 C1993.75,1204.3906 1993.7813,1204.5469 1993.8594,1204.7031 C1994.0156,1204.9531 1994.2969,1205.1094 1994.5938,1205.1094 C1994.8438,1205.1094 1995.1094,1204.9688 1995.2656,1204.75 C1995.3906,1204.5938 1995.4219,1204.4375 1995.4219,1203.9844 L1995.4219,1202.0625 C1995.4219,1201.9063 1995.4219,1201.8594 1995.4063,1201.7031 C1995.3438,1201.2344 1995.0313,1200.9219 1994.5781,1200.9219 C1994.3281,1200.9219 1994.0625,1201.0625 1993.8906,1201.2813 C1993.7813,1201.4531 1993.75,1201.6094 1993.75,1202.0625 L1993.75,1202.1875 L1992.2969,1202.1875 L1992.2969,1199.7813 L1996.2813,1199.7813 L1996.2813,1200.6406 C1996.2813,1201.0469 1996.3125,1201.2188 1996.3906,1201.375 C1996.5625,1201.625 1996.8438,1201.7813 1997.125,1201.7813 C1997.3906,1201.7813 1997.6563,1201.6406 1997.8281,1201.4219 C1997.9375,1201.25 1997.9688,1201.1094 1997.9688,1200.6406 L1997.9688,1198.0938 L1990.3438,1198.0938 C1989.9063,1198.0938 1989.7813,1198.1094 1989.625,1198.2031 C1989.375,1198.3594 1989.2188,1198.6563 1989.2188,1198.9375 C1989.2188,1199.2188 1989.3594,1199.4688 1989.5781,1199.6406 C1989.7344,1199.75 1989.9219,1199.7813 1990.3438,1199.7813 L1990.5938,1199.7813 L1990.5938,1206.2969 L1990.3438,1206.2969 C1989.9375,1206.2969 1989.7813,1206.3125 1989.625,1206.4219 C1989.375,1206.5938 1989.2188,1206.8594 1989.2188,1207.1563 C1989.2188,1207.4219 1989.3594,1207.6719 1989.5781,1207.8281 C1989.7188,1207.9531 1989.9531,1208 1990.3438,1208 L1998.3438,1208 L1998.3438,1205.4219 C1998.3438,1204.9844 1998.3125,1204.8438 1998.2344,1204.6875 C1998.0625,1204.4375 1997.7813,1204.2813 1997.5,1204.2813 C1997.2344,1204.2813 1996.9688,1204.3906 1996.7969,1204.6406 C1996.6875,1204.7969 1996.6563,1204.9375 1996.6563,1205.4219 L1996.6563,1206.2969 L1992.2969,1206.2969 L1992.2969,1203.875 Z " fill="#000000"/><text fill="#000000" font-family="sans-serif" font-size="14" lengthAdjust="spacing" textLength="113" x="2007.5" y="1207.8467">ContrastOption</text><line style="stroke:#181818;stroke-width:0.5;" x1="1979.5" x2="2122.5" y1="1219" y2="1219"/><text fill="#000000" font-family="sans-serif" font-size="14" lengthAdjust="spacing" textLength="38" x="1984.5" y="1235.9951">more</text><text fill="#000000" font-family="sans-serif" font-size="14" lengthAdjust="spacing" textLength="27" x="1984.5" y="1252.292">less</text><text fill="#000000" font-family="sans-serif" font-size="14" lengthAdjust="spacing" textLength="50" x="1984.5" y="1268.5889">normal</text><line style="stroke:#181818;stroke-width:0.5;" x1="1979.5" x2="2122.5" y1="1275.8906" y2="1275.8906"/></g><!--class OptionsDBType--><g id="elem_OptionsDBType"><rect codeLine="89" fill="#F1F1F1" height="96.8906" id="OptionsDBType" rx="2.5" ry="2.5" style="stroke:#181818;stroke-width:0.5;" width="206" x="1838" y="1006"/><ellipse cx="1881.8" cy="1022" fill="#B4A7E5" rx="11" ry="11" style="stroke:#181818;stroke-width:1.0;"/><path d="M1882.7531,1018.7813 L1884.4719,1018.7813 C1884.8625,1018.7813 1885.05,1018.75 1885.175,1018.6719 C1885.4406,1018.5156 1885.5813,1018.2344 1885.5813,1017.9375 C1885.5813,1017.6719 1885.4719,1017.4063 1885.2375,1017.2344 C1885.0656,1017.125 1884.925,1017.0938 1884.4719,1017.0938 L1879.3313,1017.0938 C1878.8938,1017.0938 1878.7688,1017.1094 1878.6125,1017.2031 C1878.3625,1017.3594 1878.2063,1017.6563 1878.2063,1017.9375 C1878.2063,1018.2188 1878.3469,1018.4688 1878.5656,1018.6406 C1878.7219,1018.75 1878.9094,1018.7813 1879.3313,1018.7813 L1881.05,1018.7813 L1881.05,1025.2969 L1879.3313,1025.2969 C1878.8938,1025.2969 1878.7688,1025.3125 1878.6125,1025.4219 C1878.3625,1025.5781 1878.2063,1025.8594 1878.2063,1026.1563 C1878.2063,1026.4063 1878.3469,1026.6719 1878.5656,1026.8281 C1878.7219,1026.9531 1878.925,1027 1879.3313,1027 L1884.4719,1027 C1885.2219,1027 1885.5813,1026.7188 1885.5813,1026.1563 C1885.5813,1025.875 1885.4719,1025.625 1885.2375,1025.4531 C1885.0656,1025.3281 1884.925,1025.2969 1884.4719,1025.2969 L1882.7531,1025.2969 L1882.7531,1018.7813 Z " fill="#000000"/><text fill="#000000" font-family="sans-serif" font-size="14" font-style="italic" lengthAdjust="spacing" textLength="110" x="1902.2" y="1026.8467">OptionsDBType</text><line style="stroke:#181818;stroke-width:0.5;" x1="1839" x2="2043" y1="1038" y2="1038"/><text fill="#000000" font-family="sans-serif" font-size="14" lengthAdjust="spacing" textLength="194" x="1844" y="1054.9951">+reduced-motion: boolean</text><text fill="#000000" font-family="sans-serif" font-size="14" lengthAdjust="spacing" textLength="157" x="1844" y="1071.292">+dark-mode: boolean</text><text fill="#000000" font-family="sans-serif" font-size="14" lengthAdjust="spacing" textLength="194" x="1844" y="1087.5889">+contrast: ContrastOption</text><line style="stroke:#181818;stroke-width:0.5;" x1="1839" x2="2043" y1="1094.8906" y2="1094.8906"/></g><!--class DBType--><g id="elem_DBType"><rect codeLine="96" fill="#F1F1F1" height="64.2969" id="DBType" rx="2.5" ry="2.5" style="stroke:#181818;stroke-width:0.5;" width="201" x="733.5" y="1022.5"/><ellipse cx="801.75" cy="1038.5" fill="#B4A7E5" rx="11" ry="11" style="stroke:#181818;stroke-width:1.0;"/><path d="M802.7031,1035.2813 L804.4219,1035.2813 C804.8125,1035.2813 805,1035.25 805.125,1035.1719 C805.3906,1035.0156 805.5313,1034.7344 805.5313,1034.4375 C805.5313,1034.1719 805.4219,1033.9063 805.1875,1033.7344 C805.0156,1033.625 804.875,1033.5938 804.4219,1033.5938 L799.2813,1033.5938 C798.8438,1033.5938 798.7188,1033.6094 798.5625,1033.7031 C798.3125,1033.8594 798.1563,1034.1563 798.1563,1034.4375 C798.1563,1034.7188 798.2969,1034.9688 798.5156,1035.1406 C798.6719,1035.25 798.8594,1035.2813 799.2813,1035.2813 L801,1035.2813 L801,1041.7969 L799.2813,1041.7969 C798.8438,1041.7969 798.7188,1041.8125 798.5625,1041.9219 C798.3125,1042.0781 798.1563,1042.3594 798.1563,1042.6563 C798.1563,1042.9063 798.2969,1043.1719 798.5156,1043.3281 C798.6719,1043.4531 798.875,1043.5 799.2813,1043.5 L804.4219,1043.5 C805.1719,1043.5 805.5313,1043.2188 805.5313,1042.6563 C805.5313,1042.375 805.4219,1042.125 805.1875,1041.9531 C805.0156,1041.8281 804.875,1041.7969 804.4219,1041.7969 L802.7031,1041.7969 L802.7031,1035.2813 Z " fill="#000000"/><text fill="#000000" font-family="sans-serif" font-size="14" font-style="italic" lengthAdjust="spacing" textLength="56" x="822.25" y="1043.3467">DBType</text><line style="stroke:#181818;stroke-width:0.5;" x1="734.5" x2="933.5" y1="1054.5" y2="1054.5"/><text fill="#000000" font-family="sans-serif" font-size="14" lengthAdjust="spacing" textLength="189" x="739.5" y="1071.4951">+options: OptionsDBType</text><line style="stroke:#181818;stroke-width:0.5;" x1="734.5" x2="933.5" y1="1078.7969" y2="1078.7969"/></g><!--class OptionsBoolean--><g id="elem_OptionsBoolean"><rect codeLine="101" fill="#F1F1F1" height="96.8906" id="OptionsBoolean" rx="2.5" ry="2.5" style="stroke:#181818;stroke-width:0.5;" width="360" x="1204" y="1187"/><ellipse cx="1323.25" cy="1203" fill="#B4A7E5" rx="11" ry="11" style="stroke:#181818;stroke-width:1.0;"/><path d="M1324.2031,1199.7813 L1325.9219,1199.7813 C1326.3125,1199.7813 1326.5,1199.75 1326.625,1199.6719 C1326.8906,1199.5156 1327.0313,1199.2344 1327.0313,1198.9375 C1327.0313,1198.6719 1326.9219,1198.4063 1326.6875,1198.2344 C1326.5156,1198.125 1326.375,1198.0938 1325.9219,1198.0938 L1320.7813,1198.0938 C1320.3438,1198.0938 1320.2188,1198.1094 1320.0625,1198.2031 C1319.8125,1198.3594 1319.6563,1198.6563 1319.6563,1198.9375 C1319.6563,1199.2188 1319.7969,1199.4688 1320.0156,1199.6406 C1320.1719,1199.75 1320.3594,1199.7813 1320.7813,1199.7813 L1322.5,1199.7813 L1322.5,1206.2969 L1320.7813,1206.2969 C1320.3438,1206.2969 1320.2188,1206.3125 1320.0625,1206.4219 C1319.8125,1206.5781 1319.6563,1206.8594 1319.6563,1207.1563 C1319.6563,1207.4063 1319.7969,1207.6719 1320.0156,1207.8281 C1320.1719,1207.9531 1320.375,1208 1320.7813,1208 L1325.9219,1208 C1326.6719,1208 1327.0313,1207.7188 1327.0313,1207.1563 C1327.0313,1206.875 1326.9219,1206.625 1326.6875,1206.4531 C1326.5156,1206.3281 1326.375,1206.2969 1325.9219,1206.2969 L1324.2031,1206.2969 L1324.2031,1199.7813 Z " fill="#000000"/><text fill="#000000" font-family="sans-serif" font-size="14" font-style="italic" lengthAdjust="spacing" textLength="113" x="1343.75" y="1207.8467">OptionsBoolean</text><line style="stroke:#181818;stroke-width:0.5;" x1="1205" x2="1563" y1="1219" y2="1219"/><text fill="#000000" font-family="sans-serif" font-size="14" lengthAdjust="spacing" textLength="102" x="1210" y="1235.9951">+name: string</text><text fill="#000000" font-family="sans-serif" font-size="14" lengthAdjust="spacing" textLength="115" x="1210" y="1252.292">+value: boolean</text><line style="stroke:#181818;stroke-width:0.5;" x1="1205" x2="1563" y1="1259.5938" y2="1259.5938"/><text fill="#000000" font-family="sans-serif" font-size="14" lengthAdjust="spacing" textLength="348" x="1210" y="1276.5889">+setValueAsync(value: boolean): Promise&lt;void&gt;</text></g><!--class OptionsString--><g id="elem_OptionsString"><rect codeLine="107" fill="#F1F1F1" height="113.1875" id="OptionsString" rx="2.5" ry="2.5" style="stroke:#181818;stroke-width:0.5;" width="344" x="1599" y="1179"/><ellipse cx="1718.75" cy="1195" fill="#B4A7E5" rx="11" ry="11" style="stroke:#181818;stroke-width:1.0;"/><path d="M1719.7031,1191.7813 L1721.4219,1191.7813 C1721.8125,1191.7813 1722,1191.75 1722.125,1191.6719 C1722.3906,1191.5156 1722.5313,1191.2344 1722.5313,1190.9375 C1722.5313,1190.6719 1722.4219,1190.4063 1722.1875,1190.2344 C1722.0156,1190.125 1721.875,1190.0938 1721.4219,1190.0938 L1716.2813,1190.0938 C1715.8438,1190.0938 1715.7188,1190.1094 1715.5625,1190.2031 C1715.3125,1190.3594 1715.1563,1190.6563 1715.1563,1190.9375 C1715.1563,1191.2188 1715.2969,1191.4688 1715.5156,1191.6406 C1715.6719,1191.75 1715.8594,1191.7813 1716.2813,1191.7813 L1718,1191.7813 L1718,1198.2969 L1716.2813,1198.2969 C1715.8438,1198.2969 1715.7188,1198.3125 1715.5625,1198.4219 C1715.3125,1198.5781 1715.1563,1198.8594 1715.1563,1199.1563 C1715.1563,1199.4063 1715.2969,1199.6719 1715.5156,1199.8281 C1715.6719,1199.9531 1715.875,1200 1716.2813,1200 L1721.4219,1200 C1722.1719,1200 1722.5313,1199.7188 1722.5313,1199.1563 C1722.5313,1198.875 1722.4219,1198.625 1722.1875,1198.4531 C1722.0156,1198.3281 1721.875,1198.2969 1721.4219,1198.2969 L1719.7031,1198.2969 L1719.7031,1191.7813 Z " fill="#000000"/><text fill="#000000" font-family="sans-serif" font-size="14" font-style="italic" lengthAdjust="spacing" textLength="96" x="1739.25" y="1199.8467">OptionsString</text><line style="stroke:#181818;stroke-width:0.5;" x1="1600" x2="1942" y1="1211" y2="1211"/><text fill="#000000" font-family="sans-serif" font-size="14" lengthAdjust="spacing" textLength="102" x="1605" y="1227.9951">+name: string</text><text fill="#000000" font-family="sans-serif" font-size="14" lengthAdjust="spacing" textLength="99" x="1605" y="1244.292">+value: string</text><text fill="#000000" font-family="sans-serif" font-size="14" lengthAdjust="spacing" textLength="216" x="1605" y="1260.5889">+valueOptions: Array&lt;string&gt;</text><line style="stroke:#181818;stroke-width:0.5;" x1="1600" x2="1942" y1="1267.8906" y2="1267.8906"/><text fill="#000000" font-family="sans-serif" font-size="14" lengthAdjust="spacing" textLength="332" x="1605" y="1284.8857">+setValueAsync(value: string): Promise&lt;void&gt;</text></g><!--class Avatar--><g id="elem_Avatar"><rect codeLine="116" fill="#F1F1F1" height="64.2969" id="Avatar" rx="2.5" ry="2.5" style="stroke:#181818;stroke-width:0.5;" width="190" x="1624" y="42"/><ellipse cx="1691.25" cy="58" fill="#ADD1B2" rx="11" ry="11" style="stroke:#181818;stroke-width:1.0;"/><path d="M1693.5938,53.6719 C1692.6563,53.2344 1692.0625,53.0938 1691.1875,53.0938 C1688.5625,53.0938 1686.5625,55.1719 1686.5625,57.8906 L1686.5625,59.0156 C1686.5625,61.5938 1688.6719,63.4844 1691.5625,63.4844 C1692.7813,63.4844 1693.9375,63.1875 1694.6875,62.6406 C1695.2656,62.2344 1695.5938,61.7813 1695.5938,61.3906 C1695.5938,60.9375 1695.2031,60.5469 1694.7344,60.5469 C1694.5156,60.5469 1694.3125,60.625 1694.125,60.8125 C1693.6719,61.2969 1693.6719,61.2969 1693.4844,61.3906 C1693.0625,61.6563 1692.375,61.7813 1691.6094,61.7813 C1689.5625,61.7813 1688.2656,60.6875 1688.2656,58.9844 L1688.2656,57.8906 C1688.2656,56.1094 1689.5156,54.7969 1691.25,54.7969 C1691.8281,54.7969 1692.4375,54.9531 1692.9063,55.2031 C1693.3906,55.4844 1693.5625,55.7031 1693.6563,56.1094 C1693.7188,56.5156 1693.75,56.6406 1693.8906,56.7656 C1694.0313,56.9063 1694.2656,57.0156 1694.4844,57.0156 C1694.75,57.0156 1695.0156,56.875 1695.1875,56.6563 C1695.2969,56.5 1695.3281,56.3125 1695.3281,55.8906 L1695.3281,54.4688 C1695.3281,54.0313 1695.3125,53.9063 1695.2188,53.75 C1695.0625,53.4844 1694.7813,53.3438 1694.4844,53.3438 C1694.1875,53.3438 1693.9844,53.4375 1693.7656,53.75 L1693.5938,53.6719 Z " fill="#000000"/><text fill="#000000" font-family="sans-serif" font-size="14" lengthAdjust="spacing" textLength="47" x="1711.75" y="62.8467">Avatar</text><line style="stroke:#181818;stroke-width:0.5;" x1="1625" x2="1813" y1="74" y2="74"/><line style="stroke:#181818;stroke-width:0.5;" x1="1625" x2="1813" y1="82" y2="82"/><text fill="#000000" font-family="sans-serif" font-size="14" lengthAdjust="spacing" textLength="178" x="1630" y="98.9951">+render(): HTMLElement</text></g><!--class AppModel--><g id="elem_AppModel"><rect codeLine="122" fill="#F1F1F1" height="145.7813" id="AppModel" rx="2.5" ry="2.5" style="stroke:#181818;stroke-width:0.5;" width="180" x="1942" y="696"/><ellipse cx="1991.25" cy="712" fill="#ADD1B2" rx="11" ry="11" style="stroke:#181818;stroke-width:1.0;"/><path d="M1993.5938,707.6719 C1992.6563,707.2344 1992.0625,707.0938 1991.1875,707.0938 C1988.5625,707.0938 1986.5625,709.1719 1986.5625,711.8906 L1986.5625,713.0156 C1986.5625,715.5938 1988.6719,717.4844 1991.5625,717.4844 C1992.7813,717.4844 1993.9375,717.1875 1994.6875,716.6406 C1995.2656,716.2344 1995.5938,715.7813 1995.5938,715.3906 C1995.5938,714.9375 1995.2031,714.5469 1994.7344,714.5469 C1994.5156,714.5469 1994.3125,714.625 1994.125,714.8125 C1993.6719,715.2969 1993.6719,715.2969 1993.4844,715.3906 C1993.0625,715.6563 1992.375,715.7813 1991.6094,715.7813 C1989.5625,715.7813 1988.2656,714.6875 1988.2656,712.9844 L1988.2656,711.8906 C1988.2656,710.1094 1989.5156,708.7969 1991.25,708.7969 C1991.8281,708.7969 1992.4375,708.9531 1992.9063,709.2031 C1993.3906,709.4844 1993.5625,709.7031 1993.6563,710.1094 C1993.7188,710.5156 1993.75,710.6406 1993.8906,710.7656 C1994.0313,710.9063 1994.2656,711.0156 1994.4844,711.0156 C1994.75,711.0156 1995.0156,710.875 1995.1875,710.6563 C1995.2969,710.5 1995.3281,710.3125 1995.3281,709.8906 L1995.3281,708.4688 C1995.3281,708.0313 1995.3125,707.9063 1995.2188,707.75 C1995.0625,707.4844 1994.7813,707.3438 1994.4844,707.3438 C1994.1875,707.3438 1993.9844,707.4375 1993.7656,707.75 L1993.5938,707.6719 Z " fill="#000000"/><text fill="#000000" font-family="sans-serif" font-size="14" lengthAdjust="spacing" textLength="73" x="2011.75" y="716.8467">AppModel</text><line style="stroke:#181818;stroke-width:0.5;" x1="1943" x2="2121" y1="728" y2="728"/><text fill="#000000" font-family="sans-serif" font-size="14" lengthAdjust="spacing" textLength="130" x="1948" y="744.9951">-_state: AppState</text><text fill="#000000" font-family="sans-serif" font-size="14" lengthAdjust="spacing" textLength="157" x="1948" y="761.292">+get state: AppState</text><text fill="#000000" font-family="sans-serif" font-size="14" lengthAdjust="spacing" textLength="150" x="1948" y="777.5889">-set state: AppState</text><line style="stroke:#181818;stroke-width:0.5;" x1="1943" x2="2121" y1="784.8906" y2="784.8906"/><text fill="#000000" font-family="sans-serif" font-size="14" lengthAdjust="spacing" textLength="137" x="1948" y="801.8857">+startGame(): void</text><text fill="#000000" font-family="sans-serif" font-size="14" lengthAdjust="spacing" textLength="154" x="1948" y="818.1826">+openOptions(): void</text><text fill="#000000" font-family="sans-serif" font-size="14" lengthAdjust="spacing" textLength="168" x="1948" y="834.4795">+openMainMenu(): void</text></g><!--class GameModel--><g id="elem_GameModel"><rect codeLine="132" fill="#F1F1F1" height="292.4531" id="GameModel" rx="2.5" ry="2.5" style="stroke:#181818;stroke-width:0.5;" width="434" x="1473" y="623"/><ellipse cx="1643.25" cy="639" fill="#ADD1B2" rx="11" ry="11" style="stroke:#181818;stroke-width:1.0;"/><path d="M1645.5938,634.6719 C1644.6563,634.2344 1644.0625,634.0938 1643.1875,634.0938 C1640.5625,634.0938 1638.5625,636.1719 1638.5625,638.8906 L1638.5625,640.0156 C1638.5625,642.5938 1640.6719,644.4844 1643.5625,644.4844 C1644.7813,644.4844 1645.9375,644.1875 1646.6875,643.6406 C1647.2656,643.2344 1647.5938,642.7813 1647.5938,642.3906 C1647.5938,641.9375 1647.2031,641.5469 1646.7344,641.5469 C1646.5156,641.5469 1646.3125,641.625 1646.125,641.8125 C1645.6719,642.2969 1645.6719,642.2969 1645.4844,642.3906 C1645.0625,642.6563 1644.375,642.7813 1643.6094,642.7813 C1641.5625,642.7813 1640.2656,641.6875 1640.2656,639.9844 L1640.2656,638.8906 C1640.2656,637.1094 1641.5156,635.7969 1643.25,635.7969 C1643.8281,635.7969 1644.4375,635.9531 1644.9063,636.2031 C1645.3906,636.4844 1645.5625,636.7031 1645.6563,637.1094 C1645.7188,637.5156 1645.75,637.6406 1645.8906,637.7656 C1646.0313,637.9063 1646.2656,638.0156 1646.4844,638.0156 C1646.75,638.0156 1647.0156,637.875 1647.1875,637.6563 C1647.2969,637.5 1647.3281,637.3125 1647.3281,636.8906 L1647.3281,635.4688 C1647.3281,635.0313 1647.3125,634.9063 1647.2188,634.75 C1647.0625,634.4844 1646.7813,634.3438 1646.4844,634.3438 C1646.1875,634.3438 1645.9844,634.4375 1645.7656,634.75 L1645.5938,634.6719 Z " fill="#000000"/><text fill="#000000" font-family="sans-serif" font-size="14" lengthAdjust="spacing" textLength="85" x="1663.75" y="643.8467">GameModel</text><line style="stroke:#181818;stroke-width:0.5;" x1="1474" x2="1906" y1="655" y2="655"/><text fill="#000000" font-family="sans-serif" font-size="14" lengthAdjust="spacing" textLength="236" x="1479" y="671.9951">-_endedChapters: Set&lt;number&gt;</text><text fill="#000000" font-family="sans-serif" font-size="14" lengthAdjust="spacing" textLength="138" x="1479" y="688.292">-_chapter: Chapter</text><text fill="#000000" font-family="sans-serif" font-size="14" lengthAdjust="spacing" textLength="311" x="1479" y="704.5889">-_dialogHistory: Array&lt;DialogHistoryEntry&gt;</text><text fill="#000000" font-family="sans-serif" font-size="14" lengthAdjust="spacing" textLength="172" x="1479" y="720.8857">-_currentDialog: Dialog?</text><text fill="#000000" font-family="sans-serif" font-size="14" lengthAdjust="spacing" textLength="165" x="1479" y="737.1826">+get chapter: Chapter</text><text fill="#000000" font-family="sans-serif" font-size="14" lengthAdjust="spacing" textLength="158" x="1479" y="753.4795">-set chapter: Chapter</text><text fill="#000000" font-family="sans-serif" font-size="14" lengthAdjust="spacing" textLength="338" x="1479" y="769.7764">+get dialogHistory: Array&lt;DialogHistoryEntry&gt;</text><text fill="#000000" font-family="sans-serif" font-size="14" lengthAdjust="spacing" textLength="331" x="1479" y="786.0732">-set dialogHistory: Array&lt;DialogHistoryEntry&gt;</text><text fill="#000000" font-family="sans-serif" font-size="14" lengthAdjust="spacing" textLength="280" x="1479" y="802.3701">+get currentDialog: Readonly&lt;Dialog&gt;</text><text fill="#000000" font-family="sans-serif" font-size="14" lengthAdjust="spacing" textLength="273" x="1479" y="818.667">-set currentDialog: Readonly&lt;Dialog&gt;</text><text fill="#000000" font-family="sans-serif" font-size="14" lengthAdjust="spacing" textLength="177" x="1479" y="834.9639">+get isFinished: boolean</text><line style="stroke:#181818;stroke-width:0.5;" x1="1474" x2="1906" y1="842.2656" y2="842.2656"/><text fill="#000000" font-family="sans-serif" font-size="14" lengthAdjust="spacing" textLength="422" x="1479" y="859.2607">+continueDialogAsync(nextDialog: Dialog): Promise&lt;void&gt;</text><text fill="#000000" font-family="sans-serif" font-size="14" lengthAdjust="spacing" textLength="98" x="1479" y="875.5576">+reset(): void</text><text fill="#000000" font-family="sans-serif" font-size="14" lengthAdjust="spacing" textLength="171" x="1479" y="891.8545">+initChapter(): boolean</text><text fill="#000000" font-family="sans-serif" font-size="14" lengthAdjust="spacing" textLength="368" x="1479" y="908.1514">-pushDialogHistory(entry: DialogHistoryEntry): void</text></g><!--class MainMenuModel--><g id="elem_MainMenuModel"><rect codeLine="151" fill="#F1F1F1" height="48" id="MainMenuModel" rx="2.5" ry="2.5" style="stroke:#181818;stroke-width:0.5;" width="146" x="1292" y="745"/><ellipse cx="1307" cy="761" fill="#ADD1B2" rx="11" ry="11" style="stroke:#181818;stroke-width:1.0;"/><path d="M1309.3438,756.6719 C1308.4063,756.2344 1307.8125,756.0938 1306.9375,756.0938 C1304.3125,756.0938 1302.3125,758.1719 1302.3125,760.8906 L1302.3125,762.0156 C1302.3125,764.5938 1304.4219,766.4844 1307.3125,766.4844 C1308.5313,766.4844 1309.6875,766.1875 1310.4375,765.6406 C1311.0156,765.2344 1311.3438,764.7813 1311.3438,764.3906 C1311.3438,763.9375 1310.9531,763.5469 1310.4844,763.5469 C1310.2656,763.5469 1310.0625,763.625 1309.875,763.8125 C1309.4219,764.2969 1309.4219,764.2969 1309.2344,764.3906 C1308.8125,764.6563 1308.125,764.7813 1307.3594,764.7813 C1305.3125,764.7813 1304.0156,763.6875 1304.0156,761.9844 L1304.0156,760.8906 C1304.0156,759.1094 1305.2656,757.7969 1307,757.7969 C1307.5781,757.7969 1308.1875,757.9531 1308.6563,758.2031 C1309.1406,758.4844 1309.3125,758.7031 1309.4063,759.1094 C1309.4688,759.5156 1309.5,759.6406 1309.6406,759.7656 C1309.7813,759.9063 1310.0156,760.0156 1310.2344,760.0156 C1310.5,760.0156 1310.7656,759.875 1310.9375,759.6563 C1311.0469,759.5 1311.0781,759.3125 1311.0781,758.8906 L1311.0781,757.4688 C1311.0781,757.0313 1311.0625,756.9063 1310.9688,756.75 C1310.8125,756.4844 1310.5313,756.3438 1310.2344,756.3438 C1309.9375,756.3438 1309.7344,756.4375 1309.5156,756.75 L1309.3438,756.6719 Z " fill="#000000"/><text fill="#000000" font-family="sans-serif" font-size="14" lengthAdjust="spacing" textLength="114" x="1321" y="765.8467">MainMenuModel</text><line style="stroke:#181818;stroke-width:0.5;" x1="1293" x2="1437" y1="777" y2="777"/><line style="stroke:#181818;stroke-width:0.5;" x1="1293" x2="1437" y1="785" y2="785"/></g><!--class OptionsModel--><g id="elem_OptionsModel"><rect codeLine="152" fill="#F1F1F1" height="194.6719" id="OptionsModel" rx="2.5" ry="2.5" style="stroke:#181818;stroke-width:0.5;" width="845" x="411.5" y="671.5"/><ellipse cx="779.75" cy="687.5" fill="#ADD1B2" rx="11" ry="11" style="stroke:#181818;stroke-width:1.0;"/><path d="M782.0938,683.1719 C781.1563,682.7344 780.5625,682.5938 779.6875,682.5938 C777.0625,682.5938 775.0625,684.6719 775.0625,687.3906 L775.0625,688.5156 C775.0625,691.0938 777.1719,692.9844 780.0625,692.9844 C781.2813,692.9844 782.4375,692.6875 783.1875,692.1406 C783.7656,691.7344 784.0938,691.2813 784.0938,690.8906 C784.0938,690.4375 783.7031,690.0469 783.2344,690.0469 C783.0156,690.0469 782.8125,690.125 782.625,690.3125 C782.1719,690.7969 782.1719,690.7969 781.9844,690.8906 C781.5625,691.1563 780.875,691.2813 780.1094,691.2813 C778.0625,691.2813 776.7656,690.1875 776.7656,688.4844 L776.7656,687.3906 C776.7656,685.6094 778.0156,684.2969 779.75,684.2969 C780.3281,684.2969 780.9375,684.4531 781.4063,684.7031 C781.8906,684.9844 782.0625,685.2031 782.1563,685.6094 C782.2188,686.0156 782.25,686.1406 782.3906,686.2656 C782.5313,686.4063 782.7656,686.5156 782.9844,686.5156 C783.25,686.5156 783.5156,686.375 783.6875,686.1563 C783.7969,686 783.8281,685.8125 783.8281,685.3906 L783.8281,683.9688 C783.8281,683.5313 783.8125,683.4063 783.7188,683.25 C783.5625,682.9844 783.2813,682.8438 782.9844,682.8438 C782.6875,682.8438 782.4844,682.9375 782.2656,683.25 L782.0938,683.1719 Z " fill="#000000"/><text fill="#000000" font-family="sans-serif" font-size="14" lengthAdjust="spacing" textLength="100" x="800.25" y="692.3467">OptionsModel</text><line style="stroke:#181818;stroke-width:0.5;" x1="412.5" x2="1255.5" y1="703.5" y2="703.5"/><text fill="#000000" font-family="sans-serif" font-size="14" lengthAdjust="spacing" textLength="222" x="417.5" y="720.4951">-_db: IDBPDatabase&lt;DBType&gt;</text><line style="stroke:#181818;stroke-width:0.5;" x1="412.5" x2="1255.5" y1="727.7969" y2="727.7969"/><text fill="#000000" font-family="sans-serif" font-size="14" lengthAdjust="spacing" textLength="354" x="417.5" y="744.792">+getReducedMotionAsync(): Promise&lt;boolean?&gt;</text><text fill="#000000" font-family="sans-serif" font-size="14" lengthAdjust="spacing" textLength="449" x="417.5" y="761.0889">+setReducedMotionAsync(value: boolean): Promise&lt;boolean&gt;</text><text fill="#000000" font-family="sans-serif" font-size="14" lengthAdjust="spacing" textLength="315" x="417.5" y="777.3857">+getDarkModeAsync(): Promise&lt;boolean?&gt;</text><text fill="#000000" font-family="sans-serif" font-size="14" lengthAdjust="spacing" textLength="410" x="417.5" y="793.6826">+setDarkModeAsync(value: boolean): Promise&lt;boolean&gt;</text><text fill="#000000" font-family="sans-serif" font-size="14" lengthAdjust="spacing" textLength="282" x="417.5" y="809.9795">+getContrastAsync(): Promise&lt;string&gt;</text><text fill="#000000" font-family="sans-serif" font-size="14" lengthAdjust="spacing" textLength="368" x="417.5" y="826.2764">+setContrastAsync(value: string): Promise&lt;string&gt;</text><text fill="#000000" font-family="sans-serif" font-size="14" lengthAdjust="spacing" textLength="684" x="417.5" y="842.5732">-getSettingAsync&lt;K extends keyof OptionsDBType&gt;(option: K): Promise&lt;OptionsDBType[K]&gt;</text><text fill="#000000" font-family="sans-serif" font-size="14" lengthAdjust="spacing" textLength="833" x="417.5" y="858.8701">-setSettingAsync&lt;K extends keyof OptionsDBType,T extends OptionsDBType[K]&gt;(option: K, value: T): Promise&lt;T&gt;</text></g><!--class AppViewModel--><g id="elem_AppViewModel"><rect codeLine="168" fill="#F1F1F1" height="80.5938" id="AppViewModel" rx="2.5" ry="2.5" style="stroke:#181818;stroke-width:0.5;" width="178" x="2086" y="410"/><ellipse cx="2118.55" cy="426" fill="#ADD1B2" rx="11" ry="11" style="stroke:#181818;stroke-width:1.0;"/><path d="M2120.8938,421.6719 C2119.9563,421.2344 2119.3625,421.0938 2118.4875,421.0938 C2115.8625,421.0938 2113.8625,423.1719 2113.8625,425.8906 L2113.8625,427.0156 C2113.8625,429.5938 2115.9719,431.4844 2118.8625,431.4844 C2120.0813,431.4844 2121.2375,431.1875 2121.9875,430.6406 C2122.5656,430.2344 2122.8938,429.7813 2122.8938,429.3906 C2122.8938,428.9375 2122.5031,428.5469 2122.0344,428.5469 C2121.8156,428.5469 2121.6125,428.625 2121.425,428.8125 C2120.9719,429.2969 2120.9719,429.2969 2120.7844,429.3906 C2120.3625,429.6563 2119.675,429.7813 2118.9094,429.7813 C2116.8625,429.7813 2115.5656,428.6875 2115.5656,426.9844 L2115.5656,425.8906 C2115.5656,424.1094 2116.8156,422.7969 2118.55,422.7969 C2119.1281,422.7969 2119.7375,422.9531 2120.2063,423.2031 C2120.6906,423.4844 2120.8625,423.7031 2120.9563,424.1094 C2121.0188,424.5156 2121.05,424.6406 2121.1906,424.7656 C2121.3313,424.9063 2121.5656,425.0156 2121.7844,425.0156 C2122.05,425.0156 2122.3156,424.875 2122.4875,424.6563 C2122.5969,424.5 2122.6281,424.3125 2122.6281,423.8906 L2122.6281,422.4688 C2122.6281,422.0313 2122.6125,421.9063 2122.5188,421.75 C2122.3625,421.4844 2122.0813,421.3438 2121.7844,421.3438 C2121.4875,421.3438 2121.2844,421.4375 2121.0656,421.75 L2120.8938,421.6719 Z " fill="#000000"/><text fill="#000000" font-family="sans-serif" font-size="14" lengthAdjust="spacing" textLength="107" x="2136.45" y="430.8467">AppViewModel</text><line style="stroke:#181818;stroke-width:0.5;" x1="2087" x2="2263" y1="442" y2="442"/><text fill="#000000" font-family="sans-serif" font-size="14" lengthAdjust="spacing" textLength="166" x="2092" y="458.9951">-_appModel: AppModel</text><text fill="#000000" font-family="sans-serif" font-size="14" lengthAdjust="spacing" textLength="157" x="2092" y="475.292">+get state: AppState</text><line style="stroke:#181818;stroke-width:0.5;" x1="2087" x2="2263" y1="482.5938" y2="482.5938"/></g><!--class GameViewModel--><g id="elem_GameViewModel"><rect codeLine="175" fill="#F1F1F1" height="194.6719" id="GameViewModel" rx="2.5" ry="2.5" style="stroke:#181818;stroke-width:0.5;" width="525" x="1525.5" y="353"/><ellipse cx="1724.25" cy="369" fill="#ADD1B2" rx="11" ry="11" style="stroke:#181818;stroke-width:1.0;"/><path d="M1726.5938,364.6719 C1725.6563,364.2344 1725.0625,364.0938 1724.1875,364.0938 C1721.5625,364.0938 1719.5625,366.1719 1719.5625,368.8906 L1719.5625,370.0156 C1719.5625,372.5938 1721.6719,374.4844 1724.5625,374.4844 C1725.7813,374.4844 1726.9375,374.1875 1727.6875,373.6406 C1728.2656,373.2344 1728.5938,372.7813 1728.5938,372.3906 C1728.5938,371.9375 1728.2031,371.5469 1727.7344,371.5469 C1727.5156,371.5469 1727.3125,371.625 1727.125,371.8125 C1726.6719,372.2969 1726.6719,372.2969 1726.4844,372.3906 C1726.0625,372.6563 1725.375,372.7813 1724.6094,372.7813 C1722.5625,372.7813 1721.2656,371.6875 1721.2656,369.9844 L1721.2656,368.8906 C1721.2656,367.1094 1722.5156,365.7969 1724.25,365.7969 C1724.8281,365.7969 1725.4375,365.9531 1725.9063,366.2031 C1726.3906,366.4844 1726.5625,366.7031 1726.6563,367.1094 C1726.7188,367.5156 1726.75,367.6406 1726.8906,367.7656 C1727.0313,367.9063 1727.2656,368.0156 1727.4844,368.0156 C1727.75,368.0156 1728.0156,367.875 1728.1875,367.6563 C1728.2969,367.5 1728.3281,367.3125 1728.3281,366.8906 L1728.3281,365.4688 C1728.3281,365.0313 1728.3125,364.9063 1728.2188,364.75 C1728.0625,364.4844 1727.7813,364.3438 1727.4844,364.3438 C1727.1875,364.3438 1726.9844,364.4375 1726.7656,364.75 L1726.5938,364.6719 Z " fill="#000000"/><text fill="#000000" font-family="sans-serif" font-size="14" lengthAdjust="spacing" textLength="119" x="1744.75" y="373.8467">GameViewModel</text><line style="stroke:#181818;stroke-width:0.5;" x1="1526.5" x2="2049.5" y1="385" y2="385"/><text fill="#000000" font-family="sans-serif" font-size="14" lengthAdjust="spacing" textLength="190" x="1531.5" y="401.9951">-_gameModel: GameModel</text><text fill="#000000" font-family="sans-serif" font-size="14" lengthAdjust="spacing" textLength="166" x="1531.5" y="418.292">-_appModel: AppModel</text><text fill="#000000" font-family="sans-serif" font-size="14" lengthAdjust="spacing" textLength="226" x="1531.5" y="434.5889">+nextChapter: Function&lt;void&gt;</text><text fill="#000000" font-family="sans-serif" font-size="14" lengthAdjust="spacing" textLength="207" x="1531.5" y="450.8857">+mainMenu: Function&lt;void&gt;</text><text fill="#000000" font-family="sans-serif" font-size="14" lengthAdjust="spacing" textLength="338" x="1531.5" y="467.1826">+get dialogHistory: Array&lt;DialogHistoryEntry&gt;</text><text fill="#000000" font-family="sans-serif" font-size="14" lengthAdjust="spacing" textLength="226" x="1531.5" y="483.4795">+get sceneTitle: Array&lt;string&gt;</text><text fill="#000000" font-family="sans-serif" font-size="14" lengthAdjust="spacing" textLength="434" x="1531.5" y="499.7764">+currentDialog: { speaker: string; choices: DialogChoice[]; }</text><text fill="#000000" font-family="sans-serif" font-size="14" lengthAdjust="spacing" textLength="148" x="1531.5" y="516.0732">+isFinished: boolean</text><line style="stroke:#181818;stroke-width:0.5;" x1="1526.5" x2="2049.5" y1="523.375" y2="523.375"/><text fill="#000000" font-family="sans-serif" font-size="14" lengthAdjust="spacing" textLength="513" x="1531.5" y="540.3701">-chapterEndInput(): { speaker: string; choices: Array&lt;DialogChoice&gt;; }</text></g><!--class MainMenuViewModel--><g id="elem_MainMenuViewModel"><rect codeLine="189" fill="#F1F1F1" height="129.4844" id="MainMenuViewModel" rx="2.5" ry="2.5" style="stroke:#181818;stroke-width:0.5;" width="351" x="1139.5" y="386"/><ellipse cx="1236.75" cy="402" fill="#ADD1B2" rx="11" ry="11" style="stroke:#181818;stroke-width:1.0;"/><path d="M1239.0938,397.6719 C1238.1563,397.2344 1237.5625,397.0938 1236.6875,397.0938 C1234.0625,397.0938 1232.0625,399.1719 1232.0625,401.8906 L1232.0625,403.0156 C1232.0625,405.5938 1234.1719,407.4844 1237.0625,407.4844 C1238.2813,407.4844 1239.4375,407.1875 1240.1875,406.6406 C1240.7656,406.2344 1241.0938,405.7813 1241.0938,405.3906 C1241.0938,404.9375 1240.7031,404.5469 1240.2344,404.5469 C1240.0156,404.5469 1239.8125,404.625 1239.625,404.8125 C1239.1719,405.2969 1239.1719,405.2969 1238.9844,405.3906 C1238.5625,405.6563 1237.875,405.7813 1237.1094,405.7813 C1235.0625,405.7813 1233.7656,404.6875 1233.7656,402.9844 L1233.7656,401.8906 C1233.7656,400.1094 1235.0156,398.7969 1236.75,398.7969 C1237.3281,398.7969 1237.9375,398.9531 1238.4063,399.2031 C1238.8906,399.4844 1239.0625,399.7031 1239.1563,400.1094 C1239.2188,400.5156 1239.25,400.6406 1239.3906,400.7656 C1239.5313,400.9063 1239.7656,401.0156 1239.9844,401.0156 C1240.25,401.0156 1240.5156,400.875 1240.6875,400.6563 C1240.7969,400.5 1240.8281,400.3125 1240.8281,399.8906 L1240.8281,398.4688 C1240.8281,398.0313 1240.8125,397.9063 1240.7188,397.75 C1240.5625,397.4844 1240.2813,397.3438 1239.9844,397.3438 C1239.6875,397.3438 1239.4844,397.4375 1239.2656,397.75 L1239.0938,397.6719 Z " fill="#000000"/><text fill="#000000" font-family="sans-serif" font-size="14" lengthAdjust="spacing" textLength="148" x="1257.25" y="406.8467">MainMenuViewModel</text><line style="stroke:#181818;stroke-width:0.5;" x1="1140.5" x2="1489.5" y1="418" y2="418"/><text fill="#000000" font-family="sans-serif" font-size="14" lengthAdjust="spacing" textLength="252" x="1145.5" y="434.9951">-_mainMenuModel: MainMenuModel</text><text fill="#000000" font-family="sans-serif" font-size="14" lengthAdjust="spacing" textLength="190" x="1145.5" y="451.292">-_gameModel: GameModel</text><text fill="#000000" font-family="sans-serif" font-size="14" lengthAdjust="spacing" textLength="166" x="1145.5" y="467.5889">-_appModel: AppModel</text><text fill="#000000" font-family="sans-serif" font-size="14" lengthAdjust="spacing" textLength="322" x="1145.5" y="483.8857">+startGame: MouseEventHandler&lt;Element&gt;</text><text fill="#000000" font-family="sans-serif" font-size="14" lengthAdjust="spacing" textLength="339" x="1145.5" y="500.1826">+openOptions: MouseEventHandler&lt;Element&gt;</text><line style="stroke:#181818;stroke-width:0.5;" x1="1140.5" x2="1489.5" y1="507.4844" y2="507.4844"/></g><!--class OptionsViewModel--><g id="elem_OptionsViewModel"><rect codeLine="200" fill="#F1F1F1" height="129.4844" id="OptionsViewModel" rx="2.5" ry="2.5" style="stroke:#181818;stroke-width:0.5;" width="538" x="566" y="386"/><ellipse cx="763.75" cy="402" fill="#ADD1B2" rx="11" ry="11" style="stroke:#181818;stroke-width:1.0;"/><path d="M766.0938,397.6719 C765.1563,397.2344 764.5625,397.0938 763.6875,397.0938 C761.0625,397.0938 759.0625,399.1719 759.0625,401.8906 L759.0625,403.0156 C759.0625,405.5938 761.1719,407.4844 764.0625,407.4844 C765.2813,407.4844 766.4375,407.1875 767.1875,406.6406 C767.7656,406.2344 768.0938,405.7813 768.0938,405.3906 C768.0938,404.9375 767.7031,404.5469 767.2344,404.5469 C767.0156,404.5469 766.8125,404.625 766.625,404.8125 C766.1719,405.2969 766.1719,405.2969 765.9844,405.3906 C765.5625,405.6563 764.875,405.7813 764.1094,405.7813 C762.0625,405.7813 760.7656,404.6875 760.7656,402.9844 L760.7656,401.8906 C760.7656,400.1094 762.0156,398.7969 763.75,398.7969 C764.3281,398.7969 764.9375,398.9531 765.4063,399.2031 C765.8906,399.4844 766.0625,399.7031 766.1563,400.1094 C766.2188,400.5156 766.25,400.6406 766.3906,400.7656 C766.5313,400.9063 766.7656,401.0156 766.9844,401.0156 C767.25,401.0156 767.5156,400.875 767.6875,400.6563 C767.7969,400.5 767.8281,400.3125 767.8281,399.8906 L767.8281,398.4688 C767.8281,398.0313 767.8125,397.9063 767.7188,397.75 C767.5625,397.4844 767.2813,397.3438 766.9844,397.3438 C766.6875,397.3438 766.4844,397.4375 766.2656,397.75 L766.0938,397.6719 Z " fill="#000000"/><text fill="#000000" font-family="sans-serif" font-size="14" lengthAdjust="spacing" textLength="134" x="784.25" y="406.8467">OptionsViewModel</text><line style="stroke:#181818;stroke-width:0.5;" x1="567" x2="1103" y1="418" y2="418"/><text fill="#000000" font-family="sans-serif" font-size="14" lengthAdjust="spacing" textLength="220" x="572" y="434.9951">-_optionsModel: OptionsModel</text><text fill="#000000" font-family="sans-serif" font-size="14" lengthAdjust="spacing" textLength="166" x="572" y="451.292">-_appModel: AppModel</text><text fill="#000000" font-family="sans-serif" font-size="14" lengthAdjust="spacing" textLength="333" x="572" y="467.5889">+onClickBack: MouseEventHandler&lt;Element&gt;</text><line style="stroke:#181818;stroke-width:0.5;" x1="567" x2="1103" y1="474.8906" y2="474.8906"/><text fill="#000000" font-family="sans-serif" font-size="14" lengthAdjust="spacing" textLength="409" x="572" y="491.8857">+updateDocumentData(data: Record&lt;string, any&gt;): void</text><text fill="#000000" font-family="sans-serif" font-size="14" lengthAdjust="spacing" textLength="526" x="572" y="508.1826">+useSettingsAsync(): Promise&lt;Array&lt;OptionsBoolean | OptionsString&gt;&gt;</text></g><!--class AppView--><g id="elem_AppView"><rect codeLine="212" fill="#F1F1F1" height="80.5938" id="AppView" rx="2.5" ry="2.5" style="stroke:#181818;stroke-width:0.5;" width="246" x="1889" y="189"/><ellipse cx="1975.75" cy="205" fill="#ADD1B2" rx="11" ry="11" style="stroke:#181818;stroke-width:1.0;"/><path d="M1978.0938,200.6719 C1977.1563,200.2344 1976.5625,200.0938 1975.6875,200.0938 C1973.0625,200.0938 1971.0625,202.1719 1971.0625,204.8906 L1971.0625,206.0156 C1971.0625,208.5938 1973.1719,210.4844 1976.0625,210.4844 C1977.2813,210.4844 1978.4375,210.1875 1979.1875,209.6406 C1979.7656,209.2344 1980.0938,208.7813 1980.0938,208.3906 C1980.0938,207.9375 1979.7031,207.5469 1979.2344,207.5469 C1979.0156,207.5469 1978.8125,207.625 1978.625,207.8125 C1978.1719,208.2969 1978.1719,208.2969 1977.9844,208.3906 C1977.5625,208.6563 1976.875,208.7813 1976.1094,208.7813 C1974.0625,208.7813 1972.7656,207.6875 1972.7656,205.9844 L1972.7656,204.8906 C1972.7656,203.1094 1974.0156,201.7969 1975.75,201.7969 C1976.3281,201.7969 1976.9375,201.9531 1977.4063,202.2031 C1977.8906,202.4844 1978.0625,202.7031 1978.1563,203.1094 C1978.2188,203.5156 1978.25,203.6406 1978.3906,203.7656 C1978.5313,203.9063 1978.7656,204.0156 1978.9844,204.0156 C1979.25,204.0156 1979.5156,203.875 1979.6875,203.6563 C1979.7969,203.5 1979.8281,203.3125 1979.8281,202.8906 L1979.8281,201.4688 C1979.8281,201.0313 1979.8125,200.9063 1979.7188,200.75 C1979.5625,200.4844 1979.2813,200.3438 1978.9844,200.3438 C1978.6875,200.3438 1978.4844,200.4375 1978.2656,200.75 L1978.0938,200.6719 Z " fill="#000000"/><text fill="#000000" font-family="sans-serif" font-size="14" lengthAdjust="spacing" textLength="64" x="1996.25" y="209.8467">AppView</text><line style="stroke:#181818;stroke-width:0.5;" x1="1890" x2="2134" y1="221" y2="221"/><text fill="#000000" font-family="sans-serif" font-size="14" lengthAdjust="spacing" textLength="234" x="1895" y="237.9951">-_appViewModel: AppViewModel</text><line style="stroke:#181818;stroke-width:0.5;" x1="1890" x2="2134" y1="245.2969" y2="245.2969"/><text fill="#000000" font-family="sans-serif" font-size="14" lengthAdjust="spacing" textLength="178" x="1895" y="262.292">+render(): HTMLElement</text></g><!--class GameView--><g id="elem_GameView"><rect codeLine="218" fill="#F1F1F1" height="80.5938" id="GameView" rx="2.5" ry="2.5" style="stroke:#181818;stroke-width:0.5;" width="270" x="1584" y="189"/><ellipse cx="1676.75" cy="205" fill="#ADD1B2" rx="11" ry="11" style="stroke:#181818;stroke-width:1.0;"/><path d="M1679.0938,200.6719 C1678.1563,200.2344 1677.5625,200.0938 1676.6875,200.0938 C1674.0625,200.0938 1672.0625,202.1719 1672.0625,204.8906 L1672.0625,206.0156 C1672.0625,208.5938 1674.1719,210.4844 1677.0625,210.4844 C1678.2813,210.4844 1679.4375,210.1875 1680.1875,209.6406 C1680.7656,209.2344 1681.0938,208.7813 1681.0938,208.3906 C1681.0938,207.9375 1680.7031,207.5469 1680.2344,207.5469 C1680.0156,207.5469 1679.8125,207.625 1679.625,207.8125 C1679.1719,208.2969 1679.1719,208.2969 1678.9844,208.3906 C1678.5625,208.6563 1677.875,208.7813 1677.1094,208.7813 C1675.0625,208.7813 1673.7656,207.6875 1673.7656,205.9844 L1673.7656,204.8906 C1673.7656,203.1094 1675.0156,201.7969 1676.75,201.7969 C1677.3281,201.7969 1677.9375,201.9531 1678.4063,202.2031 C1678.8906,202.4844 1679.0625,202.7031 1679.1563,203.1094 C1679.2188,203.5156 1679.25,203.6406 1679.3906,203.7656 C1679.5313,203.9063 1679.7656,204.0156 1679.9844,204.0156 C1680.25,204.0156 1680.5156,203.875 1680.6875,203.6563 C1680.7969,203.5 1680.8281,203.3125 1680.8281,202.8906 L1680.8281,201.4688 C1680.8281,201.0313 1680.8125,200.9063 1680.7188,200.75 C1680.5625,200.4844 1680.2813,200.3438 1679.9844,200.3438 C1679.6875,200.3438 1679.4844,200.4375 1679.2656,200.75 L1679.0938,200.6719 Z " fill="#000000"/><text fill="#000000" font-family="sans-serif" font-size="14" lengthAdjust="spacing" textLength="76" x="1697.25" y="209.8467">GameView</text><line style="stroke:#181818;stroke-width:0.5;" x1="1585" x2="1853" y1="221" y2="221"/><text fill="#000000" font-family="sans-serif" font-size="14" lengthAdjust="spacing" textLength="258" x="1590" y="237.9951">-_gameViewModel: GameViewModel</text><line style="stroke:#181818;stroke-width:0.5;" x1="1585" x2="1853" y1="245.2969" y2="245.2969"/><text fill="#000000" font-family="sans-serif" font-size="14" lengthAdjust="spacing" textLength="178" x="1590" y="262.292">+render(): HTMLElement</text></g><!--class MainMenuView--><g id="elem_MainMenuView"><rect codeLine="225" fill="#F1F1F1" height="80.5938" id="MainMenuView" rx="2.5" ry="2.5" style="stroke:#181818;stroke-width:0.5;" width="332" x="1217" y="189"/><ellipse cx="1326.25" cy="205" fill="#ADD1B2" rx="11" ry="11" style="stroke:#181818;stroke-width:1.0;"/><path d="M1328.5938,200.6719 C1327.6563,200.2344 1327.0625,200.0938 1326.1875,200.0938 C1323.5625,200.0938 1321.5625,202.1719 1321.5625,204.8906 L1321.5625,206.0156 C1321.5625,208.5938 1323.6719,210.4844 1326.5625,210.4844 C1327.7813,210.4844 1328.9375,210.1875 1329.6875,209.6406 C1330.2656,209.2344 1330.5938,208.7813 1330.5938,208.3906 C1330.5938,207.9375 1330.2031,207.5469 1329.7344,207.5469 C1329.5156,207.5469 1329.3125,207.625 1329.125,207.8125 C1328.6719,208.2969 1328.6719,208.2969 1328.4844,208.3906 C1328.0625,208.6563 1327.375,208.7813 1326.6094,208.7813 C1324.5625,208.7813 1323.2656,207.6875 1323.2656,205.9844 L1323.2656,204.8906 C1323.2656,203.1094 1324.5156,201.7969 1326.25,201.7969 C1326.8281,201.7969 1327.4375,201.9531 1327.9063,202.2031 C1328.3906,202.4844 1328.5625,202.7031 1328.6563,203.1094 C1328.7188,203.5156 1328.75,203.6406 1328.8906,203.7656 C1329.0313,203.9063 1329.2656,204.0156 1329.4844,204.0156 C1329.75,204.0156 1330.0156,203.875 1330.1875,203.6563 C1330.2969,203.5 1330.3281,203.3125 1330.3281,202.8906 L1330.3281,201.4688 C1330.3281,201.0313 1330.3125,200.9063 1330.2188,200.75 C1330.0625,200.4844 1329.7813,200.3438 1329.4844,200.3438 C1329.1875,200.3438 1328.9844,200.4375 1328.7656,200.75 L1328.5938,200.6719 Z " fill="#000000"/><text fill="#000000" font-family="sans-serif" font-size="14" lengthAdjust="spacing" textLength="105" x="1346.75" y="209.8467">MainMenuView</text><line style="stroke:#181818;stroke-width:0.5;" x1="1218" x2="1548" y1="221" y2="221"/><text fill="#000000" font-family="sans-serif" font-size="14" lengthAdjust="spacing" textLength="320" x="1223" y="237.9951">-_mainMenuViewModel: MainMenuViewModel</text><line style="stroke:#181818;stroke-width:0.5;" x1="1218" x2="1548" y1="245.2969" y2="245.2969"/><text fill="#000000" font-family="sans-serif" font-size="14" lengthAdjust="spacing" textLength="178" x="1223" y="262.292">+render(): HTMLElement</text></g><!--class OptionsView--><g id="elem_OptionsView"><rect codeLine="231" fill="#F1F1F1" height="96.8906" id="OptionsView" rx="2.5" ry="2.5" style="stroke:#181818;stroke-width:0.5;" width="382" x="800" y="181"/><ellipse cx="941.25" cy="197" fill="#ADD1B2" rx="11" ry="11" style="stroke:#181818;stroke-width:1.0;"/><path d="M943.5938,192.6719 C942.6563,192.2344 942.0625,192.0938 941.1875,192.0938 C938.5625,192.0938 936.5625,194.1719 936.5625,196.8906 L936.5625,198.0156 C936.5625,200.5938 938.6719,202.4844 941.5625,202.4844 C942.7813,202.4844 943.9375,202.1875 944.6875,201.6406 C945.2656,201.2344 945.5938,200.7813 945.5938,200.3906 C945.5938,199.9375 945.2031,199.5469 944.7344,199.5469 C944.5156,199.5469 944.3125,199.625 944.125,199.8125 C943.6719,200.2969 943.6719,200.2969 943.4844,200.3906 C943.0625,200.6563 942.375,200.7813 941.6094,200.7813 C939.5625,200.7813 938.2656,199.6875 938.2656,197.9844 L938.2656,196.8906 C938.2656,195.1094 939.5156,193.7969 941.25,193.7969 C941.8281,193.7969 942.4375,193.9531 942.9063,194.2031 C943.3906,194.4844 943.5625,194.7031 943.6563,195.1094 C943.7188,195.5156 943.75,195.6406 943.8906,195.7656 C944.0313,195.9063 944.2656,196.0156 944.4844,196.0156 C944.75,196.0156 945.0156,195.875 945.1875,195.6563 C945.2969,195.5 945.3281,195.3125 945.3281,194.8906 L945.3281,193.4688 C945.3281,193.0313 945.3125,192.9063 945.2188,192.75 C945.0625,192.4844 944.7813,192.3438 944.4844,192.3438 C944.1875,192.3438 943.9844,192.4375 943.7656,192.75 L943.5938,192.6719 Z " fill="#000000"/><text fill="#000000" font-family="sans-serif" font-size="14" lengthAdjust="spacing" textLength="91" x="961.75" y="201.8467">OptionsView</text><line style="stroke:#181818;stroke-width:0.5;" x1="801" x2="1181" y1="213" y2="213"/><text fill="#000000" font-family="sans-serif" font-size="14" lengthAdjust="spacing" textLength="288" x="806" y="229.9951">-_optionsViewModel: OptionsViewModel</text><text fill="#000000" font-family="sans-serif" font-size="14" lengthAdjust="spacing" textLength="370" x="806" y="246.292">-_settings: Array&lt;OptionsBoolean | OptionsString&gt;</text><line style="stroke:#181818;stroke-width:0.5;" x1="801" x2="1181" y1="253.5938" y2="253.5938"/><text fill="#000000" font-family="sans-serif" font-size="14" lengthAdjust="spacing" textLength="178" x="806" y="270.5889">+render(): HTMLElement</text></g><!--link Chapter to Tag--><g id="link_Chapter_Tag"><path codeLine="36" d="M1018.4,1103.234 C981.651,1133.687 934.868,1172.457 901.696,1199.946 " fill="none" id="Chapter-to-Tag" style="stroke:#181818;stroke-width:1.0;"/><polygon fill="#181818" points="897.72,1203.241,907.2018,1200.5772,901.5695,1200.0502,902.0965,1194.418,897.72,1203.241" style="stroke:#181818;stroke-width:1.0;"/><text fill="#000000" font-family="sans-serif" font-size="13" lengthAdjust="spacing" textLength="8" x="896.3586" y="1192.4642">1</text></g><!--reverse link Chapter to Dialog--><g id="link_Chapter_Dialog"><path codeLine="37" d="M1074.98,1116.516 C1074.49,1145.715 1073.92,1179.431 1073.52,1203.324 " fill="none" id="Chapter-backto-Dialog" style="stroke:#181818;stroke-width:1.0;"/><polygon fill="none" points="1075.2,1103.469,1071.1004,1109.4014,1074.9996,1115.4673,1079.0992,1109.535,1075.2,1103.469" style="stroke:#181818;stroke-width:1.0;"/></g><!--reverse link Dialog to NarratorDialog--><g id="link_Dialog_NarratorDialog"><path d="M1012.98,1281.013 C984.703,1305.225 951.87,1335.182 926.527,1359.863 " fill="none" id="Dialog-backto-NarratorDialog" style="stroke:#181818;stroke-width:1.0;"/><polygon fill="none" points="1008.77,1275.405,1028.57,1267.864,1017.79,1286.108,1008.77,1275.405" style="stroke:#181818;stroke-width:1.0;"/></g><!--reverse link NarratorDialog to Dialog--><g id="link_NarratorDialog_Dialog"><path codeLine="48" d="M960.506,1351.057 C992.19,1323.38 1026.81,1291.094 1049.43,1267.864 " fill="none" id="NarratorDialog-backto-Dialog" style="stroke:#181818;stroke-width:1.0;"/><polygon fill="none" points="950.341,1359.863,957.495,1358.9573,959.4105,1352.0053,952.2565,1352.911,950.341,1359.863" style="stroke:#181818;stroke-width:1.0;"/></g><!--reverse link Dialog to PlayerDialog--><g id="link_Dialog_PlayerDialog"><path d="M1063.54,1287.468 C1059.08,1351.875 1059.15,1461.889 1063.77,1524.738 " fill="none" id="Dialog-backto-PlayerDialog" style="stroke:#181818;stroke-width:1.0;"/><polygon fill="none" points="1056.57,1286.847,1065.23,1267.508,1070.52,1288.027,1056.57,1286.847" style="stroke:#181818;stroke-width:1.0;"/></g><!--reverse link PlayerDialog to Dialog--><g id="link_PlayerDialog_Dialog"><path codeLine="55" d="M1083.69,1511.418 C1088.13,1439.493 1087.31,1322.834 1081.23,1267.508 " fill="none" id="PlayerDialog-backto-Dialog" style="stroke:#181818;stroke-width:1.0;"/><polygon fill="none" points="1082.77,1524.738,1087.1751,1519.0288,1083.5993,1512.7667,1079.1942,1518.4759,1082.77,1524.738" style="stroke:#181818;stroke-width:1.0;"/></g><!--reverse link Dialog to PlayerOptionDialog--><g id="link_Dialog_PlayerOptionDialog"><path d="M1125.89,1280.832 C1158.03,1307.772 1198.71,1341.875 1229.77,1367.907 " fill="none" id="Dialog-backto-PlayerOptionDialog" style="stroke:#181818;stroke-width:1.0;"/><polygon fill="none" points="1121.25,1286.077,1110.42,1267.864,1130.24,1275.347,1121.25,1286.077" style="stroke:#181818;stroke-width:1.0;"/></g><!--reverse link PlayerOptionDialog to PlayerDialog--><g id="link_PlayerOptionDialog_PlayerDialog"><path codeLine="61" d="M1217.04,1457.413 C1190.45,1478.655 1159.25,1503.588 1132.69,1524.805 " fill="none" id="PlayerOptionDialog-backto-PlayerDialog" style="stroke:#181818;stroke-width:1.0;"/><polygon fill="none" points="1227.36,1449.166,1220.1756,1449.7858,1217.9844,1456.6559,1225.1689,1456.0361,1227.36,1449.166" style="stroke:#181818;stroke-width:1.0;"/></g><!--reverse link Dialog to NPCDialog--><g id="link_Dialog_NPCDialog"><path d="M1131.07,1276.385 C1143.36,1282.149 1156.39,1287.606 1169,1292 C1287.54,1333.307 1324.36,1317.311 1445,1352 C1456.47,1355.298 1468.32,1359.008 1480.2,1362.906 " fill="none" id="Dialog-backto-NPCDialog" style="stroke:#181818;stroke-width:1.0;"/><polygon fill="none" points="1127.94,1282.647,1113.12,1267.502,1134.15,1270.099,1127.94,1282.647" style="stroke:#181818;stroke-width:1.0;"/></g><!--reverse link NPCDialog to Dialog--><g id="link_NPCDialog_Dialog"><path codeLine="69" d="M1467.61,1348.539 C1356.59,1318.392 1318.26,1331.814 1204,1292 C1185.01,1285.383 1165.08,1276.355 1146.49,1267.502 " fill="none" id="NPCDialog-backto-Dialog" style="stroke:#181818;stroke-width:1.0;"/><polygon fill="none" points="1480.41,1352.118,1475.7143,1346.6453,1468.8565,1348.875,1473.5523,1354.3477,1480.41,1352.118" style="stroke:#181818;stroke-width:1.0;"/></g><!--reverse link OptionsDBType to ContrastOption--><g id="link_OptionsDBType_ContrastOption"><path codeLine="94" d="M1973.11,1107.75 C1988.44,1132.704 2006.67,1162.359 2021.63,1186.71 " fill="none" id="OptionsDBType-backto-ContrastOption" style="stroke:#181818;stroke-width:1.0;"/><polygon fill="#181818" points="1970.48,1103.469,1971.7736,1113.2325,1973.0932,1107.7317,1978.594,1109.0513,1970.48,1103.469" style="stroke:#181818;stroke-width:1.0;"/></g><!--reverse link DBType to OptionsDBType--><g id="link_DBType_OptionsDBType"><path codeLine="99" d="M864.165,1011.873 C888.568,982.504 925.957,947.913 969.5,943 C1015.49,937.811 1756.51,937.811 1802.5,943 C1843.6,947.638 1879.62,977.97 1904.62,1005.827 " fill="none" id="DBType-backto-OptionsDBType" style="stroke:#181818;stroke-width:1.0;"/><polygon fill="#181818" points="855.774,1022.392,862.6426,1020.196,863.2573,1013.0112,856.3887,1015.2071,855.774,1022.392" style="stroke:#181818;stroke-width:1.0;"/></g><!--link AppModel to AppState--><g id="link_AppModel_AppState"><path codeLine="130" d="M2056.98,842.273 C2074.11,891.815 2096.43,956.401 2111.87,1001.048 " fill="none" id="AppModel-to-AppState" style="stroke:#181818;stroke-width:1.0;"/><polygon fill="#181818" points="2113.53,1005.847,2114.3706,996.0341,2111.8967,1001.1213,2106.8095,998.6474,2113.53,1005.847" style="stroke:#181818;stroke-width:1.0;"/><text fill="#000000" font-family="sans-serif" font-size="13" lengthAdjust="spacing" textLength="8" x="2102.6514" y="995.0344">1</text></g><!--reverse link GameModel to Chapter--><g id="link_GameModel_Chapter"><path codeLine="149" d="M1497.68,921.057 C1483.69,928.009 1469.41,934.107 1455,939 C1401.32,957.233 1252.85,926.472 1200,947 C1168.12,959.381 1138.78,983.703 1116.65,1005.981 " fill="none" id="GameModel-backto-Chapter" style="stroke:#181818;stroke-width:1.0;"/><polygon fill="#181818" points="1509.36,915.026,1502.1932,914.228,1498.7001,920.5366,1505.8669,921.3346,1509.36,915.026" style="stroke:#181818;stroke-width:1.0;"/><text fill="#000000" font-family="sans-serif" font-size="13" lengthAdjust="spacing" textLength="8" x="1114.033" y="994.8379">1</text></g><!--reverse link OptionsModel to DBType--><g id="link_OptionsModel_DBType"><path codeLine="163" d="M834,871.882 C834,924.963 834,986.164 834,1022.245 " fill="none" id="OptionsModel-backto-DBType" style="stroke:#181818;stroke-width:1.0;stroke-dasharray:7.0,7.0;"/><polygon fill="#181818" points="834,866.772,830,875.772,834,871.772,838,875.772,834,866.772" style="stroke:#181818;stroke-width:1.0;"/></g><!--reverse link OptionsModel to OptionsDBType--><g id="link_OptionsModel_OptionsDBType"><path codeLine="164" d="M1045.17,868.392 C1116.3,896.824 1197.15,924.165 1274,939 C1303.79,944.75 1791.7,936.081 1820,947 C1851.46,959.138 1880.11,983.445 1901.63,1005.777 " fill="none" id="OptionsModel-backto-OptionsDBType" style="stroke:#181818;stroke-width:1.0;stroke-dasharray:7.0,7.0;"/><polygon fill="#181818" points="1040.5,866.517,1047.37,873.5742,1045.1422,868.3744,1050.3419,866.1467,1040.5,866.517" style="stroke:#181818;stroke-width:1.0;"/></g><!--reverse link AppViewModel to AppModel--><g id="link_AppViewModel_AppModel"><path codeLine="172" d="M2151.6,503.28 C2127.92,555.69 2091.12,637.16 2064.59,695.874 " fill="none" id="AppViewModel-backto-AppModel" style="stroke:#181818;stroke-width:1.0;"/><polygon fill="#181818" points="2157.03,491.26,2150.9182,495.087,2152.1001,502.2006,2158.2119,498.3736,2157.03,491.26" style="stroke:#181818;stroke-width:1.0;"/><text fill="#000000" font-family="sans-serif" font-size="13" lengthAdjust="spacing" textLength="8" x="2059.4043" y="685.0216">1</text></g><!--link AppViewModel to AppState--><g id="link_AppViewModel_AppState"><path codeLine="173" d="M2172.01,491.47 C2164.02,598.35 2142.19,890.453 2133.57,1005.768 " fill="none" id="AppViewModel-AppState" style="stroke:#181818;stroke-width:1.0;"/><text fill="#000000" font-family="sans-serif" font-size="13" lengthAdjust="spacing" textLength="8" x="2125.5095" y="994.9443">1</text></g><!--reverse link GameViewModel to GameModel--><g id="link_GameViewModel_GameModel"><path codeLine="186" d="M1754.15,560.83 C1747.94,580.87 1741.38,602.07 1734.91,622.96 " fill="none" id="GameViewModel-backto-GameModel" style="stroke:#181818;stroke-width:1.0;"/><polygon fill="#181818" points="1758.06,548.18,1752.4661,552.7307,1754.5152,559.6445,1760.1091,555.0938,1758.06,548.18" style="stroke:#181818;stroke-width:1.0;"/><text fill="#000000" font-family="sans-serif" font-size="13" lengthAdjust="spacing" textLength="8" x="1729.0194" y="612.1017">1</text></g><!--reverse link GameViewModel to AppModel--><g id="link_GameViewModel_AppModel"><path codeLine="187" d="M1906.4,558 C1912.92,565.24 1919.17,572.6 1925,580 C1953.01,615.54 1978.36,659.28 1997.34,695.621 " fill="none" id="GameViewModel-backto-AppModel" style="stroke:#181818;stroke-width:1.0;"/><polygon fill="#181818" points="1897.38,548.21,1898.5074,555.3324,1905.5155,557.0312,1904.3882,549.9087,1897.38,548.21" style="stroke:#181818;stroke-width:1.0;"/><text fill="#000000" font-family="sans-serif" font-size="13" lengthAdjust="spacing" textLength="8" x="1985.6552" y="684.9959">1</text></g><!--reverse link MainMenuViewModel to MainMenuModel--><g id="link_MainMenuViewModel_MainMenuModel"><path codeLine="196" d="M1327.09,528.03 C1338.29,598.9 1354.24,699.906 1361.35,744.872 " fill="none" id="MainMenuViewModel-backto-MainMenuModel" style="stroke:#181818;stroke-width:1.0;"/><polygon fill="#181818" points="1325.06,515.17,1322.0451,521.7206,1326.9322,527.023,1329.9471,520.4724,1325.06,515.17" style="stroke:#181818;stroke-width:1.0;"/><text fill="#000000" font-family="sans-serif" font-size="13" lengthAdjust="spacing" textLength="8" x="1351.3897" y="733.8512">1</text></g><!--reverse link MainMenuViewModel to GameModel--><g id="link_MainMenuViewModel_GameModel"><path codeLine="197" d="M1400.56,523.72 C1435.46,553.17 1477.12,588.33 1517.81,622.67 " fill="none" id="MainMenuViewModel-backto-GameModel" style="stroke:#181818;stroke-width:1.0;"/><polygon fill="#181818" points="1390.44,515.17,1392.4428,522.0974,1399.6076,522.913,1397.6048,515.9856,1390.44,515.17" style="stroke:#181818;stroke-width:1.0;"/><text fill="#000000" font-family="sans-serif" font-size="13" lengthAdjust="spacing" textLength="8" x="1500.7252" y="611.7968">1</text></g><!--reverse link MainMenuViewModel to AppModel--><g id="link_MainMenuViewModel_AppModel"><path codeLine="198" d="M1406.32,522.52 C1436.96,542.39 1472.42,561.43 1508,572 C1530.21,578.6 1905.08,568.16 1925,580 C1967.45,605.23 1994.52,654.148 2010.82,695.758 " fill="none" id="MainMenuViewModel-backto-AppModel" style="stroke:#181818;stroke-width:1.0;"/><polygon fill="#181818" points="1395.26,515.17,1398.0416,521.823,1405.2527,521.8142,1402.4711,515.1612,1395.26,515.17" style="stroke:#181818;stroke-width:1.0;"/><text fill="#000000" font-family="sans-serif" font-size="13" lengthAdjust="spacing" textLength="8" x="2000.3413" y="684.8942">1</text></g><!--reverse link OptionsViewModel to OptionsModel--><g id="link_OptionsViewModel_OptionsModel"><path codeLine="207" d="M834.757,528.44 C834.621,571.47 834.45,625.51 834.305,671.367 " fill="none" id="OptionsViewModel-backto-OptionsModel" style="stroke:#181818;stroke-width:1.0;"/><polygon fill="#181818" points="834.799,515.17,830.7792,521.1568,834.7594,527.1699,838.7792,521.1832,834.799,515.17" style="stroke:#181818;stroke-width:1.0;"/><text fill="#000000" font-family="sans-serif" font-size="13" lengthAdjust="spacing" textLength="8" x="826.0221" y="660.4023">1</text></g><!--reverse link OptionsViewModel to UserPreferences--><g id="link_OptionsViewModel_UserPreferences"><path codeLine="208" d="M561.142,510.49 C504.256,528.44 446.116,551.28 395,580 C331.684,615.58 271.842,674.008 233.14,716.295 " fill="none" id="OptionsViewModel-backto-UserPreferences" style="stroke:#181818;stroke-width:1.0;"/><polygon fill="#181818" points="565.936,508.99,556.1516,507.8652,561.1649,510.4856,558.5445,515.4989,565.936,508.99" style="stroke:#181818;stroke-width:1.0;"/></g><!--reverse link AppView to AppViewModel--><g id="link_AppView_AppViewModel"><path codeLine="216" d="M2049.44,280.8 C2078.59,319.96 2118.49,373.58 2145.43,409.77 " fill="none" id="AppView-backto-AppViewModel" style="stroke:#181818;stroke-width:1.0;"/><polygon fill="#181818" points="2041.52,270.16,2041.8915,277.3615,2048.682,279.7884,2048.3105,272.5869,2041.52,270.16" style="stroke:#181818;stroke-width:1.0;"/><text fill="#000000" font-family="sans-serif" font-size="13" lengthAdjust="spacing" textLength="8" x="2131.87" y="398.8934">1</text></g><!--reverse link GameView to GameViewModel--><g id="link_GameView_GameViewModel"><path codeLine="222" d="M1735.45,282.7 C1742.07,303.72 1749.93,328.67 1757.53,352.78 " fill="none" id="GameView-backto-GameViewModel" style="stroke:#181818;stroke-width:1.0;"/><polygon fill="#181818" points="1731.5,270.16,1729.4917,277.0858,1735.1123,281.6034,1737.1206,274.6776,1731.5,270.16" style="stroke:#181818;stroke-width:1.0;"/><text fill="#000000" font-family="sans-serif" font-size="13" lengthAdjust="spacing" textLength="8" x="1746.8909" y="341.8086">1</text></g><!--link Avatar to GameView--><g id="link_Avatar_GameView"><path codeLine="223" d="M1719,106.06 C1719,125.98 1719,152.36 1719,175.52 " fill="none" id="Avatar-to-GameView" style="stroke:#181818;stroke-width:1.0;"/><polygon fill="#181818" points="1719,188.72,1723,182.72,1719,176.72,1715,182.72,1719,188.72" style="stroke:#181818;stroke-width:1.0;"/><text fill="#000000" font-family="sans-serif" font-size="13" lengthAdjust="spacing" textLength="23" x="1693.6281" y="126.2692">1..*</text><text fill="#000000" font-family="sans-serif" font-size="13" lengthAdjust="spacing" textLength="8" x="1710.3375" y="177.8352">1</text></g><!--reverse link MainMenuView to MainMenuViewModel--><g id="link_MainMenuView_MainMenuViewModel"><path codeLine="229" d="M1366.75,282.83 C1357.17,313.69 1344.97,352.97 1334.83,385.65 " fill="none" id="MainMenuView-backto-MainMenuViewModel" style="stroke:#181818;stroke-width:1.0;"/><polygon fill="#181818" points="1370.69,270.16,1365.0946,274.7088,1367.1415,281.6233,1372.7369,277.0745,1370.69,270.16" style="stroke:#181818;stroke-width:1.0;"/><text fill="#000000" font-family="sans-serif" font-size="13" lengthAdjust="spacing" textLength="8" x="1328.5614" y="374.7844">1</text></g><!--reverse link OptionsView to OptionsViewModel--><g id="link_OptionsView_OptionsViewModel"><path codeLine="236" d="M949.524,288.73 C928.203,318.66 902.179,355.19 880.33,385.86 " fill="none" id="OptionsView-backto-OptionsViewModel" style="stroke:#181818;stroke-width:1.0;"/><polygon fill="#181818" points="957.15,278.02,950.4109,280.5861,950.1876,287.7937,956.9267,285.2276,957.15,278.02" style="stroke:#181818;stroke-width:1.0;"/><text fill="#000000" font-family="sans-serif" font-size="13" lengthAdjust="spacing" textLength="8" x="876.8505" y="375.0174">1</text></g><!--SRC=[fLZ1Rjiu4BtdAuZinOsZ83aLK0q5ZkqqGTU9KRkz54N1I1D7i4mA99NMsys_xBViborbIl9Gf18dwvl8uSoRuSoReUKgPJaLT4tYZ4evL4gaTuM2wvYpUVeNaDC3sOZaD5xH9SpL9WCY85QKBJCuEAZMIPRUaTy7HF-soiWN2M8cu1u4i1Wa6Gn8Rtxyn-Nb-_Udf-_8N56LnYIAgaFbhxy4XOubdo4fOaYcNAMSzTw5v8xp32ZhF32cOZNb2UmZE-9C2IfLAIkrusov5NqwUDhvf3QvHcu00YlMP9Zd9N10eAV3wviVqydDbsP5VtySJYVDz-riSNrxCw_KxvIDKvhnvKBRGEfkg11KSM4sc-LPHZVWNxpDo_2qjcvcezRAw87c2iI49GwG1LqY14agLo9Tfom5KR2br44umqTIfjNSqnXgbVW6LQeoi09gbkbIXcIeNTiCjBM1sO-YdSG3qCGW3Wb2_dI0i9CWYCZXsM49s5hdGL0VQa4qgnXXqaGzH3VWTz2-30A_5B14xgtqfECo-qfhSeF4jgj6zXnvtqBHxInEajU3zQROAw5Q25u2YXFthN2zoT-F7tYgEQVEE8mgSj1QC4hCLY3Q6L7NrHkImId9lio1ha1uwkLr2TA0UgaGHjl0M0NhjSJPA4lZLKWk2nQNuHayyZI9_5LYL5-bKkVePg9PTOCDTFgOIXDe3rMdiivvpwQ365DPpUhcKX6EDHVGV6GWPVF1k5ZJpE-QKIF75osMxWlJceBrjZTvK2Qw5UdT13nxSGKoRC55LseR7kXhROcsxy11o8s6q5Q5J5H7ZeAMX3y45yO9R87HjOVg7sbM-9oMeBwMMqEvON7Fbj8jU2RuEfNmN9vLIEPRWti3QIzxSHWXBuoThjiweePLgXxcJWqnN-US0LFI6eY6ZrHHgrdgCOeb8Ce9v6en_NEImLgVSXMMQPJPkl9yYXRBN_13bfD9sCmerkJpxpzTku5yRhUlDuJwg0DSeYoZWZCCM1KJ_-QKfcogozBQDSdNE52tzCOoyh8qwxfPnYofEh- -Z3ceWQxyEn0H4ehDVbYF26WhmNHLNwRBOPQsGkYhKlPyScu5c7HRbC_jRi- -7f9yooc3q_RbivwxEClgWoqJ-mflDQVoKW-DyW6I3ivBMG7cf2c-if_PCUskG04QZvjcsg2gGkeR-eEya0zMI7fGnYJqD2qtINVvTwG9kCpI-lPGajP9lXL4wrLbkFcRt8NaUdmn6siwkAFQKyExTZ2jfu-95efDvUPvPD6QvqmdpLOhjj7w-RIdFLlyTQRgRkQOmgnQ6xA5koYxVJBGPZGvwAmpwJRurCniAzZmUxljHJtJC4Fo2UcqHBvz-cwNn_xQZnVDhgDoP_YOLBuj48H5v8u59ga69oS4TNLdpsxhg9yyfl3JsrE-wWqtOMd5rM73sdRT-tf7m_8xbNKDMKeiYM0duUq5VdZBkah3NS7kYRuae57Dp9vHTokqhWgyMsBvPZAMCJ1Oc3UpErLi7OYRT_irouij1VuchQ7w0sczUF2q7tseRiFmiCtepwd2IhvzjxHqKVsEDzrxjo_7BzDSaOTW_RU_nlGRUjZuVoT9Cm5fxRoGC7dKyRkYBCb03AgPBV9EHIyUCE5o7Qp3uNhJBMkxrItd2t65rnzXZdWbj5Xcpm1MZyaBMZuezmbXaIUw-iSyBigDia_sz08jvu-OYwIgaMD2sIPo9WAjlk9bwJGNKnoj5ytVziCYyl2j6qKd3Es_EuCYrvDj-toRXNq4tERUvd1eiIKUZRfV4OXZSGRij7Werc5NXC0gs_qXDAfnjjfwgkVHuTd9oT4X2HB-amL7bcmNANZv065sQc5_t9QPTbLwWuXkt5T529QJ6-WbLoLmJUSlPEp-_c1qhLH6EVeV]--></g></svg>