<?xml version="1.0" encoding="UTF-8" standalone="no"?><svg xmlns="http://www.w3.org/2000/svg" xmlns:xlink="http://www.w3.org/1999/xlink" contentStyleType="text/css" height="1612px" preserveAspectRatio="none" style="width:1773px;height:1612px;background:#FFFFFF80;" version="1.1" viewBox="0 0 1773 1612" width="1773px" zoomAndPan="magnify"><defs/><g><!--cluster types--><g id="cluster_types"><rect fill="none" height="667" rx="2.5" ry="2.5" style="stroke:#000000;stroke-width:1.5;" width="1049" x="718" y="939"/><text fill="#000000" font-family="sans-serif" font-size="14" font-weight="bold" lengthAdjust="spacing" textLength="45" x="1220" y="953.9951">types</text></g><!--cluster components--><g id="cluster_components"><rect fill="none" height="115" rx="2.5" ry="2.5" style="stroke:#000000;stroke-width:1.5;" width="222" x="1047" y="7"/><text fill="#000000" font-family="sans-serif" font-size="14" font-weight="bold" lengthAdjust="spacing" textLength="100" x="1108" y="21.9951">components</text></g><!--cluster model--><g id="cluster_model"><rect fill="none" height="343" rx="2.5" ry="2.5" style="stroke:#000000;stroke-width:1.5;" width="1029" x="404" y="572"/><text fill="#000000" font-family="sans-serif" font-size="14" font-weight="bold" lengthAdjust="spacing" textLength="49" x="894" y="586.9951">model</text></g><!--cluster viewmodel--><g id="cluster_viewmodel"><rect fill="none" height="246" rx="2.5" ry="2.5" style="stroke:#000000;stroke-width:1.5;" width="1538" x="7" y="302"/><text fill="#000000" font-family="sans-serif" font-size="14" font-weight="bold" lengthAdjust="spacing" textLength="85" x="733.5" y="316.9951">viewmodel</text></g><!--cluster view--><g id="cluster_view"><rect fill="none" height="132" rx="2.5" ry="2.5" style="stroke:#000000;stroke-width:1.5;" width="1285" x="24" y="146"/><text fill="#000000" font-family="sans-serif" font-size="14" font-weight="bold" lengthAdjust="spacing" textLength="36" x="648.5" y="160.9951">view</text></g><!--class AppState--><g id="elem_AppState"><rect codeLine="5" fill="#F1F1F1" height="96.8906" id="AppState" rx="2.5" ry="2.5" style="stroke:#181818;stroke-width:0.5;" width="102" x="782" y="990"/><ellipse cx="797" cy="1006" fill="#EB937F" rx="11" ry="11" style="stroke:#181818;stroke-width:1.0;"/><path d="M795.7969,1006.875 L797.25,1006.875 L797.25,1006.9844 C797.25,1007.3906 797.2813,1007.5469 797.3594,1007.7031 C797.5156,1007.9531 797.7969,1008.1094 798.0938,1008.1094 C798.3438,1008.1094 798.6094,1007.9688 798.7656,1007.75 C798.8906,1007.5938 798.9219,1007.4375 798.9219,1006.9844 L798.9219,1005.0625 C798.9219,1004.9063 798.9219,1004.8594 798.9063,1004.7031 C798.8438,1004.2344 798.5313,1003.9219 798.0781,1003.9219 C797.8281,1003.9219 797.5625,1004.0625 797.3906,1004.2813 C797.2813,1004.4531 797.25,1004.6094 797.25,1005.0625 L797.25,1005.1875 L795.7969,1005.1875 L795.7969,1002.7813 L799.7813,1002.7813 L799.7813,1003.6406 C799.7813,1004.0469 799.8125,1004.2188 799.8906,1004.375 C800.0625,1004.625 800.3438,1004.7813 800.625,1004.7813 C800.8906,1004.7813 801.1563,1004.6406 801.3281,1004.4219 C801.4375,1004.25 801.4688,1004.1094 801.4688,1003.6406 L801.4688,1001.0938 L793.8438,1001.0938 C793.4063,1001.0938 793.2813,1001.1094 793.125,1001.2031 C792.875,1001.3594 792.7188,1001.6563 792.7188,1001.9375 C792.7188,1002.2188 792.8594,1002.4688 793.0781,1002.6406 C793.2344,1002.75 793.4219,1002.7813 793.8438,1002.7813 L794.0938,1002.7813 L794.0938,1009.2969 L793.8438,1009.2969 C793.4375,1009.2969 793.2813,1009.3125 793.125,1009.4219 C792.875,1009.5938 792.7188,1009.8594 792.7188,1010.1563 C792.7188,1010.4219 792.8594,1010.6719 793.0781,1010.8281 C793.2188,1010.9531 793.4531,1011 793.8438,1011 L801.8438,1011 L801.8438,1008.4219 C801.8438,1007.9844 801.8125,1007.8438 801.7344,1007.6875 C801.5625,1007.4375 801.2813,1007.2813 801,1007.2813 C800.7344,1007.2813 800.4688,1007.3906 800.2969,1007.6406 C800.1875,1007.7969 800.1563,1007.9375 800.1563,1008.4219 L800.1563,1009.2969 L795.7969,1009.2969 L795.7969,1006.875 Z " fill="#000000"/><text fill="#000000" font-family="sans-serif" font-size="14" lengthAdjust="spacing" textLength="70" x="811" y="1010.8467">AppState</text><line style="stroke:#181818;stroke-width:0.5;" x1="783" x2="883" y1="1022" y2="1022"/><text fill="#000000" font-family="sans-serif" font-size="14" lengthAdjust="spacing" textLength="83" x="788" y="1038.9951">MAIN_MENU</text><text fill="#000000" font-family="sans-serif" font-size="14" lengthAdjust="spacing" textLength="63" x="788" y="1055.292">IN_GAME</text><text fill="#000000" font-family="sans-serif" font-size="14" lengthAdjust="spacing" textLength="63" x="788" y="1071.5889">OPTIONS</text><line style="stroke:#181818;stroke-width:0.5;" x1="783" x2="883" y1="1078.8906" y2="1078.8906"/></g><!--class DialogType--><g id="elem_DialogType"><rect codeLine="11" fill="#F1F1F1" height="129.4844" id="DialogType" rx="2.5" ry="2.5" style="stroke:#181818;stroke-width:0.5;" width="151" x="1365.5" y="974"/><ellipse cx="1397.6" cy="990" fill="#EB937F" rx="11" ry="11" style="stroke:#181818;stroke-width:1.0;"/><path d="M1396.3969,990.875 L1397.85,990.875 L1397.85,990.9844 C1397.85,991.3906 1397.8813,991.5469 1397.9594,991.7031 C1398.1156,991.9531 1398.3969,992.1094 1398.6938,992.1094 C1398.9438,992.1094 1399.2094,991.9688 1399.3656,991.75 C1399.4906,991.5938 1399.5219,991.4375 1399.5219,990.9844 L1399.5219,989.0625 C1399.5219,988.9063 1399.5219,988.8594 1399.5063,988.7031 C1399.4438,988.2344 1399.1313,987.9219 1398.6781,987.9219 C1398.4281,987.9219 1398.1625,988.0625 1397.9906,988.2813 C1397.8813,988.4531 1397.85,988.6094 1397.85,989.0625 L1397.85,989.1875 L1396.3969,989.1875 L1396.3969,986.7813 L1400.3813,986.7813 L1400.3813,987.6406 C1400.3813,988.0469 1400.4125,988.2188 1400.4906,988.375 C1400.6625,988.625 1400.9438,988.7813 1401.225,988.7813 C1401.4906,988.7813 1401.7563,988.6406 1401.9281,988.4219 C1402.0375,988.25 1402.0688,988.1094 1402.0688,987.6406 L1402.0688,985.0938 L1394.4438,985.0938 C1394.0063,985.0938 1393.8813,985.1094 1393.725,985.2031 C1393.475,985.3594 1393.3188,985.6563 1393.3188,985.9375 C1393.3188,986.2188 1393.4594,986.4688 1393.6781,986.6406 C1393.8344,986.75 1394.0219,986.7813 1394.4438,986.7813 L1394.6938,986.7813 L1394.6938,993.2969 L1394.4438,993.2969 C1394.0375,993.2969 1393.8813,993.3125 1393.725,993.4219 C1393.475,993.5938 1393.3188,993.8594 1393.3188,994.1563 C1393.3188,994.4219 1393.4594,994.6719 1393.6781,994.8281 C1393.8188,994.9531 1394.0531,995 1394.4438,995 L1402.4438,995 L1402.4438,992.4219 C1402.4438,991.9844 1402.4125,991.8438 1402.3344,991.6875 C1402.1625,991.4375 1401.8813,991.2813 1401.6,991.2813 C1401.3344,991.2813 1401.0688,991.3906 1400.8969,991.6406 C1400.7875,991.7969 1400.7563,991.9375 1400.7563,992.4219 L1400.7563,993.2969 L1396.3969,993.2969 L1396.3969,990.875 Z " fill="#000000"/><text fill="#000000" font-family="sans-serif" font-size="14" lengthAdjust="spacing" textLength="81" x="1415.4" y="994.8467">DialogType</text><line style="stroke:#181818;stroke-width:0.5;" x1="1366.5" x2="1515.5" y1="1006" y2="1006"/><text fill="#000000" font-family="sans-serif" font-size="14" lengthAdjust="spacing" textLength="105" x="1371.5" y="1022.9951">NarratorDialog</text><text fill="#000000" font-family="sans-serif" font-size="14" lengthAdjust="spacing" textLength="89" x="1371.5" y="1039.292">PlayerDialog</text><text fill="#000000" font-family="sans-serif" font-size="14" lengthAdjust="spacing" textLength="139" x="1371.5" y="1055.5889">PlayerOptionDialog</text><text fill="#000000" font-family="sans-serif" font-size="14" lengthAdjust="spacing" textLength="74" x="1371.5" y="1071.8857">NPCDialog</text><text fill="#000000" font-family="sans-serif" font-size="14" lengthAdjust="spacing" textLength="86" x="1371.5" y="1088.1826">ChapterEnd</text><line style="stroke:#181818;stroke-width:0.5;" x1="1366.5" x2="1515.5" y1="1095.4844" y2="1095.4844"/></g><!--class Tag--><g id="elem_Tag"><rect codeLine="19" fill="#F1F1F1" height="64.2969" id="Tag" rx="2.5" ry="2.5" style="stroke:#181818;stroke-width:0.5;" width="164" x="1203" y="1179.5"/><ellipse cx="1267.75" cy="1195.5" fill="#EB937F" rx="11" ry="11" style="stroke:#181818;stroke-width:1.0;"/><path d="M1266.5469,1196.375 L1268,1196.375 L1268,1196.4844 C1268,1196.8906 1268.0313,1197.0469 1268.1094,1197.2031 C1268.2656,1197.4531 1268.5469,1197.6094 1268.8438,1197.6094 C1269.0938,1197.6094 1269.3594,1197.4688 1269.5156,1197.25 C1269.6406,1197.0938 1269.6719,1196.9375 1269.6719,1196.4844 L1269.6719,1194.5625 C1269.6719,1194.4063 1269.6719,1194.3594 1269.6563,1194.2031 C1269.5938,1193.7344 1269.2813,1193.4219 1268.8281,1193.4219 C1268.5781,1193.4219 1268.3125,1193.5625 1268.1406,1193.7813 C1268.0313,1193.9531 1268,1194.1094 1268,1194.5625 L1268,1194.6875 L1266.5469,1194.6875 L1266.5469,1192.2813 L1270.5313,1192.2813 L1270.5313,1193.1406 C1270.5313,1193.5469 1270.5625,1193.7188 1270.6406,1193.875 C1270.8125,1194.125 1271.0938,1194.2813 1271.375,1194.2813 C1271.6406,1194.2813 1271.9063,1194.1406 1272.0781,1193.9219 C1272.1875,1193.75 1272.2188,1193.6094 1272.2188,1193.1406 L1272.2188,1190.5938 L1264.5938,1190.5938 C1264.1563,1190.5938 1264.0313,1190.6094 1263.875,1190.7031 C1263.625,1190.8594 1263.4688,1191.1563 1263.4688,1191.4375 C1263.4688,1191.7188 1263.6094,1191.9688 1263.8281,1192.1406 C1263.9844,1192.25 1264.1719,1192.2813 1264.5938,1192.2813 L1264.8438,1192.2813 L1264.8438,1198.7969 L1264.5938,1198.7969 C1264.1875,1198.7969 1264.0313,1198.8125 1263.875,1198.9219 C1263.625,1199.0938 1263.4688,1199.3594 1263.4688,1199.6563 C1263.4688,1199.9219 1263.6094,1200.1719 1263.8281,1200.3281 C1263.9688,1200.4531 1264.2031,1200.5 1264.5938,1200.5 L1272.5938,1200.5 L1272.5938,1197.9219 C1272.5938,1197.4844 1272.5625,1197.3438 1272.4844,1197.1875 C1272.3125,1196.9375 1272.0313,1196.7813 1271.75,1196.7813 C1271.4844,1196.7813 1271.2188,1196.8906 1271.0469,1197.1406 C1270.9375,1197.2969 1270.9063,1197.4375 1270.9063,1197.9219 L1270.9063,1198.7969 L1266.5469,1198.7969 L1266.5469,1196.375 Z " fill="#000000"/><text fill="#000000" font-family="sans-serif" font-size="14" lengthAdjust="spacing" textLength="26" x="1288.25" y="1200.3467">Tag</text><line style="stroke:#181818;stroke-width:0.5;" x1="1204" x2="1366" y1="1211.5" y2="1211.5"/><text fill="#000000" font-family="sans-serif" font-size="14" lengthAdjust="spacing" textLength="152" x="1209" y="1228.4951">diskriminierungstyp1</text><line style="stroke:#181818;stroke-width:0.5;" x1="1204" x2="1366" y1="1235.7969" y2="1235.7969"/></g><!--class Chapter--><g id="elem_Chapter"><rect codeLine="23" fill="#F1F1F1" height="113.1875" id="Chapter" rx="2.5" ry="2.5" style="stroke:#181818;stroke-width:0.5;" width="213" x="1093.5" y="982"/><ellipse cx="1167.25" cy="998" fill="#B4A7E5" rx="11" ry="11" style="stroke:#181818;stroke-width:1.0;"/><path d="M1168.2031,994.7813 L1169.9219,994.7813 C1170.3125,994.7813 1170.5,994.75 1170.625,994.6719 C1170.8906,994.5156 1171.0313,994.2344 1171.0313,993.9375 C1171.0313,993.6719 1170.9219,993.4063 1170.6875,993.2344 C1170.5156,993.125 1170.375,993.0938 1169.9219,993.0938 L1164.7813,993.0938 C1164.3438,993.0938 1164.2188,993.1094 1164.0625,993.2031 C1163.8125,993.3594 1163.6563,993.6563 1163.6563,993.9375 C1163.6563,994.2188 1163.7969,994.4688 1164.0156,994.6406 C1164.1719,994.75 1164.3594,994.7813 1164.7813,994.7813 L1166.5,994.7813 L1166.5,1001.2969 L1164.7813,1001.2969 C1164.3438,1001.2969 1164.2188,1001.3125 1164.0625,1001.4219 C1163.8125,1001.5781 1163.6563,1001.8594 1163.6563,1002.1563 C1163.6563,1002.4063 1163.7969,1002.6719 1164.0156,1002.8281 C1164.1719,1002.9531 1164.375,1003 1164.7813,1003 L1169.9219,1003 C1170.6719,1003 1171.0313,1002.7188 1171.0313,1002.1563 C1171.0313,1001.875 1170.9219,1001.625 1170.6875,1001.4531 C1170.5156,1001.3281 1170.375,1001.2969 1169.9219,1001.2969 L1168.2031,1001.2969 L1168.2031,994.7813 Z " fill="#000000"/><text fill="#000000" font-family="sans-serif" font-size="14" font-style="italic" lengthAdjust="spacing" textLength="57" x="1187.75" y="1002.8467">Chapter</text><line style="stroke:#181818;stroke-width:0.5;" x1="1094.5" x2="1305.5" y1="1014" y2="1014"/><text fill="#000000" font-family="sans-serif" font-size="14" lengthAdjust="spacing" textLength="93" x="1099.5" y="1030.9951">+title: string</text><text fill="#000000" font-family="sans-serif" font-size="14" lengthAdjust="spacing" textLength="107" x="1099.5" y="1047.292">+player: string</text><text fill="#000000" font-family="sans-serif" font-size="14" lengthAdjust="spacing" textLength="201" x="1099.5" y="1063.5889">+tags: Array&lt;Tag&lt;string&gt;&gt;</text><text fill="#000000" font-family="sans-serif" font-size="14" lengthAdjust="spacing" textLength="145" x="1099.5" y="1079.8857">+headDialog: Dialog</text><line style="stroke:#181818;stroke-width:0.5;" x1="1094.5" x2="1305.5" y1="1087.1875" y2="1087.1875"/></g><!--class Dialog--><g id="elem_Dialog"><rect codeLine="32" fill="#F1F1F1" height="64.2969" id="Dialog" rx="2.5" ry="2.5" style="stroke:#181818;stroke-width:0.5;" width="192" x="976" y="1179.5"/><ellipse cx="1044.75" cy="1195.5" fill="#B4A7E5" rx="11" ry="11" style="stroke:#181818;stroke-width:1.0;"/><path d="M1045.7031,1192.2813 L1047.4219,1192.2813 C1047.8125,1192.2813 1048,1192.25 1048.125,1192.1719 C1048.3906,1192.0156 1048.5313,1191.7344 1048.5313,1191.4375 C1048.5313,1191.1719 1048.4219,1190.9063 1048.1875,1190.7344 C1048.0156,1190.625 1047.875,1190.5938 1047.4219,1190.5938 L1042.2813,1190.5938 C1041.8438,1190.5938 1041.7188,1190.6094 1041.5625,1190.7031 C1041.3125,1190.8594 1041.1563,1191.1563 1041.1563,1191.4375 C1041.1563,1191.7188 1041.2969,1191.9688 1041.5156,1192.1406 C1041.6719,1192.25 1041.8594,1192.2813 1042.2813,1192.2813 L1044,1192.2813 L1044,1198.7969 L1042.2813,1198.7969 C1041.8438,1198.7969 1041.7188,1198.8125 1041.5625,1198.9219 C1041.3125,1199.0781 1041.1563,1199.3594 1041.1563,1199.6563 C1041.1563,1199.9063 1041.2969,1200.1719 1041.5156,1200.3281 C1041.6719,1200.4531 1041.875,1200.5 1042.2813,1200.5 L1047.4219,1200.5 C1048.1719,1200.5 1048.5313,1200.2188 1048.5313,1199.6563 C1048.5313,1199.375 1048.4219,1199.125 1048.1875,1198.9531 C1048.0156,1198.8281 1047.875,1198.7969 1047.4219,1198.7969 L1045.7031,1198.7969 L1045.7031,1192.2813 Z " fill="#000000"/><text fill="#000000" font-family="sans-serif" font-size="14" font-style="italic" lengthAdjust="spacing" textLength="46" x="1065.25" y="1200.3467">Dialog</text><line style="stroke:#181818;stroke-width:0.5;" x1="977" x2="1167" y1="1211.5" y2="1211.5"/><text fill="#000000" font-family="sans-serif" font-size="14" lengthAdjust="spacing" textLength="180" x="982" y="1228.4951">+dialogType: DialogType</text><line style="stroke:#181818;stroke-width:0.5;" x1="977" x2="1167" y1="1235.7969" y2="1235.7969"/></g><!--class NarratorDialog--><g id="elem_NarratorDialog"><rect codeLine="36" fill="#F1F1F1" height="96.8906" id="NarratorDialog" rx="2.5" ry="2.5" style="stroke:#181818;stroke-width:0.5;" width="302" x="734" y="1328"/><ellipse cx="827.75" cy="1344" fill="#B4A7E5" rx="11" ry="11" style="stroke:#181818;stroke-width:1.0;"/><path d="M828.7031,1340.7813 L830.4219,1340.7813 C830.8125,1340.7813 831,1340.75 831.125,1340.6719 C831.3906,1340.5156 831.5313,1340.2344 831.5313,1339.9375 C831.5313,1339.6719 831.4219,1339.4063 831.1875,1339.2344 C831.0156,1339.125 830.875,1339.0938 830.4219,1339.0938 L825.2813,1339.0938 C824.8438,1339.0938 824.7188,1339.1094 824.5625,1339.2031 C824.3125,1339.3594 824.1563,1339.6563 824.1563,1339.9375 C824.1563,1340.2188 824.2969,1340.4688 824.5156,1340.6406 C824.6719,1340.75 824.8594,1340.7813 825.2813,1340.7813 L827,1340.7813 L827,1347.2969 L825.2813,1347.2969 C824.8438,1347.2969 824.7188,1347.3125 824.5625,1347.4219 C824.3125,1347.5781 824.1563,1347.8594 824.1563,1348.1563 C824.1563,1348.4063 824.2969,1348.6719 824.5156,1348.8281 C824.6719,1348.9531 824.875,1349 825.2813,1349 L830.4219,1349 C831.1719,1349 831.5313,1348.7188 831.5313,1348.1563 C831.5313,1347.875 831.4219,1347.625 831.1875,1347.4531 C831.0156,1347.3281 830.875,1347.2969 830.4219,1347.2969 L828.7031,1347.2969 L828.7031,1340.7813 Z " fill="#000000"/><text fill="#000000" font-family="sans-serif" font-size="14" font-style="italic" lengthAdjust="spacing" textLength="106" x="848.25" y="1348.8467">NarratorDialog</text><line style="stroke:#181818;stroke-width:0.5;" x1="735" x2="1035" y1="1360" y2="1360"/><text fill="#000000" font-family="sans-serif" font-size="14" lengthAdjust="spacing" textLength="290" x="740" y="1376.9951">+dialogType: DialogType.NarratorDialog</text><text fill="#000000" font-family="sans-serif" font-size="14" lengthAdjust="spacing" textLength="93" x="740" y="1393.292">+text: string</text><text fill="#000000" font-family="sans-serif" font-size="14" lengthAdjust="spacing" textLength="105" x="740" y="1409.5889">+next: Dialog?</text><line style="stroke:#181818;stroke-width:0.5;" x1="735" x2="1035" y1="1416.8906" y2="1416.8906"/></g><!--class PlayerDialog--><g id="elem_PlayerDialog"><rect codeLine="43" fill="#F1F1F1" height="96.8906" id="PlayerDialog" rx="2.5" ry="2.5" style="stroke:#181818;stroke-width:0.5;" width="286" x="929" y="1493"/><ellipse cx="1022.75" cy="1509" fill="#B4A7E5" rx="11" ry="11" style="stroke:#181818;stroke-width:1.0;"/><path d="M1023.7031,1505.7813 L1025.4219,1505.7813 C1025.8125,1505.7813 1026,1505.75 1026.125,1505.6719 C1026.3906,1505.5156 1026.5313,1505.2344 1026.5313,1504.9375 C1026.5313,1504.6719 1026.4219,1504.4063 1026.1875,1504.2344 C1026.0156,1504.125 1025.875,1504.0938 1025.4219,1504.0938 L1020.2813,1504.0938 C1019.8438,1504.0938 1019.7188,1504.1094 1019.5625,1504.2031 C1019.3125,1504.3594 1019.1563,1504.6563 1019.1563,1504.9375 C1019.1563,1505.2188 1019.2969,1505.4688 1019.5156,1505.6406 C1019.6719,1505.75 1019.8594,1505.7813 1020.2813,1505.7813 L1022,1505.7813 L1022,1512.2969 L1020.2813,1512.2969 C1019.8438,1512.2969 1019.7188,1512.3125 1019.5625,1512.4219 C1019.3125,1512.5781 1019.1563,1512.8594 1019.1563,1513.1563 C1019.1563,1513.4063 1019.2969,1513.6719 1019.5156,1513.8281 C1019.6719,1513.9531 1019.875,1514 1020.2813,1514 L1025.4219,1514 C1026.1719,1514 1026.5313,1513.7188 1026.5313,1513.1563 C1026.5313,1512.875 1026.4219,1512.625 1026.1875,1512.4531 C1026.0156,1512.3281 1025.875,1512.2969 1025.4219,1512.2969 L1023.7031,1512.2969 L1023.7031,1505.7813 Z " fill="#000000"/><text fill="#000000" font-family="sans-serif" font-size="14" font-style="italic" lengthAdjust="spacing" textLength="90" x="1043.25" y="1513.8467">PlayerDialog</text><line style="stroke:#181818;stroke-width:0.5;" x1="930" x2="1214" y1="1525" y2="1525"/><text fill="#000000" font-family="sans-serif" font-size="14" lengthAdjust="spacing" textLength="274" x="935" y="1541.9951">+dialogType: DialogType.PlayerDialog</text><text fill="#000000" font-family="sans-serif" font-size="14" lengthAdjust="spacing" textLength="93" x="935" y="1558.292">+text: string</text><text fill="#000000" font-family="sans-serif" font-size="14" lengthAdjust="spacing" textLength="105" x="935" y="1574.5889">+next: Dialog?</text><line style="stroke:#181818;stroke-width:0.5;" x1="930" x2="1214" y1="1581.8906" y2="1581.8906"/></g><!--class PlayerOptionDialog--><g id="elem_PlayerOptionDialog"><rect codeLine="50" fill="#F1F1F1" height="80.5938" id="PlayerOptionDialog" rx="2.5" ry="2.5" style="stroke:#181818;stroke-width:0.5;" width="336" x="1108" y="1336"/><ellipse cx="1203.25" cy="1352" fill="#B4A7E5" rx="11" ry="11" style="stroke:#181818;stroke-width:1.0;"/><path d="M1204.2031,1348.7813 L1205.9219,1348.7813 C1206.3125,1348.7813 1206.5,1348.75 1206.625,1348.6719 C1206.8906,1348.5156 1207.0313,1348.2344 1207.0313,1347.9375 C1207.0313,1347.6719 1206.9219,1347.4063 1206.6875,1347.2344 C1206.5156,1347.125 1206.375,1347.0938 1205.9219,1347.0938 L1200.7813,1347.0938 C1200.3438,1347.0938 1200.2188,1347.1094 1200.0625,1347.2031 C1199.8125,1347.3594 1199.6563,1347.6563 1199.6563,1347.9375 C1199.6563,1348.2188 1199.7969,1348.4688 1200.0156,1348.6406 C1200.1719,1348.75 1200.3594,1348.7813 1200.7813,1348.7813 L1202.5,1348.7813 L1202.5,1355.2969 L1200.7813,1355.2969 C1200.3438,1355.2969 1200.2188,1355.3125 1200.0625,1355.4219 C1199.8125,1355.5781 1199.6563,1355.8594 1199.6563,1356.1563 C1199.6563,1356.4063 1199.7969,1356.6719 1200.0156,1356.8281 C1200.1719,1356.9531 1200.375,1357 1200.7813,1357 L1205.9219,1357 C1206.6719,1357 1207.0313,1356.7188 1207.0313,1356.1563 C1207.0313,1355.875 1206.9219,1355.625 1206.6875,1355.4531 C1206.5156,1355.3281 1206.375,1355.2969 1205.9219,1355.2969 L1204.2031,1355.2969 L1204.2031,1348.7813 Z " fill="#000000"/><text fill="#000000" font-family="sans-serif" font-size="14" font-style="italic" lengthAdjust="spacing" textLength="137" x="1223.75" y="1356.8467">PlayerOptionDialog</text><line style="stroke:#181818;stroke-width:0.5;" x1="1109" x2="1443" y1="1368" y2="1368"/><text fill="#000000" font-family="sans-serif" font-size="14" lengthAdjust="spacing" textLength="324" x="1114" y="1384.9951">+dialogType: DialogType.PlayerOptionDialog</text><text fill="#000000" font-family="sans-serif" font-size="14" lengthAdjust="spacing" textLength="223" x="1114" y="1401.292">+choices: Array&lt;PlayerDialog&gt;</text><line style="stroke:#181818;stroke-width:0.5;" x1="1109" x2="1443" y1="1408.5938" y2="1408.5938"/></g><!--class NPCDialog--><g id="elem_NPCDialog"><rect codeLine="56" fill="#F1F1F1" height="113.1875" id="NPCDialog" rx="2.5" ry="2.5" style="stroke:#181818;stroke-width:0.5;" width="271" x="1479.5" y="1320"/><ellipse cx="1573.75" cy="1336" fill="#B4A7E5" rx="11" ry="11" style="stroke:#181818;stroke-width:1.0;"/><path d="M1574.7031,1332.7813 L1576.4219,1332.7813 C1576.8125,1332.7813 1577,1332.75 1577.125,1332.6719 C1577.3906,1332.5156 1577.5313,1332.2344 1577.5313,1331.9375 C1577.5313,1331.6719 1577.4219,1331.4063 1577.1875,1331.2344 C1577.0156,1331.125 1576.875,1331.0938 1576.4219,1331.0938 L1571.2813,1331.0938 C1570.8438,1331.0938 1570.7188,1331.1094 1570.5625,1331.2031 C1570.3125,1331.3594 1570.1563,1331.6563 1570.1563,1331.9375 C1570.1563,1332.2188 1570.2969,1332.4688 1570.5156,1332.6406 C1570.6719,1332.75 1570.8594,1332.7813 1571.2813,1332.7813 L1573,1332.7813 L1573,1339.2969 L1571.2813,1339.2969 C1570.8438,1339.2969 1570.7188,1339.3125 1570.5625,1339.4219 C1570.3125,1339.5781 1570.1563,1339.8594 1570.1563,1340.1563 C1570.1563,1340.4063 1570.2969,1340.6719 1570.5156,1340.8281 C1570.6719,1340.9531 1570.875,1341 1571.2813,1341 L1576.4219,1341 C1577.1719,1341 1577.5313,1340.7188 1577.5313,1340.1563 C1577.5313,1339.875 1577.4219,1339.625 1577.1875,1339.4531 C1577.0156,1339.3281 1576.875,1339.2969 1576.4219,1339.2969 L1574.7031,1339.2969 L1574.7031,1332.7813 Z " fill="#000000"/><text fill="#000000" font-family="sans-serif" font-size="14" font-style="italic" lengthAdjust="spacing" textLength="74" x="1594.25" y="1340.8467">NPCDialog</text><line style="stroke:#181818;stroke-width:0.5;" x1="1480.5" x2="1749.5" y1="1352" y2="1352"/><text fill="#000000" font-family="sans-serif" font-size="14" lengthAdjust="spacing" textLength="259" x="1485.5" y="1368.9951">+dialogType: DialogType.NPCDialog</text><text fill="#000000" font-family="sans-serif" font-size="14" lengthAdjust="spacing" textLength="120" x="1485.5" y="1385.292">+speaker: string</text><text fill="#000000" font-family="sans-serif" font-size="14" lengthAdjust="spacing" textLength="93" x="1485.5" y="1401.5889">+text: string</text><text fill="#000000" font-family="sans-serif" font-size="14" lengthAdjust="spacing" textLength="105" x="1485.5" y="1417.8857">+next: Dialog?</text><line style="stroke:#181818;stroke-width:0.5;" x1="1480.5" x2="1749.5" y1="1425.1875" y2="1425.1875"/></g><!--class DialogChoice--><g id="elem_DialogChoice"><rect codeLine="64" fill="#F1F1F1" height="80.5938" id="DialogChoice" rx="2.5" ry="2.5" style="stroke:#181818;stroke-width:0.5;" width="199" x="1551.5" y="998"/><ellipse cx="1599.25" cy="1014" fill="#B4A7E5" rx="11" ry="11" style="stroke:#181818;stroke-width:1.0;"/><path d="M1600.2031,1010.7813 L1601.9219,1010.7813 C1602.3125,1010.7813 1602.5,1010.75 1602.625,1010.6719 C1602.8906,1010.5156 1603.0313,1010.2344 1603.0313,1009.9375 C1603.0313,1009.6719 1602.9219,1009.4063 1602.6875,1009.2344 C1602.5156,1009.125 1602.375,1009.0938 1601.9219,1009.0938 L1596.7813,1009.0938 C1596.3438,1009.0938 1596.2188,1009.1094 1596.0625,1009.2031 C1595.8125,1009.3594 1595.6563,1009.6563 1595.6563,1009.9375 C1595.6563,1010.2188 1595.7969,1010.4688 1596.0156,1010.6406 C1596.1719,1010.75 1596.3594,1010.7813 1596.7813,1010.7813 L1598.5,1010.7813 L1598.5,1017.2969 L1596.7813,1017.2969 C1596.3438,1017.2969 1596.2188,1017.3125 1596.0625,1017.4219 C1595.8125,1017.5781 1595.6563,1017.8594 1595.6563,1018.1563 C1595.6563,1018.4063 1595.7969,1018.6719 1596.0156,1018.8281 C1596.1719,1018.9531 1596.375,1019 1596.7813,1019 L1601.9219,1019 C1602.6719,1019 1603.0313,1018.7188 1603.0313,1018.1563 C1603.0313,1017.875 1602.9219,1017.625 1602.6875,1017.4531 C1602.5156,1017.3281 1602.375,1017.2969 1601.9219,1017.2969 L1600.2031,1017.2969 L1600.2031,1010.7813 Z " fill="#000000"/><text fill="#000000" font-family="sans-serif" font-size="14" font-style="italic" lengthAdjust="spacing" textLength="95" x="1619.75" y="1018.8467">DialogChoice</text><line style="stroke:#181818;stroke-width:0.5;" x1="1552.5" x2="1749.5" y1="1030" y2="1030"/><text fill="#000000" font-family="sans-serif" font-size="14" lengthAdjust="spacing" textLength="93" x="1557.5" y="1046.9951">+text: string</text><text fill="#000000" font-family="sans-serif" font-size="14" lengthAdjust="spacing" textLength="187" x="1557.5" y="1063.292">+onClick: Function&lt;void&gt;</text><line style="stroke:#181818;stroke-width:0.5;" x1="1552.5" x2="1749.5" y1="1070.5938" y2="1070.5938"/></g><!--class DialogHistoryEntry--><g id="elem_DialogHistoryEntry"><rect codeLine="69" fill="#F1F1F1" height="96.8906" id="DialogHistoryEntry" rx="2.5" ry="2.5" style="stroke:#181818;stroke-width:0.5;" width="165" x="1402.5" y="1163"/><ellipse cx="1417.5" cy="1179" fill="#B4A7E5" rx="11" ry="11" style="stroke:#181818;stroke-width:1.0;"/><path d="M1418.4531,1175.7813 L1420.1719,1175.7813 C1420.5625,1175.7813 1420.75,1175.75 1420.875,1175.6719 C1421.1406,1175.5156 1421.2813,1175.2344 1421.2813,1174.9375 C1421.2813,1174.6719 1421.1719,1174.4063 1420.9375,1174.2344 C1420.7656,1174.125 1420.625,1174.0938 1420.1719,1174.0938 L1415.0313,1174.0938 C1414.5938,1174.0938 1414.4688,1174.1094 1414.3125,1174.2031 C1414.0625,1174.3594 1413.9063,1174.6563 1413.9063,1174.9375 C1413.9063,1175.2188 1414.0469,1175.4688 1414.2656,1175.6406 C1414.4219,1175.75 1414.6094,1175.7813 1415.0313,1175.7813 L1416.75,1175.7813 L1416.75,1182.2969 L1415.0313,1182.2969 C1414.5938,1182.2969 1414.4688,1182.3125 1414.3125,1182.4219 C1414.0625,1182.5781 1413.9063,1182.8594 1413.9063,1183.1563 C1413.9063,1183.4063 1414.0469,1183.6719 1414.2656,1183.8281 C1414.4219,1183.9531 1414.625,1184 1415.0313,1184 L1420.1719,1184 C1420.9219,1184 1421.2813,1183.7188 1421.2813,1183.1563 C1421.2813,1182.875 1421.1719,1182.625 1420.9375,1182.4531 C1420.7656,1182.3281 1420.625,1182.2969 1420.1719,1182.2969 L1418.4531,1182.2969 L1418.4531,1175.7813 Z " fill="#000000"/><text fill="#000000" font-family="sans-serif" font-size="14" font-style="italic" lengthAdjust="spacing" textLength="133" x="1431.5" y="1183.8467">DialogHistoryEntry</text><line style="stroke:#181818;stroke-width:0.5;" x1="1403.5" x2="1566.5" y1="1195" y2="1195"/><text fill="#000000" font-family="sans-serif" font-size="14" lengthAdjust="spacing" textLength="120" x="1408.5" y="1211.9951">+speaker: string</text><text fill="#000000" font-family="sans-serif" font-size="14" lengthAdjust="spacing" textLength="133" x="1408.5" y="1228.292">+isPlayer: boolean</text><text fill="#000000" font-family="sans-serif" font-size="14" lengthAdjust="spacing" textLength="93" x="1408.5" y="1244.5889">+text: string</text><line style="stroke:#181818;stroke-width:0.5;" x1="1403.5" x2="1566.5" y1="1251.8906" y2="1251.8906"/></g><!--class Avatar--><g id="elem_Avatar"><rect codeLine="77" fill="#F1F1F1" height="64.2969" id="Avatar" rx="2.5" ry="2.5" style="stroke:#181818;stroke-width:0.5;" width="190" x="1063" y="42"/><ellipse cx="1130.25" cy="58" fill="#ADD1B2" rx="11" ry="11" style="stroke:#181818;stroke-width:1.0;"/><path d="M1132.5938,53.6719 C1131.6563,53.2344 1131.0625,53.0938 1130.1875,53.0938 C1127.5625,53.0938 1125.5625,55.1719 1125.5625,57.8906 L1125.5625,59.0156 C1125.5625,61.5938 1127.6719,63.4844 1130.5625,63.4844 C1131.7813,63.4844 1132.9375,63.1875 1133.6875,62.6406 C1134.2656,62.2344 1134.5938,61.7813 1134.5938,61.3906 C1134.5938,60.9375 1134.2031,60.5469 1133.7344,60.5469 C1133.5156,60.5469 1133.3125,60.625 1133.125,60.8125 C1132.6719,61.2969 1132.6719,61.2969 1132.4844,61.3906 C1132.0625,61.6563 1131.375,61.7813 1130.6094,61.7813 C1128.5625,61.7813 1127.2656,60.6875 1127.2656,58.9844 L1127.2656,57.8906 C1127.2656,56.1094 1128.5156,54.7969 1130.25,54.7969 C1130.8281,54.7969 1131.4375,54.9531 1131.9063,55.2031 C1132.3906,55.4844 1132.5625,55.7031 1132.6563,56.1094 C1132.7188,56.5156 1132.75,56.6406 1132.8906,56.7656 C1133.0313,56.9063 1133.2656,57.0156 1133.4844,57.0156 C1133.75,57.0156 1134.0156,56.875 1134.1875,56.6563 C1134.2969,56.5 1134.3281,56.3125 1134.3281,55.8906 L1134.3281,54.4688 C1134.3281,54.0313 1134.3125,53.9063 1134.2188,53.75 C1134.0625,53.4844 1133.7813,53.3438 1133.4844,53.3438 C1133.1875,53.3438 1132.9844,53.4375 1132.7656,53.75 L1132.5938,53.6719 Z " fill="#000000"/><text fill="#000000" font-family="sans-serif" font-size="14" lengthAdjust="spacing" textLength="47" x="1150.75" y="62.8467">Avatar</text><line style="stroke:#181818;stroke-width:0.5;" x1="1064" x2="1252" y1="74" y2="74"/><line style="stroke:#181818;stroke-width:0.5;" x1="1064" x2="1252" y1="82" y2="82"/><text fill="#000000" font-family="sans-serif" font-size="14" lengthAdjust="spacing" textLength="178" x="1069" y="98.9951">+render(): HTMLElement</text></g><!--class AppModel--><g id="elem_AppModel"><rect codeLine="83" fill="#F1F1F1" height="145.7813" id="AppModel" rx="2.5" ry="2.5" style="stroke:#181818;stroke-width:0.5;" width="180" x="768" y="680"/><ellipse cx="817.25" cy="696" fill="#ADD1B2" rx="11" ry="11" style="stroke:#181818;stroke-width:1.0;"/><path d="M819.5938,691.6719 C818.6563,691.2344 818.0625,691.0938 817.1875,691.0938 C814.5625,691.0938 812.5625,693.1719 812.5625,695.8906 L812.5625,697.0156 C812.5625,699.5938 814.6719,701.4844 817.5625,701.4844 C818.7813,701.4844 819.9375,701.1875 820.6875,700.6406 C821.2656,700.2344 821.5938,699.7813 821.5938,699.3906 C821.5938,698.9375 821.2031,698.5469 820.7344,698.5469 C820.5156,698.5469 820.3125,698.625 820.125,698.8125 C819.6719,699.2969 819.6719,699.2969 819.4844,699.3906 C819.0625,699.6563 818.375,699.7813 817.6094,699.7813 C815.5625,699.7813 814.2656,698.6875 814.2656,696.9844 L814.2656,695.8906 C814.2656,694.1094 815.5156,692.7969 817.25,692.7969 C817.8281,692.7969 818.4375,692.9531 818.9063,693.2031 C819.3906,693.4844 819.5625,693.7031 819.6563,694.1094 C819.7188,694.5156 819.75,694.6406 819.8906,694.7656 C820.0313,694.9063 820.2656,695.0156 820.4844,695.0156 C820.75,695.0156 821.0156,694.875 821.1875,694.6563 C821.2969,694.5 821.3281,694.3125 821.3281,693.8906 L821.3281,692.4688 C821.3281,692.0313 821.3125,691.9063 821.2188,691.75 C821.0625,691.4844 820.7813,691.3438 820.4844,691.3438 C820.1875,691.3438 819.9844,691.4375 819.7656,691.75 L819.5938,691.6719 Z " fill="#000000"/><text fill="#000000" font-family="sans-serif" font-size="14" lengthAdjust="spacing" textLength="73" x="837.75" y="700.8467">AppModel</text><line style="stroke:#181818;stroke-width:0.5;" x1="769" x2="947" y1="712" y2="712"/><text fill="#000000" font-family="sans-serif" font-size="14" lengthAdjust="spacing" textLength="130" x="774" y="728.9951">-_state: AppState</text><text fill="#000000" font-family="sans-serif" font-size="14" lengthAdjust="spacing" textLength="157" x="774" y="745.292">+get state: AppState</text><text fill="#000000" font-family="sans-serif" font-size="14" lengthAdjust="spacing" textLength="150" x="774" y="761.5889">-set state: AppState</text><line style="stroke:#181818;stroke-width:0.5;" x1="769" x2="947" y1="768.8906" y2="768.8906"/><text fill="#000000" font-family="sans-serif" font-size="14" lengthAdjust="spacing" textLength="137" x="774" y="785.8857">+startGame(): void</text><text fill="#000000" font-family="sans-serif" font-size="14" lengthAdjust="spacing" textLength="154" x="774" y="802.1826">+openOptions(): void</text><text fill="#000000" font-family="sans-serif" font-size="14" lengthAdjust="spacing" textLength="168" x="774" y="818.4795">+openMainMenu(): void</text></g><!--class GameModel--><g id="elem_GameModel"><rect codeLine="93" fill="#F1F1F1" height="292.4531" id="GameModel" rx="2.5" ry="2.5" style="stroke:#181818;stroke-width:0.5;" width="434" x="983" y="607"/><ellipse cx="1153.25" cy="623" fill="#ADD1B2" rx="11" ry="11" style="stroke:#181818;stroke-width:1.0;"/><path d="M1155.5938,618.6719 C1154.6563,618.2344 1154.0625,618.0938 1153.1875,618.0938 C1150.5625,618.0938 1148.5625,620.1719 1148.5625,622.8906 L1148.5625,624.0156 C1148.5625,626.5938 1150.6719,628.4844 1153.5625,628.4844 C1154.7813,628.4844 1155.9375,628.1875 1156.6875,627.6406 C1157.2656,627.2344 1157.5938,626.7813 1157.5938,626.3906 C1157.5938,625.9375 1157.2031,625.5469 1156.7344,625.5469 C1156.5156,625.5469 1156.3125,625.625 1156.125,625.8125 C1155.6719,626.2969 1155.6719,626.2969 1155.4844,626.3906 C1155.0625,626.6563 1154.375,626.7813 1153.6094,626.7813 C1151.5625,626.7813 1150.2656,625.6875 1150.2656,623.9844 L1150.2656,622.8906 C1150.2656,621.1094 1151.5156,619.7969 1153.25,619.7969 C1153.8281,619.7969 1154.4375,619.9531 1154.9063,620.2031 C1155.3906,620.4844 1155.5625,620.7031 1155.6563,621.1094 C1155.7188,621.5156 1155.75,621.6406 1155.8906,621.7656 C1156.0313,621.9063 1156.2656,622.0156 1156.4844,622.0156 C1156.75,622.0156 1157.0156,621.875 1157.1875,621.6563 C1157.2969,621.5 1157.3281,621.3125 1157.3281,620.8906 L1157.3281,619.4688 C1157.3281,619.0313 1157.3125,618.9063 1157.2188,618.75 C1157.0625,618.4844 1156.7813,618.3438 1156.4844,618.3438 C1156.1875,618.3438 1155.9844,618.4375 1155.7656,618.75 L1155.5938,618.6719 Z " fill="#000000"/><text fill="#000000" font-family="sans-serif" font-size="14" lengthAdjust="spacing" textLength="85" x="1173.75" y="627.8467">GameModel</text><line style="stroke:#181818;stroke-width:0.5;" x1="984" x2="1416" y1="639" y2="639"/><text fill="#000000" font-family="sans-serif" font-size="14" lengthAdjust="spacing" textLength="236" x="989" y="655.9951">-_endedChapters: Set&lt;number&gt;</text><text fill="#000000" font-family="sans-serif" font-size="14" lengthAdjust="spacing" textLength="138" x="989" y="672.292">-_chapter: Chapter</text><text fill="#000000" font-family="sans-serif" font-size="14" lengthAdjust="spacing" textLength="311" x="989" y="688.5889">-_dialogHistory: Array&lt;DialogHistoryEntry&gt;</text><text fill="#000000" font-family="sans-serif" font-size="14" lengthAdjust="spacing" textLength="172" x="989" y="704.8857">-_currentDialog: Dialog?</text><text fill="#000000" font-family="sans-serif" font-size="14" lengthAdjust="spacing" textLength="165" x="989" y="721.1826">+get chapter: Chapter</text><text fill="#000000" font-family="sans-serif" font-size="14" lengthAdjust="spacing" textLength="158" x="989" y="737.4795">-set chapter: Chapter</text><text fill="#000000" font-family="sans-serif" font-size="14" lengthAdjust="spacing" textLength="338" x="989" y="753.7764">+get dialogHistory: Array&lt;DialogHistoryEntry&gt;</text><text fill="#000000" font-family="sans-serif" font-size="14" lengthAdjust="spacing" textLength="331" x="989" y="770.0732">-set dialogHistory: Array&lt;DialogHistoryEntry&gt;</text><text fill="#000000" font-family="sans-serif" font-size="14" lengthAdjust="spacing" textLength="280" x="989" y="786.3701">+get currentDialog: Readonly&lt;Dialog&gt;</text><text fill="#000000" font-family="sans-serif" font-size="14" lengthAdjust="spacing" textLength="273" x="989" y="802.667">-set currentDialog: Readonly&lt;Dialog&gt;</text><text fill="#000000" font-family="sans-serif" font-size="14" lengthAdjust="spacing" textLength="177" x="989" y="818.9639">+get isFinished: boolean</text><line style="stroke:#181818;stroke-width:0.5;" x1="984" x2="1416" y1="826.2656" y2="826.2656"/><text fill="#000000" font-family="sans-serif" font-size="14" lengthAdjust="spacing" textLength="422" x="989" y="843.2607">+continueDialogAsync(nextDialog: Dialog): Promise&lt;void&gt;</text><text fill="#000000" font-family="sans-serif" font-size="14" lengthAdjust="spacing" textLength="98" x="989" y="859.5576">+reset(): void</text><text fill="#000000" font-family="sans-serif" font-size="14" lengthAdjust="spacing" textLength="171" x="989" y="875.8545">+initChapter(): boolean</text><text fill="#000000" font-family="sans-serif" font-size="14" lengthAdjust="spacing" textLength="368" x="989" y="892.1514">-pushDialogHistory(entry: DialogHistoryEntry): void</text></g><!--class MainMenuModel--><g id="elem_MainMenuModel"><rect codeLine="112" fill="#F1F1F1" height="48" id="MainMenuModel" rx="2.5" ry="2.5" style="stroke:#181818;stroke-width:0.5;" width="146" x="587" y="729"/><ellipse cx="602" cy="745" fill="#ADD1B2" rx="11" ry="11" style="stroke:#181818;stroke-width:1.0;"/><path d="M604.3438,740.6719 C603.4063,740.2344 602.8125,740.0938 601.9375,740.0938 C599.3125,740.0938 597.3125,742.1719 597.3125,744.8906 L597.3125,746.0156 C597.3125,748.5938 599.4219,750.4844 602.3125,750.4844 C603.5313,750.4844 604.6875,750.1875 605.4375,749.6406 C606.0156,749.2344 606.3438,748.7813 606.3438,748.3906 C606.3438,747.9375 605.9531,747.5469 605.4844,747.5469 C605.2656,747.5469 605.0625,747.625 604.875,747.8125 C604.4219,748.2969 604.4219,748.2969 604.2344,748.3906 C603.8125,748.6563 603.125,748.7813 602.3594,748.7813 C600.3125,748.7813 599.0156,747.6875 599.0156,745.9844 L599.0156,744.8906 C599.0156,743.1094 600.2656,741.7969 602,741.7969 C602.5781,741.7969 603.1875,741.9531 603.6563,742.2031 C604.1406,742.4844 604.3125,742.7031 604.4063,743.1094 C604.4688,743.5156 604.5,743.6406 604.6406,743.7656 C604.7813,743.9063 605.0156,744.0156 605.2344,744.0156 C605.5,744.0156 605.7656,743.875 605.9375,743.6563 C606.0469,743.5 606.0781,743.3125 606.0781,742.8906 L606.0781,741.4688 C606.0781,741.0313 606.0625,740.9063 605.9688,740.75 C605.8125,740.4844 605.5313,740.3438 605.2344,740.3438 C604.9375,740.3438 604.7344,740.4375 604.5156,740.75 L604.3438,740.6719 Z " fill="#000000"/><text fill="#000000" font-family="sans-serif" font-size="14" lengthAdjust="spacing" textLength="114" x="616" y="749.8467">MainMenuModel</text><line style="stroke:#181818;stroke-width:0.5;" x1="588" x2="732" y1="761" y2="761"/><line style="stroke:#181818;stroke-width:0.5;" x1="588" x2="732" y1="769" y2="769"/></g><!--class OptionsModel--><g id="elem_OptionsModel"><rect codeLine="113" fill="#F1F1F1" height="48" id="OptionsModel" rx="2.5" ry="2.5" style="stroke:#181818;stroke-width:0.5;" width="132" x="420" y="729"/><ellipse cx="435" cy="745" fill="#ADD1B2" rx="11" ry="11" style="stroke:#181818;stroke-width:1.0;"/><path d="M437.3438,740.6719 C436.4063,740.2344 435.8125,740.0938 434.9375,740.0938 C432.3125,740.0938 430.3125,742.1719 430.3125,744.8906 L430.3125,746.0156 C430.3125,748.5938 432.4219,750.4844 435.3125,750.4844 C436.5313,750.4844 437.6875,750.1875 438.4375,749.6406 C439.0156,749.2344 439.3438,748.7813 439.3438,748.3906 C439.3438,747.9375 438.9531,747.5469 438.4844,747.5469 C438.2656,747.5469 438.0625,747.625 437.875,747.8125 C437.4219,748.2969 437.4219,748.2969 437.2344,748.3906 C436.8125,748.6563 436.125,748.7813 435.3594,748.7813 C433.3125,748.7813 432.0156,747.6875 432.0156,745.9844 L432.0156,744.8906 C432.0156,743.1094 433.2656,741.7969 435,741.7969 C435.5781,741.7969 436.1875,741.9531 436.6563,742.2031 C437.1406,742.4844 437.3125,742.7031 437.4063,743.1094 C437.4688,743.5156 437.5,743.6406 437.6406,743.7656 C437.7813,743.9063 438.0156,744.0156 438.2344,744.0156 C438.5,744.0156 438.7656,743.875 438.9375,743.6563 C439.0469,743.5 439.0781,743.3125 439.0781,742.8906 L439.0781,741.4688 C439.0781,741.0313 439.0625,740.9063 438.9688,740.75 C438.8125,740.4844 438.5313,740.3438 438.2344,740.3438 C437.9375,740.3438 437.7344,740.4375 437.5156,740.75 L437.3438,740.6719 Z " fill="#000000"/><text fill="#000000" font-family="sans-serif" font-size="14" lengthAdjust="spacing" textLength="100" x="449" y="749.8467">OptionsModel</text><line style="stroke:#181818;stroke-width:0.5;" x1="421" x2="551" y1="761" y2="761"/><line style="stroke:#181818;stroke-width:0.5;" x1="421" x2="551" y1="769" y2="769"/></g><!--class AppViewModel--><g id="elem_AppViewModel"><rect codeLine="117" fill="#F1F1F1" height="80.5938" id="AppViewModel" rx="2.5" ry="2.5" style="stroke:#181818;stroke-width:0.5;" width="178" x="404" y="394"/><ellipse cx="436.55" cy="410" fill="#ADD1B2" rx="11" ry="11" style="stroke:#181818;stroke-width:1.0;"/><path d="M438.8938,405.6719 C437.9563,405.2344 437.3625,405.0938 436.4875,405.0938 C433.8625,405.0938 431.8625,407.1719 431.8625,409.8906 L431.8625,411.0156 C431.8625,413.5938 433.9719,415.4844 436.8625,415.4844 C438.0813,415.4844 439.2375,415.1875 439.9875,414.6406 C440.5656,414.2344 440.8938,413.7813 440.8938,413.3906 C440.8938,412.9375 440.5031,412.5469 440.0344,412.5469 C439.8156,412.5469 439.6125,412.625 439.425,412.8125 C438.9719,413.2969 438.9719,413.2969 438.7844,413.3906 C438.3625,413.6563 437.675,413.7813 436.9094,413.7813 C434.8625,413.7813 433.5656,412.6875 433.5656,410.9844 L433.5656,409.8906 C433.5656,408.1094 434.8156,406.7969 436.55,406.7969 C437.1281,406.7969 437.7375,406.9531 438.2063,407.2031 C438.6906,407.4844 438.8625,407.7031 438.9563,408.1094 C439.0188,408.5156 439.05,408.6406 439.1906,408.7656 C439.3313,408.9063 439.5656,409.0156 439.7844,409.0156 C440.05,409.0156 440.3156,408.875 440.4875,408.6563 C440.5969,408.5 440.6281,408.3125 440.6281,407.8906 L440.6281,406.4688 C440.6281,406.0313 440.6125,405.9063 440.5188,405.75 C440.3625,405.4844 440.0813,405.3438 439.7844,405.3438 C439.4875,405.3438 439.2844,405.4375 439.0656,405.75 L438.8938,405.6719 Z " fill="#000000"/><text fill="#000000" font-family="sans-serif" font-size="14" lengthAdjust="spacing" textLength="107" x="454.45" y="414.8467">AppViewModel</text><line style="stroke:#181818;stroke-width:0.5;" x1="405" x2="581" y1="426" y2="426"/><text fill="#000000" font-family="sans-serif" font-size="14" lengthAdjust="spacing" textLength="166" x="410" y="442.9951">-_appModel: AppModel</text><text fill="#000000" font-family="sans-serif" font-size="14" lengthAdjust="spacing" textLength="157" x="410" y="459.292">+get state: AppState</text><line style="stroke:#181818;stroke-width:0.5;" x1="405" x2="581" y1="466.5938" y2="466.5938"/></g><!--class GameViewModel--><g id="elem_GameViewModel"><rect codeLine="124" fill="#F1F1F1" height="194.6719" id="GameViewModel" rx="2.5" ry="2.5" style="stroke:#181818;stroke-width:0.5;" width="525" x="1003.5" y="337"/><ellipse cx="1202.25" cy="353" fill="#ADD1B2" rx="11" ry="11" style="stroke:#181818;stroke-width:1.0;"/><path d="M1204.5938,348.6719 C1203.6563,348.2344 1203.0625,348.0938 1202.1875,348.0938 C1199.5625,348.0938 1197.5625,350.1719 1197.5625,352.8906 L1197.5625,354.0156 C1197.5625,356.5938 1199.6719,358.4844 1202.5625,358.4844 C1203.7813,358.4844 1204.9375,358.1875 1205.6875,357.6406 C1206.2656,357.2344 1206.5938,356.7813 1206.5938,356.3906 C1206.5938,355.9375 1206.2031,355.5469 1205.7344,355.5469 C1205.5156,355.5469 1205.3125,355.625 1205.125,355.8125 C1204.6719,356.2969 1204.6719,356.2969 1204.4844,356.3906 C1204.0625,356.6563 1203.375,356.7813 1202.6094,356.7813 C1200.5625,356.7813 1199.2656,355.6875 1199.2656,353.9844 L1199.2656,352.8906 C1199.2656,351.1094 1200.5156,349.7969 1202.25,349.7969 C1202.8281,349.7969 1203.4375,349.9531 1203.9063,350.2031 C1204.3906,350.4844 1204.5625,350.7031 1204.6563,351.1094 C1204.7188,351.5156 1204.75,351.6406 1204.8906,351.7656 C1205.0313,351.9063 1205.2656,352.0156 1205.4844,352.0156 C1205.75,352.0156 1206.0156,351.875 1206.1875,351.6563 C1206.2969,351.5 1206.3281,351.3125 1206.3281,350.8906 L1206.3281,349.4688 C1206.3281,349.0313 1206.3125,348.9063 1206.2188,348.75 C1206.0625,348.4844 1205.7813,348.3438 1205.4844,348.3438 C1205.1875,348.3438 1204.9844,348.4375 1204.7656,348.75 L1204.5938,348.6719 Z " fill="#000000"/><text fill="#000000" font-family="sans-serif" font-size="14" lengthAdjust="spacing" textLength="119" x="1222.75" y="357.8467">GameViewModel</text><line style="stroke:#181818;stroke-width:0.5;" x1="1004.5" x2="1527.5" y1="369" y2="369"/><text fill="#000000" font-family="sans-serif" font-size="14" lengthAdjust="spacing" textLength="190" x="1009.5" y="385.9951">-_gameModel: GameModel</text><text fill="#000000" font-family="sans-serif" font-size="14" lengthAdjust="spacing" textLength="166" x="1009.5" y="402.292">-_appModel: AppModel</text><text fill="#000000" font-family="sans-serif" font-size="14" lengthAdjust="spacing" textLength="226" x="1009.5" y="418.5889">+nextChapter: Function&lt;void&gt;</text><text fill="#000000" font-family="sans-serif" font-size="14" lengthAdjust="spacing" textLength="207" x="1009.5" y="434.8857">+mainMenu: Function&lt;void&gt;</text><text fill="#000000" font-family="sans-serif" font-size="14" lengthAdjust="spacing" textLength="338" x="1009.5" y="451.1826">+get dialogHistory: Array&lt;DialogHistoryEntry&gt;</text><text fill="#000000" font-family="sans-serif" font-size="14" lengthAdjust="spacing" textLength="226" x="1009.5" y="467.4795">+get sceneTitle: Array&lt;string&gt;</text><text fill="#000000" font-family="sans-serif" font-size="14" lengthAdjust="spacing" textLength="434" x="1009.5" y="483.7764">+currentDialog: { speaker: string; choices: DialogChoice[]; }</text><text fill="#000000" font-family="sans-serif" font-size="14" lengthAdjust="spacing" textLength="148" x="1009.5" y="500.0732">+isFinished: boolean</text><line style="stroke:#181818;stroke-width:0.5;" x1="1004.5" x2="1527.5" y1="507.375" y2="507.375"/><text fill="#000000" font-family="sans-serif" font-size="14" lengthAdjust="spacing" textLength="513" x="1009.5" y="524.3701">-chapterEndInput(): { speaker: string; choices: Array&lt;DialogChoice&gt;; }</text></g><!--class MainMenuViewModel--><g id="elem_MainMenuViewModel"><rect codeLine="138" fill="#F1F1F1" height="129.4844" id="MainMenuViewModel" rx="2.5" ry="2.5" style="stroke:#181818;stroke-width:0.5;" width="351" x="617.5" y="370"/><ellipse cx="714.75" cy="386" fill="#ADD1B2" rx="11" ry="11" style="stroke:#181818;stroke-width:1.0;"/><path d="M717.0938,381.6719 C716.1563,381.2344 715.5625,381.0938 714.6875,381.0938 C712.0625,381.0938 710.0625,383.1719 710.0625,385.8906 L710.0625,387.0156 C710.0625,389.5938 712.1719,391.4844 715.0625,391.4844 C716.2813,391.4844 717.4375,391.1875 718.1875,390.6406 C718.7656,390.2344 719.0938,389.7813 719.0938,389.3906 C719.0938,388.9375 718.7031,388.5469 718.2344,388.5469 C718.0156,388.5469 717.8125,388.625 717.625,388.8125 C717.1719,389.2969 717.1719,389.2969 716.9844,389.3906 C716.5625,389.6563 715.875,389.7813 715.1094,389.7813 C713.0625,389.7813 711.7656,388.6875 711.7656,386.9844 L711.7656,385.8906 C711.7656,384.1094 713.0156,382.7969 714.75,382.7969 C715.3281,382.7969 715.9375,382.9531 716.4063,383.2031 C716.8906,383.4844 717.0625,383.7031 717.1563,384.1094 C717.2188,384.5156 717.25,384.6406 717.3906,384.7656 C717.5313,384.9063 717.7656,385.0156 717.9844,385.0156 C718.25,385.0156 718.5156,384.875 718.6875,384.6563 C718.7969,384.5 718.8281,384.3125 718.8281,383.8906 L718.8281,382.4688 C718.8281,382.0313 718.8125,381.9063 718.7188,381.75 C718.5625,381.4844 718.2813,381.3438 717.9844,381.3438 C717.6875,381.3438 717.4844,381.4375 717.2656,381.75 L717.0938,381.6719 Z " fill="#000000"/><text fill="#000000" font-family="sans-serif" font-size="14" lengthAdjust="spacing" textLength="148" x="735.25" y="390.8467">MainMenuViewModel</text><line style="stroke:#181818;stroke-width:0.5;" x1="618.5" x2="967.5" y1="402" y2="402"/><text fill="#000000" font-family="sans-serif" font-size="14" lengthAdjust="spacing" textLength="252" x="623.5" y="418.9951">-_mainMenuModel: MainMenuModel</text><text fill="#000000" font-family="sans-serif" font-size="14" lengthAdjust="spacing" textLength="190" x="623.5" y="435.292">-_gameModel: GameModel</text><text fill="#000000" font-family="sans-serif" font-size="14" lengthAdjust="spacing" textLength="166" x="623.5" y="451.5889">-_appModel: AppModel</text><text fill="#000000" font-family="sans-serif" font-size="14" lengthAdjust="spacing" textLength="322" x="623.5" y="467.8857">+startGame: MouseEventHandler&lt;Element&gt;</text><text fill="#000000" font-family="sans-serif" font-size="14" lengthAdjust="spacing" textLength="339" x="623.5" y="484.1826">+openOptions: MouseEventHandler&lt;Element&gt;</text><line style="stroke:#181818;stroke-width:0.5;" x1="618.5" x2="967.5" y1="491.4844" y2="491.4844"/></g><!--class OptionsViewModel--><g id="elem_OptionsViewModel"><rect codeLine="149" fill="#F1F1F1" height="96.8906" id="OptionsViewModel" rx="2.5" ry="2.5" style="stroke:#181818;stroke-width:0.5;" width="345" x="23.5" y="386"/><ellipse cx="124.75" cy="402" fill="#ADD1B2" rx="11" ry="11" style="stroke:#181818;stroke-width:1.0;"/><path d="M127.0938,397.6719 C126.1563,397.2344 125.5625,397.0938 124.6875,397.0938 C122.0625,397.0938 120.0625,399.1719 120.0625,401.8906 L120.0625,403.0156 C120.0625,405.5938 122.1719,407.4844 125.0625,407.4844 C126.2813,407.4844 127.4375,407.1875 128.1875,406.6406 C128.7656,406.2344 129.0938,405.7813 129.0938,405.3906 C129.0938,404.9375 128.7031,404.5469 128.2344,404.5469 C128.0156,404.5469 127.8125,404.625 127.625,404.8125 C127.1719,405.2969 127.1719,405.2969 126.9844,405.3906 C126.5625,405.6563 125.875,405.7813 125.1094,405.7813 C123.0625,405.7813 121.7656,404.6875 121.7656,402.9844 L121.7656,401.8906 C121.7656,400.1094 123.0156,398.7969 124.75,398.7969 C125.3281,398.7969 125.9375,398.9531 126.4063,399.2031 C126.8906,399.4844 127.0625,399.7031 127.1563,400.1094 C127.2188,400.5156 127.25,400.6406 127.3906,400.7656 C127.5313,400.9063 127.7656,401.0156 127.9844,401.0156 C128.25,401.0156 128.5156,400.875 128.6875,400.6563 C128.7969,400.5 128.8281,400.3125 128.8281,399.8906 L128.8281,398.4688 C128.8281,398.0313 128.8125,397.9063 128.7188,397.75 C128.5625,397.4844 128.2813,397.3438 127.9844,397.3438 C127.6875,397.3438 127.4844,397.4375 127.2656,397.75 L127.0938,397.6719 Z " fill="#000000"/><text fill="#000000" font-family="sans-serif" font-size="14" lengthAdjust="spacing" textLength="134" x="145.25" y="406.8467">OptionsViewModel</text><line style="stroke:#181818;stroke-width:0.5;" x1="24.5" x2="367.5" y1="418" y2="418"/><text fill="#000000" font-family="sans-serif" font-size="14" lengthAdjust="spacing" textLength="220" x="29.5" y="434.9951">-_optionsModel: OptionsModel</text><text fill="#000000" font-family="sans-serif" font-size="14" lengthAdjust="spacing" textLength="166" x="29.5" y="451.292">-_appModel: AppModel</text><text fill="#000000" font-family="sans-serif" font-size="14" lengthAdjust="spacing" textLength="333" x="29.5" y="467.5889">+onClickBack: MouseEventHandler&lt;Element&gt;</text><line style="stroke:#181818;stroke-width:0.5;" x1="24.5" x2="367.5" y1="474.8906" y2="474.8906"/></g><!--class AppView--><g id="elem_AppView"><rect codeLine="158" fill="#F1F1F1" height="80.5938" id="AppView" rx="2.5" ry="2.5" style="stroke:#181818;stroke-width:0.5;" width="246" x="375" y="181"/><ellipse cx="461.75" cy="197" fill="#ADD1B2" rx="11" ry="11" style="stroke:#181818;stroke-width:1.0;"/><path d="M464.0938,192.6719 C463.1563,192.2344 462.5625,192.0938 461.6875,192.0938 C459.0625,192.0938 457.0625,194.1719 457.0625,196.8906 L457.0625,198.0156 C457.0625,200.5938 459.1719,202.4844 462.0625,202.4844 C463.2813,202.4844 464.4375,202.1875 465.1875,201.6406 C465.7656,201.2344 466.0938,200.7813 466.0938,200.3906 C466.0938,199.9375 465.7031,199.5469 465.2344,199.5469 C465.0156,199.5469 464.8125,199.625 464.625,199.8125 C464.1719,200.2969 464.1719,200.2969 463.9844,200.3906 C463.5625,200.6563 462.875,200.7813 462.1094,200.7813 C460.0625,200.7813 458.7656,199.6875 458.7656,197.9844 L458.7656,196.8906 C458.7656,195.1094 460.0156,193.7969 461.75,193.7969 C462.3281,193.7969 462.9375,193.9531 463.4063,194.2031 C463.8906,194.4844 464.0625,194.7031 464.1563,195.1094 C464.2188,195.5156 464.25,195.6406 464.3906,195.7656 C464.5313,195.9063 464.7656,196.0156 464.9844,196.0156 C465.25,196.0156 465.5156,195.875 465.6875,195.6563 C465.7969,195.5 465.8281,195.3125 465.8281,194.8906 L465.8281,193.4688 C465.8281,193.0313 465.8125,192.9063 465.7188,192.75 C465.5625,192.4844 465.2813,192.3438 464.9844,192.3438 C464.6875,192.3438 464.4844,192.4375 464.2656,192.75 L464.0938,192.6719 Z " fill="#000000"/><text fill="#000000" font-family="sans-serif" font-size="14" lengthAdjust="spacing" textLength="64" x="482.25" y="201.8467">AppView</text><line style="stroke:#181818;stroke-width:0.5;" x1="376" x2="620" y1="213" y2="213"/><text fill="#000000" font-family="sans-serif" font-size="14" lengthAdjust="spacing" textLength="234" x="381" y="229.9951">-_appViewModel: AppViewModel</text><line style="stroke:#181818;stroke-width:0.5;" x1="376" x2="620" y1="237.2969" y2="237.2969"/><text fill="#000000" font-family="sans-serif" font-size="14" lengthAdjust="spacing" textLength="178" x="381" y="254.292">+render(): HTMLElement</text></g><!--class GameView--><g id="elem_GameView"><rect codeLine="164" fill="#F1F1F1" height="80.5938" id="GameView" rx="2.5" ry="2.5" style="stroke:#181818;stroke-width:0.5;" width="270" x="1023" y="181"/><ellipse cx="1115.75" cy="197" fill="#ADD1B2" rx="11" ry="11" style="stroke:#181818;stroke-width:1.0;"/><path d="M1118.0938,192.6719 C1117.1563,192.2344 1116.5625,192.0938 1115.6875,192.0938 C1113.0625,192.0938 1111.0625,194.1719 1111.0625,196.8906 L1111.0625,198.0156 C1111.0625,200.5938 1113.1719,202.4844 1116.0625,202.4844 C1117.2813,202.4844 1118.4375,202.1875 1119.1875,201.6406 C1119.7656,201.2344 1120.0938,200.7813 1120.0938,200.3906 C1120.0938,199.9375 1119.7031,199.5469 1119.2344,199.5469 C1119.0156,199.5469 1118.8125,199.625 1118.625,199.8125 C1118.1719,200.2969 1118.1719,200.2969 1117.9844,200.3906 C1117.5625,200.6563 1116.875,200.7813 1116.1094,200.7813 C1114.0625,200.7813 1112.7656,199.6875 1112.7656,197.9844 L1112.7656,196.8906 C1112.7656,195.1094 1114.0156,193.7969 1115.75,193.7969 C1116.3281,193.7969 1116.9375,193.9531 1117.4063,194.2031 C1117.8906,194.4844 1118.0625,194.7031 1118.1563,195.1094 C1118.2188,195.5156 1118.25,195.6406 1118.3906,195.7656 C1118.5313,195.9063 1118.7656,196.0156 1118.9844,196.0156 C1119.25,196.0156 1119.5156,195.875 1119.6875,195.6563 C1119.7969,195.5 1119.8281,195.3125 1119.8281,194.8906 L1119.8281,193.4688 C1119.8281,193.0313 1119.8125,192.9063 1119.7188,192.75 C1119.5625,192.4844 1119.2813,192.3438 1118.9844,192.3438 C1118.6875,192.3438 1118.4844,192.4375 1118.2656,192.75 L1118.0938,192.6719 Z " fill="#000000"/><text fill="#000000" font-family="sans-serif" font-size="14" lengthAdjust="spacing" textLength="76" x="1136.25" y="201.8467">GameView</text><line style="stroke:#181818;stroke-width:0.5;" x1="1024" x2="1292" y1="213" y2="213"/><text fill="#000000" font-family="sans-serif" font-size="14" lengthAdjust="spacing" textLength="258" x="1029" y="229.9951">-_gameViewModel: GameViewModel</text><line style="stroke:#181818;stroke-width:0.5;" x1="1024" x2="1292" y1="237.2969" y2="237.2969"/><text fill="#000000" font-family="sans-serif" font-size="14" lengthAdjust="spacing" textLength="178" x="1029" y="254.292">+render(): HTMLElement</text></g><!--class MainMenuView--><g id="elem_MainMenuView"><rect codeLine="171" fill="#F1F1F1" height="80.5938" id="MainMenuView" rx="2.5" ry="2.5" style="stroke:#181818;stroke-width:0.5;" width="332" x="656" y="181"/><ellipse cx="765.25" cy="197" fill="#ADD1B2" rx="11" ry="11" style="stroke:#181818;stroke-width:1.0;"/><path d="M767.5938,192.6719 C766.6563,192.2344 766.0625,192.0938 765.1875,192.0938 C762.5625,192.0938 760.5625,194.1719 760.5625,196.8906 L760.5625,198.0156 C760.5625,200.5938 762.6719,202.4844 765.5625,202.4844 C766.7813,202.4844 767.9375,202.1875 768.6875,201.6406 C769.2656,201.2344 769.5938,200.7813 769.5938,200.3906 C769.5938,199.9375 769.2031,199.5469 768.7344,199.5469 C768.5156,199.5469 768.3125,199.625 768.125,199.8125 C767.6719,200.2969 767.6719,200.2969 767.4844,200.3906 C767.0625,200.6563 766.375,200.7813 765.6094,200.7813 C763.5625,200.7813 762.2656,199.6875 762.2656,197.9844 L762.2656,196.8906 C762.2656,195.1094 763.5156,193.7969 765.25,193.7969 C765.8281,193.7969 766.4375,193.9531 766.9063,194.2031 C767.3906,194.4844 767.5625,194.7031 767.6563,195.1094 C767.7188,195.5156 767.75,195.6406 767.8906,195.7656 C768.0313,195.9063 768.2656,196.0156 768.4844,196.0156 C768.75,196.0156 769.0156,195.875 769.1875,195.6563 C769.2969,195.5 769.3281,195.3125 769.3281,194.8906 L769.3281,193.4688 C769.3281,193.0313 769.3125,192.9063 769.2188,192.75 C769.0625,192.4844 768.7813,192.3438 768.4844,192.3438 C768.1875,192.3438 767.9844,192.4375 767.7656,192.75 L767.5938,192.6719 Z " fill="#000000"/><text fill="#000000" font-family="sans-serif" font-size="14" lengthAdjust="spacing" textLength="105" x="785.75" y="201.8467">MainMenuView</text><line style="stroke:#181818;stroke-width:0.5;" x1="657" x2="987" y1="213" y2="213"/><text fill="#000000" font-family="sans-serif" font-size="14" lengthAdjust="spacing" textLength="320" x="662" y="229.9951">-_mainMenuViewModel: MainMenuViewModel</text><line style="stroke:#181818;stroke-width:0.5;" x1="657" x2="987" y1="237.2969" y2="237.2969"/><text fill="#000000" font-family="sans-serif" font-size="14" lengthAdjust="spacing" textLength="178" x="662" y="254.292">+render(): HTMLElement</text></g><!--class OptionsView--><g id="elem_OptionsView"><rect codeLine="177" fill="#F1F1F1" height="80.5938" id="OptionsView" rx="2.5" ry="2.5" style="stroke:#181818;stroke-width:0.5;" width="300" x="40" y="181"/><ellipse cx="140.25" cy="197" fill="#ADD1B2" rx="11" ry="11" style="stroke:#181818;stroke-width:1.0;"/><path d="M142.5938,192.6719 C141.6563,192.2344 141.0625,192.0938 140.1875,192.0938 C137.5625,192.0938 135.5625,194.1719 135.5625,196.8906 L135.5625,198.0156 C135.5625,200.5938 137.6719,202.4844 140.5625,202.4844 C141.7813,202.4844 142.9375,202.1875 143.6875,201.6406 C144.2656,201.2344 144.5938,200.7813 144.5938,200.3906 C144.5938,199.9375 144.2031,199.5469 143.7344,199.5469 C143.5156,199.5469 143.3125,199.625 143.125,199.8125 C142.6719,200.2969 142.6719,200.2969 142.4844,200.3906 C142.0625,200.6563 141.375,200.7813 140.6094,200.7813 C138.5625,200.7813 137.2656,199.6875 137.2656,197.9844 L137.2656,196.8906 C137.2656,195.1094 138.5156,193.7969 140.25,193.7969 C140.8281,193.7969 141.4375,193.9531 141.9063,194.2031 C142.3906,194.4844 142.5625,194.7031 142.6563,195.1094 C142.7188,195.5156 142.75,195.6406 142.8906,195.7656 C143.0313,195.9063 143.2656,196.0156 143.4844,196.0156 C143.75,196.0156 144.0156,195.875 144.1875,195.6563 C144.2969,195.5 144.3281,195.3125 144.3281,194.8906 L144.3281,193.4688 C144.3281,193.0313 144.3125,192.9063 144.2188,192.75 C144.0625,192.4844 143.7813,192.3438 143.4844,192.3438 C143.1875,192.3438 142.9844,192.4375 142.7656,192.75 L142.5938,192.6719 Z " fill="#000000"/><text fill="#000000" font-family="sans-serif" font-size="14" lengthAdjust="spacing" textLength="91" x="160.75" y="201.8467">OptionsView</text><line style="stroke:#181818;stroke-width:0.5;" x1="41" x2="339" y1="213" y2="213"/><text fill="#000000" font-family="sans-serif" font-size="14" lengthAdjust="spacing" textLength="288" x="46" y="229.9951">-_optionsViewModel: OptionsViewModel</text><line style="stroke:#181818;stroke-width:0.5;" x1="41" x2="339" y1="237.2969" y2="237.2969"/><text fill="#000000" font-family="sans-serif" font-size="14" lengthAdjust="spacing" textLength="178" x="46" y="254.292">+render(): HTMLElement</text></g><!--link Chapter to Tag--><g id="link_Chapter_Tag"><path codeLine="29" d="M1227.6,1095.019 C1240.59,1121.167 1255.72,1151.598 1267.18,1174.656 " fill="none" id="Chapter-to-Tag" style="stroke:#181818;stroke-width:1.0;"/><polygon fill="#181818" points="1269.42,1179.166,1269.0029,1169.326,1267.1976,1174.687,1261.8366,1172.8818,1269.42,1179.166" style="stroke:#181818;stroke-width:1.0;"/><text fill="#000000" font-family="sans-serif" font-size="13" lengthAdjust="spacing" textLength="8" x="1257.5652" y="1168.3744">1</text></g><!--reverse link Chapter to Dialog--><g id="link_Chapter_Dialog"><path codeLine="30" d="M1150.46,1105.679 C1131.54,1130.956 1110.84,1158.611 1095.46,1179.166 " fill="none" id="Chapter-backto-Dialog" style="stroke:#181818;stroke-width:1.0;"/><polygon fill="none" points="1158.44,1095.019,1151.6415,1097.4232,1151.2459,1104.6234,1158.0444,1102.2192,1158.44,1095.019" style="stroke:#181818;stroke-width:1.0;"/></g><!--reverse link Dialog to NarratorDialog--><g id="link_Dialog_NarratorDialog"><path d="M1010.32,1256.281 C983.313,1278.395 952.401,1305.262 927.905,1327.89 " fill="none" id="Dialog-backto-NarratorDialog" style="stroke:#181818;stroke-width:1.0;"/><polygon fill="none" points="1006.16,1250.648,1026.12,1243.543,1014.95,1261.546,1006.16,1250.648" style="stroke:#181818;stroke-width:1.0;"/></g><!--reverse link NarratorDialog to Dialog--><g id="link_NarratorDialog_Dialog"><path codeLine="41" d="M962.223,1319.431 C992.61,1294.024 1025.29,1264.954 1047.26,1243.543 " fill="none" id="NarratorDialog-backto-Dialog" style="stroke:#181818;stroke-width:1.0;"/><polygon fill="none" points="952.024,1327.89,959.1959,1327.139,961.2611,1320.23,954.0892,1320.981,952.024,1327.89" style="stroke:#181818;stroke-width:1.0;"/></g><!--reverse link Dialog to PlayerDialog--><g id="link_Dialog_PlayerDialog"><path d="M1062.43,1263.922 C1058.11,1326.63 1058.19,1431.781 1062.69,1492.768 " fill="none" id="Dialog-backto-PlayerDialog" style="stroke:#181818;stroke-width:1.0;"/><polygon fill="none" points="1055.48,1262.993,1064.14,1243.653,1069.43,1264.171,1055.48,1262.993" style="stroke:#181818;stroke-width:1.0;"/></g><!--reverse link PlayerDialog to Dialog--><g id="link_PlayerDialog_Dialog"><path codeLine="48" d="M1082.79,1479.367 C1087.09,1409.426 1086.27,1297.623 1080.32,1243.653 " fill="none" id="PlayerDialog-backto-Dialog" style="stroke:#181818;stroke-width:1.0;"/><polygon fill="none" points="1081.86,1492.768,1086.2657,1487.0593,1082.6906,1480.7968,1078.2849,1486.5055,1081.86,1492.768" style="stroke:#181818;stroke-width:1.0;"/></g><!--reverse link Dialog to PlayerOptionDialog--><g id="link_Dialog_PlayerOptionDialog"><path d="M1126.77,1256.259 C1157.8,1281.055 1196.32,1311.834 1226.45,1335.909 " fill="none" id="Dialog-backto-PlayerOptionDialog" style="stroke:#181818;stroke-width:1.0;"/><polygon fill="none" points="1122.11,1261.496,1110.85,1243.543,1130.85,1250.559,1122.11,1261.496" style="stroke:#181818;stroke-width:1.0;"/></g><!--reverse link PlayerOptionDialog to PlayerDialog--><g id="link_PlayerOptionDialog_PlayerDialog"><path codeLine="54" d="M1216.04,1425.413 C1189.45,1446.655 1158.25,1471.588 1131.69,1492.805 " fill="none" id="PlayerOptionDialog-backto-PlayerDialog" style="stroke:#181818;stroke-width:1.0;"/><polygon fill="none" points="1226.36,1417.166,1219.1756,1417.7858,1216.9844,1424.6559,1224.1689,1424.0361,1226.36,1417.166" style="stroke:#181818;stroke-width:1.0;"/></g><!--reverse link Dialog to NPCDialog--><g id="link_Dialog_NPCDialog"><path d="M1142.48,1251.099 C1150.98,1254.321 1159.61,1257.352 1168,1260 C1288.13,1297.901 1323.96,1285.11 1445,1320 C1456.13,1323.209 1467.62,1326.813 1479.14,1330.605 " fill="none" id="Dialog-backto-NPCDialog" style="stroke:#181818;stroke-width:1.0;"/><polygon fill="none" points="1139.62,1257.496,1123.65,1243.573,1144.82,1244.495,1139.62,1257.496" style="stroke:#181818;stroke-width:1.0;"/></g><!--reverse link NPCDialog to Dialog--><g id="link_NPCDialog_Dialog"><path codeLine="62" d="M1466.88,1316.311 C1356.19,1285.989 1318.68,1296.496 1203,1260 C1188.29,1255.358 1172.84,1249.535 1157.86,1243.573 " fill="none" id="NPCDialog-backto-Dialog" style="stroke:#181818;stroke-width:1.0;"/><polygon fill="none" points="1479.65,1319.898,1474.9547,1314.4249,1468.0968,1316.654,1472.7921,1322.1271,1479.65,1319.898" style="stroke:#181818;stroke-width:1.0;"/></g><!--link AppModel to AppState--><g id="link_AppModel_AppState"><path codeLine="91" d="M851.627,826.273 C847.267,875.715 841.586,940.14 837.649,984.777 " fill="none" id="AppModel-to-AppState" style="stroke:#181818;stroke-width:1.0;"/><polygon fill="#181818" points="837.202,989.847,841.9784,981.2338,837.6419,984.8664,834.0094,980.53,837.202,989.847" style="stroke:#181818;stroke-width:1.0;"/><text fill="#000000" font-family="sans-serif" font-size="13" lengthAdjust="spacing" textLength="8" x="829.2304" y="979.0344">1</text></g><!--reverse link GameModel to Chapter--><g id="link_GameModel_Chapter"><path codeLine="110" d="M1200,912.147 C1200,937.061 1200,961.291 1200,981.701 " fill="none" id="GameModel-backto-Chapter" style="stroke:#181818;stroke-width:1.0;"/><polygon fill="#181818" points="1200,899.072,1196,905.072,1200,911.072,1204,905.072,1200,899.072" style="stroke:#181818;stroke-width:1.0;"/><text fill="#000000" font-family="sans-serif" font-size="13" lengthAdjust="spacing" textLength="8" x="1191.5125" y="970.9281">1</text></g><!--reverse link AppViewModel to AppModel--><g id="link_AppViewModel_AppModel"><path codeLine="121" d="M523.575,485.87 C542.193,511.68 568.463,540.81 600,556 C630.072,570.49 721.565,546.51 750,564 C792.004,589.83 819.3,638.453 835.942,679.779 " fill="none" id="AppViewModel-backto-AppModel" style="stroke:#181818;stroke-width:1.0;"/><polygon fill="#181818" points="516.071,475.06,516.2073,482.2698,522.9149,484.917,522.7786,477.7072,516.071,475.06" style="stroke:#181818;stroke-width:1.0;"/><text fill="#000000" font-family="sans-serif" font-size="13" lengthAdjust="spacing" textLength="8" x="825.3769" y="668.9172">1</text></g><!--link AppViewModel to AppState--><g id="link_AppViewModel_AppState"><path codeLine="122" d="M456.04,475.16 C436.437,498.97 414.32,530.97 404,564 C356.41,716.293 306.807,796.464 404,923 C450.135,983.064 678.202,1018.381 781.726,1031.553 " fill="none" id="AppViewModel-AppState" style="stroke:#181818;stroke-width:1.0;"/><text fill="#000000" font-family="sans-serif" font-size="13" lengthAdjust="spacing" textLength="8" x="765.9531" y="1026.6053">1</text></g><!--reverse link GameViewModel to GameModel--><g id="link_GameViewModel_GameModel"><path codeLine="135" d="M1243.14,545.11 C1238.98,565.07 1234.58,586.17 1230.24,606.96 " fill="none" id="GameViewModel-backto-GameModel" style="stroke:#181818;stroke-width:1.0;"/><polygon fill="#181818" points="1245.84,532.18,1240.6983,537.236,1243.3878,543.9268,1248.5295,538.8708,1245.84,532.18" style="stroke:#181818;stroke-width:1.0;"/><text fill="#000000" font-family="sans-serif" font-size="13" lengthAdjust="spacing" textLength="8" x="1223.593" y="596.1017">1</text></g><!--reverse link GameViewModel to AppModel--><g id="link_GameViewModel_AppModel"><path codeLine="136" d="M1031.61,537.24 C1016.2,543.66 1000.9,549.96 986,556 C976.744,559.75 972.583,557.5 965,564 C929.074,594.8 902.592,640.821 884.961,679.622 " fill="none" id="GameViewModel-backto-AppModel" style="stroke:#181818;stroke-width:1.0;"/><polygon fill="#181818" points="1043.98,532.07,1036.9017,530.6926,1032.9078,536.6966,1039.9861,538.0741,1043.98,532.07" style="stroke:#181818;stroke-width:1.0;"/><text fill="#000000" font-family="sans-serif" font-size="13" lengthAdjust="spacing" textLength="8" x="879.1495" y="668.997">1</text></g><!--reverse link MainMenuViewModel to MainMenuModel--><g id="link_MainMenuViewModel_MainMenuModel"><path codeLine="145" d="M761.026,511.59 C731.236,582.48 688.654,683.813 669.719,728.872 " fill="none" id="MainMenuViewModel-backto-MainMenuModel" style="stroke:#181818;stroke-width:1.0;"/><polygon fill="#181818" points="766.245,499.17,760.2312,503.1492,761.5913,510.2309,767.6051,506.2517,766.245,499.17" style="stroke:#181818;stroke-width:1.0;"/><text fill="#000000" font-family="sans-serif" font-size="13" lengthAdjust="spacing" textLength="8" x="663.1845" y="717.8512">1</text></g><!--reverse link MainMenuViewModel to GameModel--><g id="link_MainMenuViewModel_GameModel"><path codeLine="146" d="M890.021,507.11 C914.604,525.49 940.875,545.35 965,564 C982.877,577.82 1001.42,592.34 1019.9,606.92 " fill="none" id="MainMenuViewModel-backto-GameModel" style="stroke:#181818;stroke-width:1.0;"/><polygon fill="#181818" points="879.6,499.33,882.014,506.125,889.2149,506.5101,886.8008,499.7151,879.6,499.33" style="stroke:#181818;stroke-width:1.0;"/><text fill="#000000" font-family="sans-serif" font-size="13" lengthAdjust="spacing" textLength="8" x="1002.4073" y="596.0597">1</text></g><!--reverse link MainMenuViewModel to AppModel--><g id="link_MainMenuViewModel_AppModel"><path codeLine="147" d="M808.735,512.12 C819.216,563.15 832.9,629.781 843.185,679.864 " fill="none" id="MainMenuViewModel-backto-AppModel" style="stroke:#181818;stroke-width:1.0;"/><polygon fill="#181818" points="806.076,499.17,803.3643,505.8518,808.4892,510.9248,811.2009,504.243,806.076,499.17" style="stroke:#181818;stroke-width:1.0;"/><text fill="#000000" font-family="sans-serif" font-size="13" lengthAdjust="spacing" textLength="8" x="842.1204" y="669.0106">1</text></g><!--reverse link OptionsViewModel to OptionsModel--><g id="link_OptionsViewModel_OptionsModel"><path codeLine="154" d="M248.56,492.86 C313.192,563.4 419.85,679.805 464.888,728.959 " fill="none" id="OptionsViewModel-backto-OptionsModel" style="stroke:#181818;stroke-width:1.0;"/><polygon fill="#181818" points="239.73,483.23,240.83,490.3567,247.8316,492.0824,246.7316,484.9557,239.73,483.23" style="stroke:#181818;stroke-width:1.0;"/><text fill="#000000" font-family="sans-serif" font-size="13" lengthAdjust="spacing" textLength="8" x="450.453" y="717.9605">1</text></g><!--reverse link AppView to AppViewModel--><g id="link_AppView_AppViewModel"><path codeLine="162" d="M496.751,275.19 C495.878,312.03 494.731,360.45 493.936,393.99 " fill="none" id="AppView-backto-AppViewModel" style="stroke:#181818;stroke-width:1.0;"/><polygon fill="#181818" points="497.06,262.19,492.9226,268.0961,496.7831,274.1868,500.9205,268.2807,497.06,262.19" style="stroke:#181818;stroke-width:1.0;"/><text fill="#000000" font-family="sans-serif" font-size="13" lengthAdjust="spacing" textLength="8" x="485.4094" y="382.8515">1</text></g><!--reverse link GameView to GameViewModel--><g id="link_GameView_GameViewModel"><path codeLine="168" d="M1184.28,273.84 C1193.98,292.79 1205.31,314.93 1216.4,336.59 " fill="none" id="GameView-backto-GameViewModel" style="stroke:#181818;stroke-width:1.0;"/><polygon fill="#181818" points="1178.31,262.19,1177.4789,269.3531,1183.7713,272.8752,1184.6024,265.7122,1178.31,262.19" style="stroke:#181818;stroke-width:1.0;"/><text fill="#000000" font-family="sans-serif" font-size="13" lengthAdjust="spacing" textLength="8" x="1204.4638" y="325.9328">1</text></g><!--link Avatar to GameView--><g id="link_Avatar_GameView"><path codeLine="169" d="M1158,106.21 C1158,124.09 1158,147 1158,167.61 " fill="none" id="Avatar-to-GameView" style="stroke:#181818;stroke-width:1.0;"/><polygon fill="#181818" points="1158,180.74,1162,174.74,1158,168.74,1154,174.74,1158,180.74" style="stroke:#181818;stroke-width:1.0;"/><text fill="#000000" font-family="sans-serif" font-size="13" lengthAdjust="spacing" textLength="23" x="1132.6281" y="126.4502">1..*</text><text fill="#000000" font-family="sans-serif" font-size="13" lengthAdjust="spacing" textLength="8" x="1149.3375" y="169.8585">1</text></g><!--reverse link MainMenuView to MainMenuViewModel--><g id="link_MainMenuView_MainMenuViewModel"><path codeLine="175" d="M814.75,275.25 C810.803,303.97 805.892,339.7 801.736,369.94 " fill="none" id="MainMenuView-backto-MainMenuViewModel" style="stroke:#181818;stroke-width:1.0;"/><polygon fill="#181818" points="816.545,262.19,811.7647,267.589,814.9098,274.0781,819.6901,268.6791,816.545,262.19" style="stroke:#181818;stroke-width:1.0;"/><text fill="#000000" font-family="sans-serif" font-size="13" lengthAdjust="spacing" textLength="8" x="794.254" y="359.1061">1</text></g><!--reverse link OptionsView to OptionsViewModel--><g id="link_OptionsView_OptionsViewModel"><path codeLine="181" d="M191.51,275.6 C192.474,309.5 193.713,353.08 194.645,385.86 " fill="none" id="OptionsView-backto-OptionsViewModel" style="stroke:#181818;stroke-width:1.0;"/><polygon fill="#181818" points="191.129,262.19,187.3021,268.3018,191.4719,274.1851,195.2988,268.0733,191.129,262.19" style="stroke:#181818;stroke-width:1.0;"/><text fill="#000000" font-family="sans-serif" font-size="13" lengthAdjust="spacing" textLength="8" x="185.892" y="375.0492">1</text></g><!--SRC=[fLRRRjiu47ttLn1vIcCesBogXWklrxa0jMEitRuKHS58KvcmH0eabTPR-5_wBVjbIzs74kKuMRs97CwScJbdIBLdFAMI9YI8gL8phILxoZGy189ls3z0_XYfnYIbmPv6iD6768Y4G5CUnJ0QLUj47r9GvDU8c0zubf1PccuqrL2jvTzozh3wjboiFZKhvlzkjbmq_u_hxSFZQbFy7qUjixyOZKMqDJ6GknMLaceXoyrcUHtJ0xWN7rFD1EzihTRppifyHrCDSi737f0jZH22aAczP0dZ36J68sMAS8EFC6xSVAS1r2xHsR5cEWQVA5DrtiOUfmNI_hgcaVB9pAHyc1WKat9_EcqjTa33CXEVe8oE8vGJyRmfkRYvo1EnreNdrOSwqCjLZ3nikk6ZphWJjvj4uAS67ggpdLuFD7ciZQT-aNYnMjf-GDbtK0mdYydpUh1EwhqIgeNW9Q2Oq6-5wnJ5EDW95a33E8ngsaDhmSWnMuNeCgBMsnl8q9FgMAL0zqwzl8uW3QYNX30l2cC9sHb9y7dCWhrFRZCUvEMPF0iMJjqgALtVCsKuUbXmBGyum62EJAshQV4aH0oKdm1r71tRQHs891KSkAv7Td43aDaprTGQKcRKyn3avJkVt6-N7nSn9EPKts4YGeXjNscwH8lvvtrJ-OtWDtT36oS2_U_leLrFdTeTcmsfxsW2ESgyoAW9AV2IdCgzkQICByrajtPBIZG9r2EpYOoopCFsqynh5bQJrKXe0tfYBeyda5Da59JxVZs2qLQ8wL1BiCyHoricJQkqFVy_M0Kcmn7LgTtYxEiXgRUSAd7QkVnjxZN1u_fW9yIvneLdfcxDPQrs43eaOvuzcl4CofCpTU31PJulx9eQegobI9W29EZYl0I3fqyp4r1N9Sqtks6zD5CxgoINaDV4Tmo5FabR_bsPkPMpjEuU8cbDyi8GhLVAA9UHc9yP_70A-hFPwBETLaBn6ydOHNS9jv5Owx9Em79YMNYjXLE8RdXHNIA_hTQPwFFkpsjPEEPuOPHKrHssYDwi11K0XstvK2oFLC- -De6WUQm-y3Gh-FUBT6wCzwHpdUEhRFg-waOf0bjEfrnX9r- -Mbw6TDQIjjztkpbkcwP53dQxkvzWxliEAVnlaZJNZ_4kCWMBPrE_Uyh36EIakZ2dpYlfnGDbkVe9rkNePpDiQwSrRESgSONNNM61feXlpvJp2bYzbFwa-Mlfh8hqyDJWJqqqrp3hph76eszD7ZpZXvz3Q5xXQhPU7EEgDwaG0ai2vqDeNEFEstwgTzx5pVNrrGNnGl63UrUMxP30dDf2c7kyEX-t5QRBS6SH4GrSZ4ImkeGv7nMEqM5Pw-tu7m00]--></g></svg>
