<?xml version="1.0" encoding="UTF-8" standalone="no"?>
<svg
   height="42.560661"
   width="41.5"
   version="1.1"
   id="svg4"
   xmlns="http://www.w3.org/2000/svg"
   xmlns:svg="http://www.w3.org/2000/svg">
  <defs
     id="defs8" />
  <path
     d="m 0.75,40.75 v -37 Q 0.75,2.6 1.65,1.675 2.55,0.75 3.75,0.75 h 34 q 1.15,0 2.075,0.925 Q 40.75,2.6 40.75,3.75 v 26 q 0,1.15 -0.925,2.075 Q 38.9,32.75 37.75,32.75 h -29 z m 3,-7.25 3.75,-3.75 h 30.25 v -26 h -34 z m 0,-29.75 V 33.5 Z"
     id="path2"
     style="fill:#009ca6;fill-opacity:1;stroke:#009ca6;stroke-width:1.5;stroke-dasharray:none;stroke-opacity:1" />
  <path
     style="font-variation-settings:'wght' 499;fill:#009ca6;fill-opacity:1;stroke:none;stroke-width:0.243758;stroke-dasharray:none;stroke-opacity:1"
     d="M 3.9002216,18.56353 V 3.9002216 H 20.800745 37.701269 V 16.819372 29.738522 H 22.550328 7.399387 l -1.7495826,1.744159 -1.7495828,1.744156 z m 12.3746324,5.527942 0.869528,-2.559454 3.995883,-0.04341 3.995884,-0.04341 0.879267,2.562237 0.879268,2.562236 1.990687,0.04563 c 1.094877,0.0251 1.990686,0.01934 1.990686,-0.01281 0,-0.05405 -5.295571,-14.765111 -6.607384,-18.355266 l -0.578936,-1.5844238 -2.541405,0.00396 -2.541405,0.00396 -3.535168,9.7869648 c -1.944343,5.382831 -3.534861,9.878374 -3.534485,9.990096 5.04e-4,0.151086 0.496122,0.203132 1.934368,0.203132 h 1.933685 z"
     id="path4871" />
  <path
     style="font-variation-settings:'wght' 499;fill:#009ca6;fill-opacity:1;stroke:none;stroke-width:0.243758;stroke-dasharray:none;stroke-opacity:1"
     d="m 18.03816,18.946492 c 0,-0.03668 0.694709,-2.138858 1.543797,-4.671496 0.849089,-2.532639 1.544754,-4.641597 1.545922,-4.686574 0.0033,-0.125955 3.083819,9.164419 3.084698,9.302889 4.26e-4,0.06703 -1.388644,0.121879 -3.086822,0.121879 -1.698177,0 -3.087595,-0.03001 -3.087595,-0.0667 z"
     id="path4873" />
</svg>
